<?xml version="1.0" encoding="utf-8"?>
<!-- Generator: Adobe Illustrator 19.2.0, SVG Export Plug-In . SVG Version: 6.00 Build 0)  -->
<svg version="1.1" id="repas_2" xmlns="http://www.w3.org/2000/svg" xmlns:xlink="http://www.w3.org/1999/xlink" x="0px" y="0px"
	 viewBox="0 0 1200 800" style="enable-background:new 0 0 1200 800;" xml:space="preserve">
<style type="text/css">
	.st0{fill:#EAE778;}
	.st1{fill:#FFFFFF;}
	.st2{fill:none;stroke:#EAE778;stroke-width:5;stroke-miterlimit:10;}
	.st3{fill:#1D1D1B;}
	.st4{fill:none;stroke:#1D1D1B;stroke-miterlimit:10;}
</style>
<g>
	<path class="st0" d="M104.4,134.7c0,0,930.9-47.7,940.2-49.7l39,583.6l-951.9,65.1L104.4,134.7z"/>
	<circle class="st1" cx="162.8" cy="166.7" r="8.3"/>
	<circle class="st1" cx="253.2" cy="213.9" r="8.3"/>
	<circle class="st1" cx="162.8" cy="311.4" r="8.3"/>
	<circle class="st1" cx="305.2" cy="366" r="8.3"/>
	<circle class="st1" cx="225.8" cy="516.4" r="8.3"/>
	<circle class="st1" cx="189.4" cy="651.9" r="8.3"/>
	<circle class="st1" cx="327" cy="680.4" r="8.3"/>
	<circle class="st1" cx="348.5" cy="575" r="8.3"/>
	<circle class="st1" cx="493.7" cy="682.9" r="8.3"/>
	<circle class="st1" cx="790.5" cy="622.2" r="8.3"/>
	<circle class="st1" cx="1022.7" cy="635.4" r="8.3"/>
	<circle class="st1" cx="958.5" cy="508.1" r="8.3"/>
	<circle class="st1" cx="1031" cy="374.2" r="8.3"/>
	<circle class="st1" cx="897.4" cy="349.5" r="8.3"/>
	<circle class="st1" cx="823.3" cy="235" r="8.3"/>
	<circle class="st1" cx="914.2" cy="142.2" r="8.3"/>
	<circle class="st1" cx="1018.9" cy="205.7" r="8.3"/>
	<circle class="st1" cx="654.5" cy="142.2" r="8.3"/>
	<circle class="st1" cx="392.5" cy="218.5" r="8.3"/>
	<g>
		<g>
			<line class="st2" x1="70" y1="144.6" x2="108.9" y2="141.2"/>
			<path class="st2" d="M72,159c1.2,0,38.4-2.9,38.4-2.9"/>
			<line class="st2" x1="74.9" y1="174.2" x2="112.5" y2="171.7"/>
			<line class="st2" x1="75.7" y1="188.7" x2="112.1" y2="188.7"/>
			<path class="st2" d="M75.1,206.5c0.8,0.1,40-5.3,40-5.3"/>
			<path class="st2" d="M79.8,219.9c1.7,0,38.4-7,38.4-7"/>
			<path class="st2" d="M77.3,234c1.7-0.4,38.4,0,38.4,0"/>
			<line class="st2" x1="77.6" y1="249" x2="110.5" y2="246.9"/>
			<line class="st2" x1="78.8" y1="263.8" x2="116" y2="258.8"/>
			<line class="st2" x1="77.3" y1="277.8" x2="111.6" y2="275.8"/>
		</g>
		<g>
			<line class="st2" x1="77.8" y1="294.2" x2="116.6" y2="290.8"/>
			<path class="st2" d="M79.7,308.5c1.2,0,38.4-2.9,38.4-2.9"/>
			<line class="st2" x1="82.6" y1="323.8" x2="120.2" y2="321.3"/>
			<line class="st2" x1="83.5" y1="338.3" x2="119.8" y2="338.3"/>
			<path class="st2" d="M82.9,356.1c0.8,0.1,40-5.3,40-5.3"/>
			<path class="st2" d="M87.5,369.5c1.7,0,38.4-7,38.4-7"/>
			<path class="st2" d="M85,383.5c1.7-0.4,38.4,0,38.4,0"/>
			<line class="st2" x1="85.3" y1="398.5" x2="118.2" y2="396.5"/>
			<line class="st2" x1="86.6" y1="413.4" x2="123.7" y2="408.4"/>
			<line class="st2" x1="85" y1="427.4" x2="119.3" y2="425.3"/>
		</g>
		<g>
			<line class="st2" x1="87.2" y1="444.3" x2="126" y2="440.9"/>
			<path class="st2" d="M89.1,458.6c1.2,0,38.4-2.9,38.4-2.9"/>
			<line class="st2" x1="92" y1="473.9" x2="129.6" y2="471.4"/>
			<line class="st2" x1="92.8" y1="488.4" x2="129.2" y2="488.4"/>
			<path class="st2" d="M92.2,506.2c0.8,0.1,40-5.3,40-5.3"/>
			<path class="st2" d="M96.9,519.6c1.7,0,38.4-7,38.4-7"/>
			<path class="st2" d="M94.4,533.6c1.7-0.4,38.4,0,38.4,0"/>
			<line class="st2" x1="94.7" y1="548.7" x2="127.6" y2="546.6"/>
			<line class="st2" x1="95.9" y1="563.5" x2="133.1" y2="558.5"/>
			<line class="st2" x1="94.4" y1="577.5" x2="128.7" y2="575.4"/>
		</g>
		<g>
			<line class="st2" x1="93.3" y1="594" x2="132.1" y2="590.6"/>
			<path class="st2" d="M95.2,608.4c1.2,0,38.4-2.9,38.4-2.9"/>
			<line class="st2" x1="98.1" y1="623.6" x2="135.7" y2="621.1"/>
			<line class="st2" x1="98.9" y1="638.1" x2="135.3" y2="638.1"/>
			<path class="st2" d="M98.3,655.9c0.8,0.1,40-5.3,40-5.3"/>
			<path class="st2" d="M103,669.3c1.7,0,38.4-7,38.4-7"/>
			<path class="st2" d="M100.5,683.3c1.7-0.4,38.4,0,38.4,0"/>
			<line class="st2" x1="100.8" y1="698.4" x2="133.7" y2="696.3"/>
			<line class="st2" x1="102" y1="713.2" x2="139.2" y2="708.2"/>
			<line class="st2" x1="100.5" y1="727.2" x2="134.8" y2="725.1"/>
		</g>
	</g>
	<g>
		<g>
			<line class="st2" x1="1039.2" y1="92.3" x2="1078" y2="88.9"/>
			<path class="st2" d="M1041.1,106.4c1.2,0,38.4-2.8,38.4-2.8"/>
			<line class="st2" x1="1044" y1="121.3" x2="1081.6" y2="118.9"/>
			<line class="st2" x1="1044.8" y1="135.5" x2="1081.2" y2="135.5"/>
			<path class="st2" d="M1044.3,153c0.8,0.1,40-5.2,40-5.2"/>
			<path class="st2" d="M1048.9,166.1c1.7,0,38.4-6.9,38.4-6.9"/>
			<path class="st2" d="M1046.4,179.9c1.7-0.4,38.4,0,38.4,0"/>
			<line class="st2" x1="1046.7" y1="194.6" x2="1079.6" y2="192.6"/>
			<line class="st2" x1="1047.9" y1="209.2" x2="1085.1" y2="204.3"/>
			<line class="st2" x1="1046.4" y1="222.9" x2="1080.7" y2="220.9"/>
		</g>
		<g>
			<line class="st2" x1="1046.9" y1="239" x2="1085.8" y2="235.6"/>
			<path class="st2" d="M1048.9,253c1.2,0,38.4-2.8,38.4-2.8"/>
			<line class="st2" x1="1051.8" y1="268" x2="1089.4" y2="265.5"/>
			<line class="st2" x1="1052.6" y1="282.2" x2="1089" y2="282.2"/>
			<path class="st2" d="M1052,299.7c0.8,0.1,40-5.2,40-5.2"/>
			<path class="st2" d="M1056.7,312.8c1.7,0,38.4-6.9,38.4-6.9"/>
			<path class="st2" d="M1054.2,326.6c1.7-0.4,38.4,0,38.4,0"/>
			<line class="st2" x1="1054.5" y1="341.3" x2="1087.4" y2="339.3"/>
			<line class="st2" x1="1055.7" y1="355.9" x2="1092.9" y2="351"/>
			<line class="st2" x1="1054.2" y1="369.6" x2="1088.5" y2="367.6"/>
		</g>
		<g>
			<line class="st2" x1="1056.3" y1="386.2" x2="1095.1" y2="382.9"/>
			<path class="st2" d="M1058.2,400.3c1.2,0,38.4-2.8,38.4-2.8"/>
			<line class="st2" x1="1061.1" y1="415.2" x2="1098.7" y2="412.8"/>
			<line class="st2" x1="1062" y1="429.5" x2="1098.3" y2="429.5"/>
			<path class="st2" d="M1061.4,446.9c0.8,0.1,40-5.2,40-5.2"/>
			<path class="st2" d="M1066,460.1c1.7,0,38.4-6.9,38.4-6.9"/>
			<path class="st2" d="M1063.6,473.8c1.7-0.4,38.4,0,38.4,0"/>
			<line class="st2" x1="1063.8" y1="488.6" x2="1096.7" y2="486.5"/>
			<line class="st2" x1="1065.1" y1="503.1" x2="1102.2" y2="498.2"/>
			<line class="st2" x1="1063.6" y1="516.8" x2="1097.8" y2="514.8"/>
		</g>
		<g>
			<line class="st2" x1="1062.4" y1="533.1" x2="1101.2" y2="529.7"/>
			<path class="st2" d="M1064.3,547.1c1.2,0,38.4-2.8,38.4-2.8"/>
			<line class="st2" x1="1067.2" y1="562.1" x2="1104.8" y2="559.6"/>
			<line class="st2" x1="1068.1" y1="576.3" x2="1104.4" y2="576.3"/>
			<path class="st2" d="M1067.5,593.8c0.8,0.1,40-5.2,40-5.2"/>
			<path class="st2" d="M1072.1,606.9c1.7,0,38.4-6.9,38.4-6.9"/>
			<path class="st2" d="M1069.7,620.7c1.7-0.4,38.4,0,38.4,0"/>
			<line class="st2" x1="1069.9" y1="635.4" x2="1102.8" y2="633.4"/>
			<line class="st2" x1="1071.2" y1="649.9" x2="1108.3" y2="645.1"/>
			<line class="st2" x1="1069.7" y1="663.7" x2="1103.9" y2="661.7"/>
		</g>
	</g>
</g>
<g>
	<g>
		<path class="st1" d="M342.2,365.2c4.7-24,14.9-55.8,29.9-78.1c48.3-71.7,110.2-94.2,192-104.1c157.4-19.8,297.5,123.3,264.4,284.8
			c-21.3,104.1-87.2,168.8-170.2,189.9c-73.1,19.8-160.5,13.6-239.8-45.9C346.2,557.6,331.7,485.4,342.2,365.2"/>
		<g>
			<path class="st3" d="M344.6,365.8c5.6-28.1,15.1-56.4,31.4-80.1c14.6-21.2,32.4-40.4,53.4-55.4c40.6-28.9,90.7-40.4,139.5-45.5
				c48.3-5.1,97.5,5.4,139.7,29.4c41.1,23.3,75.2,58.6,96.7,100.6c22.7,44.3,30.5,95.3,22.2,144.3c-8.6,50.5-30.4,99.6-66.4,136.6
				c-33.3,34.2-76.1,54.5-122.5,63.9c-55.9,11.3-114.5,5.3-166.4-18.6c-44.3-20.4-86.1-52.1-108.3-96.5
				c-20.9-41.9-23.6-90.4-22-136.3c0.5-14.4,1.5-28.7,2.7-43.1c0.3-3.2-4.7-3.2-5,0c-4.4,51.2-6.8,105.3,9,154.9
				c6.4,20.1,16.1,39.1,29.1,55.8c14.9,19.2,33.5,34.8,53.7,48.2c50.1,33.3,109.9,49.6,170,45.6c49.2-3.3,98.7-18.2,138.3-48.3
				c40.5-30.7,68.4-74.7,83.5-123c15.6-50.1,17.2-103.4,0.3-153.4c-15.5-45.7-44.9-86.2-83-115.6c-38.8-29.9-86.2-48-135.2-50.5
				c-26.4-1.4-52.8,2.3-78.7,7.3c-24.3,4.7-48.3,11.7-70.7,22.6c-47.4,23.1-86.1,65-104.5,114.4c-5,13.4-8.9,27.2-11.7,41.2
				C339.1,367.6,344,369,344.6,365.8L344.6,365.8z"/>
		</g>
	</g>
	<g>
		<g>
			<path class="st3" d="M569,239c46.6-5.7,93.6,6.9,131.4,34.8c37.1,27.3,63.6,68.1,72.4,113.4c9.5,48.8-2.6,101.9-29.4,143.4
				c-25.1,38.8-63.5,63.9-108.1,74.7c-54.1,13.1-111.2,4.9-158.9-23.8c-6.8-4.1-13.3-8.5-19.6-13.2c-2.6-1.9-5.1,2.4-2.5,4.3
				c47,35,105.1,50.2,163.2,41.3c47.1-7.2,90.4-28.8,120.2-66.7c30.9-39.4,47.3-92.8,42.6-142.7c-4.4-47.3-27.4-91.6-62.8-123.2
				c-35.5-31.7-82.3-49.8-129.9-48.7c-6.2,0.1-12.5,0.6-18.7,1.4C565.8,234.3,565.8,239.3,569,239L569,239z"/>
		</g>
	</g>
</g>
<g>
	<g>
		<path class="st1" d="M757.7,33c-2.5,10.5-12.2,101.6-12.8,140.1c17.2,6.8,74.2,19.5,83.5,20.1c6.8-10.8,40.3-101.3,49-138.5
			c-21.7,6.5-42.4,3.4-59.8,0C799.7,51.1,774.1,45.1,757.7,33c22.3-15.2,47-8.3,61.6-6c16.2,2.5,49.7,12.5,58,27.7"/>
		<g>
			<path class="st3" d="M755.3,32.3c-3,13.3-3.8,27.4-5.2,40.9c-2.4,22.4-4.5,44.9-6.1,67.5c-0.8,10.8-1.4,21.6-1.6,32.4
				c0,1.2,0.8,2,1.8,2.4c14.5,5.6,30.2,9,45.3,12.5c12.7,3,25.8,6.7,38.8,7.7c0.9,0.1,1.7-0.5,2.2-1.2c2.7-4.5,4.6-9.6,6.6-14.5
				c3.7-8.8,7.1-17.7,10.5-26.7c8.2-21.9,16-44.1,23.1-66.4c3.3-10.4,6.5-20.9,9-31.5c0.4-1.8-1.2-3.6-3.1-3.1
				c-21.6,6.2-43.4,3.3-65-1.3c-18.3-3.9-37.3-9-52.7-20.1c0,1.4,0,2.9,0,4.3c19.9-13.1,43.4-9.4,65.4-4.7c9.6,2,19.1,4.9,28,8.8
				c8.4,3.7,17.9,8.5,22.7,16.7c1.6,2.8,5.9,0.3,4.3-2.5c-5-8.6-14.5-13.9-23.3-17.9c-9.7-4.4-20-7.7-30.4-9.9
				c-23.3-4.9-48.2-8.6-69.3,5.2c-1.7,1.1-1.5,3.2,0,4.3C772.5,46.7,792.6,52,811.7,56c22,4.7,44.3,7.4,66.3,1.1
				c-1-1-2.1-2.1-3.1-3.1c-4.7,20.1-11.5,39.8-18.2,59.3c-7.1,20.5-14.5,40.9-22.6,61c-2.4,5.9-4.6,12.2-7.9,17.6
				c0.7-0.4,1.4-0.8,2.2-1.2c-12.9-1-26.1-4.8-38.7-7.8c-14.8-3.5-30-6.7-44.1-12.2c0.6,0.8,1.2,1.6,1.8,2.4
				c0.7-40.6,5.2-81.5,10.2-121.9c0.7-5.8,1.2-11.8,2.6-17.6C760.8,30.5,756,29.2,755.3,32.3L755.3,32.3z"/>
		</g>
	</g>
	<g>
		<g>
			<path class="st3" d="M840.8,84.4c-8.7,25.9-14.7,52.6-23.5,78.4c-1,3.1,3.8,4.4,4.8,1.3c8.8-25.8,14.9-52.5,23.5-78.4
				C846.7,82.6,841.8,81.3,840.8,84.4L840.8,84.4z"/>
		</g>
	</g>
	<g>
		<g>
			<path class="st3" d="M808.7,76.9c-6.4,26.8-12.1,53.8-17.4,80.9c-0.6,3.1,4.2,4.5,4.8,1.3c5.4-27,11-54.1,17.4-80.9
				C814.3,75.1,809.4,73.8,808.7,76.9L808.7,76.9z"/>
		</g>
	</g>
	<g>
		<g>
			<path class="st3" d="M774.7,71.7c-1.9,26.3-6.5,52.4-7.7,78.7c-0.1,3.2,4.9,3.2,5,0c1.2-26.3,5.8-52.4,7.7-78.7
				C780,68.5,775,68.5,774.7,71.7L774.7,71.7z"/>
		</g>
	</g>
</g>
<g>
	<path class="st3" d="M923.7,355.2c-1.2,13-24,191.2-29,229.5c3.6,0.6,11.3,1,15,1.7c8.9-58.3,26.3-215.4,28.3-229.8
		c5,0.3,18.6,1.9,25.3,2.2c3.1-11.8,13.8-68.3,15.9-82.8c-3.5-0.7-10.7-2.2-15-2.4c-1,5.9-8.3,58.4-9.8,65.7
		c-3.7-0.1-7.7-0.4-13.9-0.9c2.5-18.3,7.9-50.5,10.2-69c-3.6-0.4-11.1-2.3-13.6-2c-1,5.9-9.3,62.2-10.5,70.1
		c-3.1,0.1-6.7-1.8-11.3-1.9c1.1-12.7,6.7-56.4,7.3-70.1c-4.4,0-8.3-0.1-14.2-1c-0.7,8.9-7.9,78.3-8.2,87.4
		C906.9,353.3,920.1,354.6,923.7,355.2"/>
</g>
<g>
	<path class="st3" d="M188.2,284c3.4,20,65.2,268.8,81.7,319.6c5.6-1.4,8.9-3.2,12.9-4.3c-1.6-7.3-36.1-130.6-37.6-141.2
		c6.2-6.5,10.5-12.2,15.2-16.8c-2.2-3.1-6.7-9.4-8.8-13.6c3-4.7,8.6-9.2,12.1-12.7c-5.6-3.3-8.5-9.5-13.1-13.6
		c2.1-5.2,6-8.8,8.5-14.1c-5.3-5.2-10.6-7-14.8-10.9c3-5.7,5.5-13.7,9.7-24.7c-6.5-4-11.9-8.5-17.4-12.1c1.7-4.4,5.4-9.7,8-15.2
		c-4.3-1.8-11.8-6.6-15.9-8.9c1.4-4,1.5-9.7,2.7-14.9c-6.7,0.2-9.7,0.6-15,0.2c-1-4.4-1.2-6-4.1-14.8c-6.7,3.5-7.2,3.8-11.8,5.7
		C196.8,290,192.3,286.9,188.2,284"/>
</g>
<g>
	<g>
		<path class="st3" d="M406.2,122.6c-12.3-22.9,11.2-48.4,27.5-52.4c13.9-3.1,25.5-2.5,35.8,7c4.6,4.3,13.7,17.4,11,28.5
			c-4.9,25.6-29.2,41-45.6,39c-7.8-1-16.4-5-21-10.2c-9.6,6.4-89.8,57.2-102.8,64.9c-2.2-4-4-7-7-12.4
			C314.3,180.8,392.8,130.8,406.2,122.6"/>
	</g>
	<g>
		<g>
			<path class="st1" d="M457.7,91c-5.2-9.1-16.5-9.1-25.1-5.1c-10.7,4.9-14.2,16.4-10.8,27.2c1,3.1,5.8,1.7,4.8-1.3
				c-2.6-8.2-0.7-16.9,7.5-21c6.2-3.2,15.3-4.1,19.3,2.8C455,96.3,459.3,93.8,457.7,91L457.7,91z"/>
		</g>
	</g>
</g>
<g>
	
		<ellipse transform="matrix(0.3502 -0.9367 0.9367 0.3502 -13.3768 185.2619)" class="st3" cx="126.8" cy="102.3" rx="5.3" ry="6.7"/>
	<ellipse transform="matrix(0.35 -0.9367 0.9367 0.35 -17.9092 167.4068)" class="st3" cx="111.7" cy="96.6" rx="5.3" ry="6.7"/>
	
		<ellipse transform="matrix(0.3502 -0.9367 0.9367 0.3502 -15.7937 175.7547)" class="st3" cx="118.8" cy="99.3" rx="2.6" ry="3.4"/>
	
		<ellipse transform="matrix(0.3505 -0.9366 0.9366 0.3505 -16.3435 198.032)" class="st3" cx="134.6" cy="110.8" rx="1.2" ry="1.5"/>
	<ellipse transform="matrix(0.3502 -0.9367 0.9367 0.3502 -4.681 195.1123)" class="st3" cx="138.3" cy="100.9" rx="1.2" ry="1.5"/>
	<line class="st4" x1="138.3" y1="100.9" x2="132.1" y2="101.4"/>
	<line class="st4" x1="134" y1="110.6" x2="129.8" y2="106.2"/>
	<polyline class="st4" points="124.9,88.3 127.4,94 123.9,100 	"/>
	<polyline class="st4" points="120.4,86.7 123.1,92.9 119.8,98.5 	"/>
	<polyline class="st4" points="116.5,86.5 119.3,92.3 115.7,95.3 	"/>
	<polyline class="st4" points="117.6,111.9 122.8,108.7 124.3,102.5 	"/>
	<polyline class="st4" points="113.2,108.7 118.2,106.2 119.5,100.7 	"/>
	<polyline class="st4" points="107.9,106.8 114,103.8 113,99.9 	"/>
</g>
</svg>
