<?xml version="1.0" encoding="UTF-8" standalone="no"?><!DOCTYPE svg PUBLIC "-//W3C//DTD SVG 1.1//EN" "http://www.w3.org/Graphics/SVG/1.1/DTD/svg11.dtd"><svg width="100%" height="100%" viewBox="0 0 1200 800" version="1.1" xmlns="http://www.w3.org/2000/svg" xmlns:xlink="http://www.w3.org/1999/xlink" xml:space="preserve" style="fill-rule:evenodd;clip-rule:evenodd;stroke-miterlimit:10;"><g><path d="M104.4,134.7c0,0 930.9,-47.7 940.2,-49.7l39,583.6l-951.9,65.1l-27.3,-599Z" style="fill:#eae778;fill-rule:nonzero;"/><circle cx="162.8" cy="166.7" r="8.3" style="fill:#fff;"/><circle cx="253.2" cy="213.9" r="8.3" style="fill:#fff;"/><circle cx="162.8" cy="311.4" r="8.3" style="fill:#fff;"/><circle cx="305.2" cy="366" r="8.3" style="fill:#fff;"/><circle cx="225.8" cy="516.4" r="8.3" style="fill:#fff;"/><circle cx="189.4" cy="651.9" r="8.3" style="fill:#fff;"/><circle cx="327" cy="680.4" r="8.3" style="fill:#fff;"/><circle cx="348.5" cy="575" r="8.3" style="fill:#fff;"/><circle cx="493.7" cy="682.9" r="8.3" style="fill:#fff;"/><circle cx="790.5" cy="622.2" r="8.3" style="fill:#fff;"/><circle cx="1022.7" cy="635.4" r="8.3" style="fill:#fff;"/><circle cx="958.5" cy="508.1" r="8.3" style="fill:#fff;"/><circle cx="1031" cy="374.2" r="8.3" style="fill:#fff;"/><circle cx="897.4" cy="349.5" r="8.3" style="fill:#fff;"/><circle cx="823.3" cy="235" r="8.3" style="fill:#fff;"/><circle cx="914.2" cy="142.2" r="8.3" style="fill:#fff;"/><circle cx="1018.9" cy="205.7" r="8.3" style="fill:#fff;"/><circle cx="654.5" cy="142.2" r="8.3" style="fill:#fff;"/><circle cx="392.5" cy="218.5" r="8.3" style="fill:#fff;"/><g><g><path d="M109.118,143.691l-38.9,3.4l-0.436,-4.981l38.9,-3.401l0.436,4.982Z" style="fill:#eae778;"/><path d="M110.594,158.592l-1.601,0.125l-4.231,0.329l-6.003,0.464l-3.398,0.262l-3.52,0.271l-3.534,0.27l-3.44,0.262l-3.241,0.245l-2.934,0.22l-1.319,0.098l-1.202,0.088l-1.072,0.077l-0.93,0.066l-0.775,0.054l-0.607,0.039l-0.243,0.015l-0.2,0.011l-0.171,0.008l-0.14,0.004l-0.033,0l0,-5l-0.032,0l0.024,-0.001l0.096,-0.004l0.165,-0.009l0.218,-0.014l0.588,-0.038l0.761,-0.053l0.921,-0.065l1.067,-0.077l1.198,-0.088l1.315,-0.097l2.929,-0.22l3.238,-0.244l3.439,-0.262l3.532,-0.271l3.518,-0.27l3.397,-0.262l6.002,-0.464l4.229,-0.329l1.601,-0.124l0.388,4.984Z" style="fill:#eae778;"/><path d="M112.666,174.194l-37.6,2.5l-0.332,-4.988l37.6,-2.5l0.332,4.988Z" style="fill:#eae778;"/><rect x="75.7" y="186.2" width="36.4" height="5" style="fill:#eae778;"/><path d="M115.441,203.677l-1.687,0.232l-4.452,0.61l-2.98,0.407l-3.33,0.454l-3.567,0.485l-3.69,0.5l-3.7,0.499l-1.819,0.243l-1.778,0.238l-1.724,0.229l-1.655,0.22l-1.573,0.206l-1.476,0.193l-1.366,0.177l-1.242,0.158l-1.102,0.139l-0.497,0.061l-0.456,0.055l-0.416,0.05l-0.374,0.043l-0.332,0.037l-0.289,0.031l-0.245,0.024l-0.115,0.01l-0.106,0.009l-0.106,0.007l-0.118,0.006l-0.165,0.002l-0.111,-0.005l0.26,-4.994l-0.059,-0.003l-0.087,0.002l-0.011,0l0.028,-0.002l0.053,-0.004l0.07,-0.006l0.202,-0.02l0.256,-0.027l0.308,-0.035l0.357,-0.041l0.403,-0.048l0.446,-0.054l0.487,-0.06l1.092,-0.137l1.232,-0.157l1.358,-0.176l1.471,-0.192l1.569,-0.206l1.652,-0.219l1.72,-0.229l1.776,-0.237l1.816,-0.244l3.696,-0.498l3.688,-0.499l3.564,-0.485l3.329,-0.454l2.977,-0.407l4.451,-0.61l1.685,-0.232l0.682,4.954Z" style="fill:#eae778;"/><path d="M118.667,215.356l-1.58,0.301l-1.819,0.345l-2.364,0.448l-2.804,0.53l-3.14,0.592l-3.369,0.632l-1.739,0.326l-1.756,0.328l-1.762,0.328l-1.754,0.325l-1.733,0.32l-1.698,0.313l-1.652,0.303l-1.591,0.289l-1.518,0.275l-1.432,0.256l-1.332,0.237l-0.626,0.11l-0.596,0.103l-0.565,0.098l-0.532,0.091l-0.499,0.083l-0.463,0.077l-0.427,0.07l-0.39,0.061l-0.351,0.054l-0.314,0.046l-0.274,0.037l-0.131,0.017l-0.121,0.014l-0.119,0.012l-0.121,0.011l-0.134,0.009l-0.092,0.002l-0.138,-4.998l-0.016,0.001l0.021,-0.002l0.049,-0.005l0.069,-0.008l0.084,-0.011l0.224,-0.03l0.273,-0.04l0.322,-0.049l0.367,-0.058l0.409,-0.067l0.449,-0.074l0.487,-0.082l0.523,-0.089l0.556,-0.096l0.589,-0.103l0.618,-0.108l1.323,-0.235l1.424,-0.255l1.511,-0.273l1.586,-0.289l1.647,-0.302l1.694,-0.312l1.729,-0.319l1.751,-0.325l1.759,-0.328l1.755,-0.327l1.736,-0.325l3.366,-0.632l3.137,-0.591l2.801,-0.53l2.362,-0.447l1.817,-0.345l1.58,-0.301l0.934,4.912Z" style="fill:#eae778;"/><path d="M90.201,231.324l1.7,0.004l1.733,0.006l1.755,0.007l1.762,0.009l1.757,0.01l1.739,0.011l1.707,0.011l1.663,0.013l3.14,0.025l2.805,0.024l2.364,0.022l1.819,0.018l1.581,0.016l-0.052,5l-1.58,-0.017l-1.816,-0.017l-2.361,-0.022l-2.802,-0.025l-3.136,-0.025l-1.66,-0.012l-1.705,-0.011l-1.736,-0.011l-1.754,-0.01l-1.758,-0.009l-1.751,-0.007l-1.728,-0.006l-1.694,-0.004l-1.646,-0.002l-1.585,0.001l-1.51,0.003l-0.723,0.002l-0.699,0.003l-0.674,0.004l-0.647,0.005l-0.618,0.005l-0.587,0.006l-0.555,0.007l-0.521,0.008l-0.484,0.009l-0.447,0.009l-0.406,0.011l-0.363,0.011l-0.32,0.012l-0.138,0.006l-0.127,0.007l-0.113,0.006l-0.098,0.006l-0.08,0.006l-0.062,0.005l-0.038,0.004l-0.008,0.001l0.035,-0.005l0.01,-0.002l-0.978,-4.904l0.103,-0.02l0.152,-0.023l0.135,-0.017l0.128,-0.013l0.13,-0.011l0.133,-0.009l0.14,-0.009l0.148,-0.008l0.156,-0.008l0.167,-0.008l0.353,-0.013l0.393,-0.012l0.43,-0.011l0.466,-0.01l0.5,-0.009l0.535,-0.008l0.566,-0.007l0.597,-0.007l0.627,-0.005l0.654,-0.005l0.68,-0.004l0.706,-0.003l0.728,-0.002l1.519,-0.003l1.592,-0.001l1.652,0.002Z" style="fill:#eae778;"/><path d="M110.659,249.395l-32.9,2.1l-0.318,-4.99l32.9,-2.1l0.318,4.99Z" style="fill:#eae778;"/><path d="M116.333,261.278l-37.2,5l-0.666,-4.956l37.2,-5l0.666,4.956Z" style="fill:#eae778;"/><path d="M111.746,278.296l-34.3,2l-0.292,-4.992l34.3,-2l0.292,4.992Z" style="fill:#eae778;"/></g><g><path d="M116.818,293.29l-38.8,3.4l-0.436,-4.98l38.8,-3.4l0.436,4.98Z" style="fill:#eae778;"/><path d="M118.294,308.092l-1.601,0.125l-4.231,0.329l-6.003,0.464l-3.398,0.262l-3.52,0.271l-3.534,0.27l-3.44,0.262l-3.241,0.245l-2.934,0.22l-1.319,0.098l-1.202,0.088l-1.072,0.077l-0.93,0.066l-0.775,0.054l-0.607,0.039l-0.243,0.015l-0.2,0.011l-0.171,0.008l-0.14,0.004l-0.033,0l0,-5l-0.032,0l0.024,-0.001l0.096,-0.004l0.165,-0.009l0.218,-0.014l0.588,-0.038l0.761,-0.053l0.921,-0.065l1.067,-0.077l1.198,-0.088l1.315,-0.097l2.929,-0.22l3.238,-0.244l3.439,-0.262l3.532,-0.271l3.518,-0.27l3.397,-0.262l6.002,-0.464l4.229,-0.329l1.601,-0.124l0.388,4.984Z" style="fill:#eae778;"/><path d="M120.366,323.794l-37.6,2.501l-0.332,-4.989l37.6,-2.501l0.332,4.989Z" style="fill:#eae778;"/><rect x="83.5" y="335.8" width="36.3" height="5" style="fill:#eae778;"/><path d="M123.241,353.277l-1.687,0.232l-4.452,0.61l-2.98,0.407l-3.33,0.454l-3.567,0.485l-3.69,0.5l-3.7,0.499l-1.819,0.243l-1.778,0.238l-1.724,0.229l-1.655,0.22l-1.573,0.206l-1.476,0.193l-1.366,0.177l-1.242,0.158l-1.102,0.139l-0.497,0.061l-0.456,0.055l-0.416,0.05l-0.374,0.043l-0.332,0.037l-0.289,0.031l-0.245,0.024l-0.115,0.01l-0.107,0.009l-0.105,0.007l-0.117,0.006l-0.166,0.002l-0.111,-0.005l0.26,-4.994l-0.06,-0.003l-0.086,0.002l-0.011,0l0.028,-0.002l0.053,-0.004l0.071,-0.006l0.201,-0.02l0.256,-0.027l0.308,-0.035l0.357,-0.041l0.403,-0.048l0.446,-0.054l0.487,-0.06l1.092,-0.137l1.232,-0.157l1.358,-0.176l1.471,-0.192l1.569,-0.206l1.652,-0.219l1.72,-0.229l1.776,-0.237l1.816,-0.244l3.696,-0.498l3.688,-0.499l3.564,-0.485l3.329,-0.454l2.977,-0.407l4.451,-0.61l1.685,-0.232l0.682,4.954Z" style="fill:#eae778;"/><path d="M126.367,364.956l-1.58,0.301l-1.819,0.345l-2.364,0.448l-2.804,0.53l-3.14,0.592l-3.369,0.632l-1.739,0.326l-1.756,0.328l-1.762,0.328l-1.754,0.325l-1.733,0.32l-1.698,0.313l-1.652,0.303l-1.591,0.289l-1.518,0.275l-1.432,0.256l-1.332,0.237l-0.626,0.11l-0.596,0.103l-0.565,0.098l-0.532,0.091l-0.499,0.084l-0.463,0.076l-0.427,0.07l-0.39,0.061l-0.351,0.054l-0.314,0.046l-0.274,0.037l-0.131,0.017l-0.121,0.014l-0.119,0.012l-0.121,0.011l-0.134,0.008l-0.091,0.003l-0.14,-4.998l-0.015,0.001l0.021,-0.002l0.049,-0.005l0.07,-0.008l0.083,-0.011l0.224,-0.03l0.273,-0.04l0.322,-0.049l0.367,-0.058l0.409,-0.067l0.449,-0.074l0.487,-0.082l0.523,-0.089l0.556,-0.096l0.589,-0.103l0.618,-0.108l1.323,-0.235l1.424,-0.255l1.511,-0.273l1.586,-0.289l1.647,-0.302l1.694,-0.312l1.729,-0.319l1.751,-0.325l1.759,-0.328l1.755,-0.327l1.736,-0.325l3.366,-0.632l3.137,-0.591l2.801,-0.53l2.362,-0.447l1.817,-0.345l1.58,-0.301l0.934,4.912Z" style="fill:#eae778;"/><path d="M97.901,380.824l1.7,0.004l1.733,0.006l1.755,0.007l1.762,0.009l1.757,0.01l1.739,0.011l1.707,0.011l1.663,0.013l3.14,0.025l2.805,0.024l2.364,0.022l1.819,0.018l1.581,0.016l-0.052,5l-1.58,-0.017l-1.816,-0.017l-2.361,-0.022l-2.802,-0.025l-3.136,-0.025l-1.66,-0.012l-1.705,-0.011l-1.736,-0.011l-1.754,-0.01l-1.758,-0.009l-1.751,-0.007l-1.728,-0.006l-1.694,-0.004l-1.646,-0.002l-1.585,0.001l-1.511,0.003l-0.722,0.002l-0.699,0.003l-0.674,0.004l-0.647,0.005l-0.618,0.005l-0.587,0.006l-0.555,0.007l-0.521,0.008l-0.485,0.009l-0.446,0.009l-0.406,0.011l-0.363,0.011l-0.321,0.012l-0.137,0.006l-0.127,0.007l-0.113,0.006l-0.098,0.006l-0.08,0.006l-0.062,0.005l-0.038,0.004l-0.008,0.001l0.035,-0.005l0.01,-0.002l-0.978,-4.904l0.103,-0.02l0.152,-0.023l0.134,-0.017l0.13,-0.013l0.129,-0.011l0.133,-0.009l0.14,-0.009l0.148,-0.008l0.156,-0.008l0.167,-0.008l0.353,-0.013l0.393,-0.012l0.43,-0.011l0.466,-0.01l0.501,-0.009l0.534,-0.008l0.566,-0.007l0.597,-0.007l0.627,-0.005l0.654,-0.005l0.68,-0.004l0.706,-0.003l0.728,-0.002l1.519,-0.003l1.592,-0.001l1.652,0.002Z" style="fill:#eae778;"/><path d="M118.352,398.995l-32.9,2l-0.304,-4.99l32.9,-2l0.304,4.99Z" style="fill:#eae778;"/><path d="M124.034,410.878l-37.1,5l-0.668,-4.956l37.1,-5l0.668,4.956Z" style="fill:#eae778;"/><path d="M119.453,427.795l-34.3,2.1l-0.306,-4.99l34.3,-2.1l0.306,4.99Z" style="fill:#eae778;"/></g><g><path d="M126.218,443.39l-38.8,3.4l-0.436,-4.98l38.8,-3.4l0.436,4.98Z" style="fill:#eae778;"/><path d="M127.694,458.192l-1.601,0.125l-4.231,0.329l-6.003,0.464l-3.398,0.262l-3.52,0.271l-3.534,0.27l-3.44,0.262l-3.241,0.245l-2.934,0.22l-1.319,0.098l-1.202,0.088l-1.072,0.077l-0.93,0.066l-0.775,0.054l-0.607,0.039l-0.243,0.015l-0.2,0.011l-0.171,0.008l-0.14,0.004l-0.033,0l0,-5l-0.032,0l0.024,-0.001l0.096,-0.004l0.165,-0.009l0.218,-0.014l0.588,-0.038l0.761,-0.053l0.921,-0.065l1.067,-0.077l1.198,-0.088l1.315,-0.097l2.929,-0.22l3.238,-0.244l3.439,-0.262l3.532,-0.271l3.518,-0.27l3.397,-0.262l6.002,-0.464l4.229,-0.329l1.601,-0.124l0.388,4.984Z" style="fill:#eae778;"/><path d="M129.766,473.895l-37.6,2.499l-0.332,-4.988l37.6,-2.5l0.332,4.989Z" style="fill:#eae778;"/><rect x="92.8" y="485.9" width="36.4" height="5" style="fill:#eae778;"/><path d="M132.541,503.377l-1.687,0.232l-4.452,0.61l-2.98,0.407l-3.33,0.454l-3.567,0.485l-3.69,0.5l-3.7,0.499l-1.819,0.243l-1.778,0.238l-1.724,0.229l-1.655,0.22l-1.573,0.206l-1.476,0.193l-1.366,0.177l-1.242,0.158l-1.102,0.139l-0.497,0.061l-0.456,0.055l-0.416,0.05l-0.374,0.043l-0.332,0.037l-0.289,0.031l-0.245,0.024l-0.115,0.01l-0.107,0.009l-0.105,0.007l-0.117,0.006l-0.166,0.002l-0.111,-0.005l0.26,-4.994l-0.06,-0.003l-0.086,0.002l-0.011,0l0.028,-0.002l0.053,-0.004l0.071,-0.006l0.201,-0.02l0.256,-0.027l0.308,-0.035l0.357,-0.041l0.403,-0.048l0.446,-0.054l0.487,-0.06l1.092,-0.137l1.232,-0.157l1.358,-0.176l1.471,-0.192l1.569,-0.206l1.652,-0.219l1.72,-0.229l1.776,-0.237l1.816,-0.244l3.696,-0.498l3.688,-0.499l3.564,-0.485l3.329,-0.454l2.977,-0.407l4.451,-0.61l1.685,-0.232l0.682,4.954Z" style="fill:#eae778;"/><path d="M135.767,515.056l-1.58,0.301l-1.819,0.345l-2.364,0.448l-2.804,0.53l-3.14,0.592l-3.369,0.632l-1.739,0.326l-1.756,0.328l-1.762,0.328l-1.754,0.325l-1.733,0.32l-1.698,0.313l-1.652,0.303l-1.591,0.289l-1.518,0.275l-1.432,0.256l-1.332,0.237l-0.626,0.11l-0.596,0.103l-0.565,0.098l-0.532,0.091l-0.499,0.083l-0.463,0.077l-0.427,0.07l-0.39,0.061l-0.351,0.054l-0.314,0.046l-0.274,0.037l-0.131,0.017l-0.121,0.014l-0.119,0.012l-0.12,0.011l-0.134,0.009l-0.094,0.002l-0.136,-4.998l-0.001,0l-0.016,0.001l0.022,-0.002l0.048,-0.005l0.07,-0.008l0.083,-0.011l0.224,-0.03l0.273,-0.04l0.322,-0.049l0.367,-0.058l0.409,-0.067l0.449,-0.074l0.487,-0.082l0.523,-0.089l0.556,-0.096l0.589,-0.103l0.618,-0.108l1.323,-0.235l1.424,-0.255l1.511,-0.273l1.586,-0.289l1.647,-0.302l1.694,-0.312l1.729,-0.319l1.751,-0.325l1.759,-0.328l1.755,-0.327l1.736,-0.325l3.366,-0.632l3.137,-0.591l2.801,-0.53l2.362,-0.447l1.817,-0.345l1.58,-0.301l0.934,4.912Z" style="fill:#eae778;"/><path d="M107.301,530.924l1.7,0.004l1.733,0.006l1.754,0.007l1.763,0.009l1.757,0.01l1.739,0.011l1.707,0.011l1.663,0.013l3.14,0.025l2.805,0.024l2.364,0.022l1.819,0.018l1.581,0.016l-0.052,5l-1.58,-0.017l-1.816,-0.017l-2.361,-0.022l-2.802,-0.025l-3.136,-0.025l-1.66,-0.012l-1.705,-0.011l-1.736,-0.011l-1.754,-0.01l-1.758,-0.009l-1.751,-0.007l-1.728,-0.006l-1.694,-0.004l-1.646,-0.002l-1.585,0.001l-1.51,0.003l-0.723,0.002l-0.699,0.003l-0.674,0.004l-0.647,0.005l-0.618,0.005l-0.587,0.006l-0.555,0.007l-0.521,0.008l-0.485,0.009l-0.446,0.009l-0.406,0.011l-0.363,0.011l-0.32,0.012l-0.138,0.006l-0.127,0.007l-0.113,0.006l-0.098,0.006l-0.08,0.006l-0.062,0.005l-0.038,0.004l-0.008,0.001l0.034,-0.005l0.009,-0.002l-0.974,-4.904l0.102,-0.02l0.151,-0.023l0.134,-0.017l0.13,-0.013l0.129,-0.011l0.133,-0.009l0.14,-0.009l0.148,-0.008l0.155,-0.008l0.167,-0.008l0.354,-0.013l0.393,-0.012l0.43,-0.011l0.466,-0.01l0.501,-0.009l0.534,-0.008l0.566,-0.007l0.597,-0.007l0.627,-0.005l0.654,-0.005l0.68,-0.004l0.705,-0.003l0.729,-0.002l1.519,-0.003l1.592,-0.001l1.652,0.002Z" style="fill:#eae778;"/><path d="M127.759,549.095l-32.9,2.1l-0.318,-4.99l32.9,-2.1l0.318,4.99Z" style="fill:#eae778;"/><path d="M133.433,560.978l-37.2,5l-0.666,-4.956l37.2,-5l0.666,4.956Z" style="fill:#eae778;"/><path d="M128.853,577.895l-34.3,2.1l-0.306,-4.99l34.3,-2.1l0.306,4.99Z" style="fill:#eae778;"/></g><g><path d="M132.318,593.09l-38.8,3.4l-0.436,-4.98l38.8,-3.4l0.436,4.98Z" style="fill:#eae778;"/><path d="M133.794,607.992l-1.601,0.125l-4.231,0.329l-6.003,0.464l-3.398,0.262l-3.52,0.271l-3.534,0.27l-3.44,0.262l-3.241,0.245l-2.934,0.22l-1.319,0.098l-1.202,0.088l-1.072,0.077l-0.93,0.066l-0.775,0.054l-0.607,0.039l-0.243,0.015l-0.2,0.011l-0.171,0.008l-0.14,0.004l-0.033,0l0,-5l-0.032,0l0.024,-0.001l0.096,-0.004l0.165,-0.009l0.218,-0.014l0.588,-0.038l0.761,-0.053l0.921,-0.065l1.067,-0.077l1.198,-0.088l1.315,-0.097l2.929,-0.22l3.238,-0.244l3.439,-0.262l3.532,-0.271l3.518,-0.27l3.397,-0.262l6.002,-0.464l4.229,-0.329l1.601,-0.124l0.388,4.984Z" style="fill:#eae778;"/><path d="M135.866,623.594l-37.6,2.5l-0.332,-4.988l37.6,-2.5l0.332,4.988Z" style="fill:#eae778;"/><rect x="98.9" y="635.6" width="36.4" height="5" style="fill:#eae778;"/><path d="M138.641,653.077l-1.687,0.232l-4.452,0.61l-2.98,0.407l-3.33,0.454l-3.567,0.485l-3.69,0.5l-3.7,0.499l-1.819,0.243l-1.778,0.238l-1.724,0.229l-1.655,0.22l-1.573,0.206l-1.476,0.193l-1.366,0.177l-1.242,0.158l-1.102,0.139l-0.497,0.061l-0.456,0.055l-0.416,0.05l-0.374,0.043l-0.332,0.037l-0.289,0.031l-0.245,0.024l-0.115,0.01l-0.106,0.009l-0.107,0.007l-0.118,0.006l-0.163,0.002l-0.109,-0.005l0.254,-4.994l-0.057,-0.003l-0.085,0.002l-0.011,0l0.026,-0.002l0.054,-0.004l0.07,-0.006l0.202,-0.02l0.256,-0.027l0.308,-0.035l0.358,-0.041l0.402,-0.048l0.446,-0.054l0.487,-0.06l1.092,-0.137l1.232,-0.157l1.358,-0.176l1.471,-0.192l1.569,-0.206l1.652,-0.219l1.72,-0.229l1.776,-0.237l1.816,-0.244l3.696,-0.498l3.688,-0.499l3.564,-0.485l3.329,-0.454l2.977,-0.407l4.451,-0.61l1.685,-0.232l0.682,4.954Z" style="fill:#eae778;"/><path d="M141.867,664.756l-1.58,0.301l-1.819,0.345l-2.364,0.448l-2.804,0.53l-3.14,0.592l-3.369,0.632l-1.739,0.326l-1.756,0.328l-1.762,0.328l-1.754,0.325l-1.733,0.32l-1.698,0.313l-1.652,0.303l-1.591,0.289l-1.518,0.275l-1.432,0.256l-1.332,0.237l-0.626,0.11l-0.596,0.103l-0.565,0.098l-0.532,0.091l-0.499,0.083l-0.463,0.077l-0.427,0.07l-0.39,0.061l-0.351,0.054l-0.314,0.046l-0.274,0.037l-0.131,0.017l-0.121,0.014l-0.119,0.012l-0.12,0.011l-0.134,0.009l-0.094,0.002l-0.136,-4.998l-0.001,0l-0.016,0.001l0.022,-0.002l0.048,-0.005l0.07,-0.008l0.083,-0.011l0.224,-0.03l0.273,-0.04l0.322,-0.049l0.367,-0.058l0.409,-0.067l0.449,-0.074l0.487,-0.082l0.523,-0.089l0.556,-0.096l0.589,-0.103l0.618,-0.108l1.323,-0.235l1.424,-0.255l1.511,-0.273l1.586,-0.289l1.647,-0.302l1.694,-0.312l1.729,-0.319l1.751,-0.325l1.759,-0.328l1.755,-0.327l1.736,-0.325l3.366,-0.632l3.137,-0.591l2.801,-0.53l2.362,-0.447l1.817,-0.345l1.58,-0.301l0.934,4.912Z" style="fill:#eae778;"/><path d="M113.401,680.624l1.7,0.004l1.733,0.006l1.754,0.007l1.763,0.009l1.757,0.01l1.739,0.011l1.707,0.011l1.663,0.013l3.14,0.025l2.805,0.024l2.364,0.022l1.819,0.018l1.581,0.016l-0.052,5l-1.58,-0.017l-1.816,-0.017l-2.361,-0.022l-2.802,-0.025l-3.136,-0.025l-1.66,-0.012l-1.705,-0.011l-1.736,-0.011l-1.754,-0.01l-1.758,-0.009l-1.751,-0.007l-1.728,-0.006l-1.694,-0.004l-1.646,-0.002l-1.585,0.001l-1.51,0.003l-0.723,0.002l-0.699,0.003l-0.674,0.004l-0.647,0.005l-0.618,0.005l-0.587,0.006l-0.555,0.007l-0.521,0.008l-0.485,0.009l-0.446,0.009l-0.406,0.011l-0.363,0.011l-0.32,0.012l-0.138,0.006l-0.127,0.007l-0.113,0.006l-0.098,0.006l-0.08,0.006l-0.062,0.005l-0.038,0.004l-0.008,0.001l0.034,-0.005l0.009,-0.002l-0.974,-4.904l0.102,-0.02l0.151,-0.023l0.134,-0.017l0.13,-0.013l0.129,-0.011l0.133,-0.009l0.14,-0.009l0.148,-0.008l0.155,-0.008l0.167,-0.008l0.354,-0.013l0.393,-0.012l0.43,-0.011l0.466,-0.01l0.501,-0.009l0.534,-0.008l0.566,-0.007l0.597,-0.007l0.627,-0.005l0.654,-0.005l0.68,-0.004l0.705,-0.003l0.729,-0.002l1.519,-0.003l1.592,-0.001l1.652,0.002Z" style="fill:#eae778;"/><path d="M133.859,698.795l-32.9,2.1l-0.318,-4.99l32.9,-2.1l0.318,4.99Z" style="fill:#eae778;"/><path d="M139.533,710.678l-37.2,5l-0.666,-4.956l37.2,-5l0.666,4.956Z" style="fill:#eae778;"/><path d="M134.953,727.595l-34.3,2.1l-0.306,-4.99l34.3,-2.1l0.306,4.99Z" style="fill:#eae778;"/></g></g><g><g><path d="M1078.22,91.39l-38.8,3.4l-0.436,-4.98l38.8,-3.4l0.436,4.98Z" style="fill:#eae778;"/><path d="M1079.69,106.093l-1.601,0.12l-4.231,0.318l-6.003,0.448l-3.398,0.253l-3.519,0.261l-3.534,0.261l-3.441,0.253l-3.241,0.237l-2.933,0.212l-1.319,0.094l-1.202,0.085l-1.072,0.075l-0.93,0.064l-0.775,0.052l-0.607,0.038l-0.242,0.014l-0.2,0.011l-0.17,0.008l-0.138,0.003l-0.031,0l0,-5l-0.031,0l0.026,-0.001l0.097,-0.004l0.166,-0.009l0.219,-0.013l0.588,-0.037l0.761,-0.051l0.922,-0.063l1.066,-0.074l1.198,-0.085l1.315,-0.094l2.93,-0.212l3.238,-0.236l3.438,-0.253l3.532,-0.261l3.519,-0.261l3.396,-0.253l6.002,-0.449l4.23,-0.317l1.601,-0.12l0.374,4.986Z" style="fill:#eae778;"/><path d="M1081.76,121.395l-37.6,2.4l-0.318,-4.99l37.6,-2.4l0.318,4.99Z" style="fill:#eae778;"/><rect x="1044.8" y="133" width="36.4" height="5" style="fill:#eae778;"/><path d="M1084.63,150.278l-1.686,0.227l-4.453,0.599l-2.979,0.4l-3.33,0.446l-3.567,0.475l-3.691,0.491l-3.699,0.489l-1.819,0.239l-1.778,0.233l-1.724,0.226l-1.655,0.215l-1.573,0.203l-1.476,0.189l-1.366,0.173l-1.242,0.155l-1.102,0.136l-0.497,0.06l-0.456,0.054l-0.416,0.049l-0.374,0.042l-0.331,0.036l-0.29,0.031l-0.244,0.023l-0.115,0.01l-0.106,0.008l-0.106,0.007l-0.116,0.006l-0.164,0.002l-0.111,-0.005l0.264,-4.994l-0.059,-0.003l-0.085,0.002l-0.01,0l0.027,-0.002l0.054,-0.004l0.071,-0.006l0.202,-0.019l0.256,-0.027l0.308,-0.034l0.357,-0.041l0.403,-0.047l0.446,-0.053l0.487,-0.058l1.092,-0.135l1.232,-0.154l1.358,-0.172l1.471,-0.189l1.569,-0.202l1.652,-0.215l1.72,-0.224l1.776,-0.233l1.816,-0.239l3.697,-0.489l3.687,-0.49l3.565,-0.475l3.328,-0.446l2.978,-0.399l4.45,-0.599l1.686,-0.228l0.668,4.956Z" style="fill:#eae778;"/><path d="M1087.76,161.657l-1.581,0.297l-1.819,0.34l-2.363,0.442l-2.805,0.522l-3.139,0.583l-3.369,0.624l-1.739,0.321l-1.757,0.323l-1.762,0.323l-1.753,0.321l-1.733,0.316l-1.699,0.308l-1.651,0.298l-1.591,0.286l-1.518,0.27l-1.432,0.253l-1.332,0.233l-0.626,0.108l-0.596,0.103l-0.565,0.096l-0.532,0.089l-0.499,0.083l-0.463,0.075l-0.427,0.069l-0.389,0.061l-0.351,0.053l-0.314,0.045l-0.274,0.036l-0.13,0.017l-0.121,0.014l-0.118,0.012l-0.12,0.01l-0.134,0.009l-0.092,0.002l-0.134,-4.998l-0.016,0.001l0.023,-0.002l0.049,-0.005l0.07,-0.008l0.083,-0.011l0.225,-0.03l0.274,-0.039l0.322,-0.049l0.367,-0.057l0.409,-0.065l0.449,-0.074l0.487,-0.081l0.523,-0.087l0.556,-0.095l0.589,-0.101l0.618,-0.107l1.324,-0.231l1.423,-0.252l1.511,-0.269l1.586,-0.285l1.647,-0.297l1.694,-0.308l1.73,-0.315l1.751,-0.32l1.759,-0.323l1.754,-0.323l1.736,-0.32l3.367,-0.623l3.136,-0.582l2.802,-0.522l2.361,-0.442l1.817,-0.34l1.58,-0.296l0.922,4.914Z" style="fill:#eae778;"/><path d="M1059.3,177.224l1.7,0.004l1.733,0.006l1.755,0.007l1.762,0.009l1.757,0.01l1.739,0.011l1.707,0.011l1.663,0.013l3.14,0.025l2.805,0.024l2.364,0.022l1.819,0.018l1.581,0.016l-0.052,5l-1.58,-0.017l-1.816,-0.017l-2.361,-0.022l-2.802,-0.025l-3.136,-0.025l-1.66,-0.012l-1.705,-0.011l-1.736,-0.011l-1.754,-0.01l-1.758,-0.009l-1.751,-0.007l-1.728,-0.006l-1.694,-0.004l-1.646,-0.002l-1.585,0.001l-1.511,0.003l-0.722,0.002l-0.699,0.003l-0.674,0.004l-0.647,0.005l-0.618,0.005l-0.587,0.006l-0.555,0.007l-0.521,0.008l-0.485,0.009l-0.446,0.009l-0.406,0.011l-0.363,0.011l-0.32,0.012l-0.138,0.006l-0.127,0.007l-0.113,0.006l-0.097,0.006l-0.081,0.006l-0.062,0.005l-0.038,0.004l-0.008,0.001l0.035,-0.005l0.011,-0.002l-0.98,-4.904l0.103,-0.02l0.153,-0.023l0.135,-0.017l0.128,-0.013l0.13,-0.011l0.133,-0.009l0.14,-0.009l0.148,-0.008l0.156,-0.008l0.167,-0.008l0.353,-0.013l0.393,-0.012l0.43,-0.011l0.466,-0.01l0.501,-0.009l0.534,-0.008l0.566,-0.007l0.597,-0.007l0.627,-0.005l0.654,-0.005l0.68,-0.004l0.706,-0.003l0.728,-0.002l1.519,-0.003l1.592,-0.001l1.652,0.002Z" style="fill:#eae778;"/><path d="M1079.75,195.095l-32.9,2l-0.304,-4.99l32.9,-2l0.304,4.99Z" style="fill:#eae778;"/><path d="M1085.43,206.779l-37.2,4.9l-0.653,-4.958l37.2,-4.9l0.653,4.958Z" style="fill:#eae778;"/><path d="M1080.85,223.396l-34.3,2l-0.291,-4.992l34.3,-2l0.291,4.992Z" style="fill:#eae778;"/></g><g><path d="M1086.02,238.09l-38.9,3.401l-0.436,-4.982l38.9,-3.4l0.436,4.981Z" style="fill:#eae778;"/><path d="M1087.49,252.693l-1.601,0.12l-4.231,0.318l-6.003,0.448l-3.398,0.253l-3.519,0.261l-3.534,0.261l-3.441,0.253l-3.241,0.237l-2.933,0.212l-1.319,0.094l-1.202,0.085l-1.072,0.075l-0.93,0.064l-0.775,0.052l-0.607,0.038l-0.242,0.014l-0.2,0.011l-0.17,0.008l-0.138,0.003l-0.031,0l0,-5l-0.03,0l0.025,-0.001l0.097,-0.004l0.166,-0.009l0.219,-0.013l0.588,-0.037l0.761,-0.051l0.922,-0.063l1.066,-0.074l1.198,-0.085l1.315,-0.094l2.93,-0.212l3.238,-0.236l3.438,-0.253l3.532,-0.261l3.519,-0.261l3.396,-0.253l6.002,-0.449l4.23,-0.317l1.601,-0.12l0.374,4.986Z" style="fill:#eae778;"/><path d="M1089.57,267.994l-37.6,2.5l-0.332,-4.988l37.6,-2.5l0.332,4.988Z" style="fill:#eae778;"/><rect x="1052.6" y="279.7" width="36.4" height="5" style="fill:#eae778;"/><path d="M1092.33,296.978l-1.686,0.227l-4.453,0.599l-2.979,0.4l-3.33,0.446l-3.567,0.475l-3.69,0.491l-3.7,0.489l-1.819,0.239l-1.778,0.233l-1.724,0.226l-1.655,0.215l-1.573,0.203l-1.476,0.189l-1.366,0.173l-1.242,0.155l-1.102,0.136l-0.497,0.06l-0.456,0.054l-0.416,0.049l-0.374,0.042l-0.331,0.036l-0.29,0.031l-0.245,0.023l-0.114,0.01l-0.106,0.008l-0.105,0.007l-0.117,0.006l-0.165,0.002l-0.111,-0.006l0.266,-4.992l-0.059,-0.004l-0.086,0.002l-0.011,0l0.028,-0.002l0.054,-0.004l0.071,-0.006l0.202,-0.019l0.256,-0.027l0.308,-0.034l0.357,-0.041l0.403,-0.047l0.446,-0.053l0.487,-0.058l1.092,-0.135l1.232,-0.154l1.358,-0.172l1.471,-0.189l1.569,-0.202l1.652,-0.215l1.72,-0.224l1.776,-0.233l1.816,-0.239l3.696,-0.489l3.688,-0.49l3.565,-0.475l3.328,-0.446l2.978,-0.399l4.45,-0.599l1.686,-0.228l0.668,4.956Z" style="fill:#eae778;"/><path d="M1095.56,308.357l-1.581,0.297l-1.819,0.34l-2.363,0.442l-2.805,0.522l-3.139,0.583l-3.369,0.624l-1.739,0.321l-1.757,0.323l-1.762,0.323l-1.753,0.321l-1.733,0.316l-1.699,0.308l-1.651,0.298l-1.591,0.286l-1.518,0.27l-1.432,0.253l-1.332,0.233l-0.626,0.108l-0.596,0.103l-0.565,0.096l-0.532,0.089l-0.499,0.083l-0.463,0.075l-0.427,0.069l-0.389,0.061l-0.351,0.053l-0.314,0.045l-0.274,0.036l-0.13,0.017l-0.121,0.014l-0.118,0.012l-0.12,0.01l-0.133,0.009l-0.092,0.002l-0.136,-4.998l-0.014,0.001l0.022,-0.002l0.049,-0.005l0.07,-0.008l0.083,-0.011l0.225,-0.03l0.273,-0.039l0.323,-0.049l0.367,-0.057l0.409,-0.065l0.449,-0.074l0.487,-0.081l0.523,-0.087l0.556,-0.095l0.589,-0.101l0.618,-0.107l1.323,-0.231l1.424,-0.252l1.511,-0.269l1.586,-0.285l1.647,-0.297l1.694,-0.308l1.73,-0.315l1.751,-0.32l1.759,-0.323l1.754,-0.323l1.736,-0.32l3.367,-0.623l3.136,-0.583l2.802,-0.521l2.361,-0.442l1.817,-0.34l1.58,-0.296l0.922,4.914Z" style="fill:#eae778;"/><path d="M1067.1,323.924l1.7,0.004l1.733,0.006l1.755,0.007l1.762,0.009l1.757,0.01l1.739,0.011l1.707,0.011l1.663,0.013l3.14,0.025l2.805,0.024l2.364,0.022l1.819,0.018l1.581,0.016l-0.052,5l-1.58,-0.017l-1.816,-0.017l-2.361,-0.022l-2.802,-0.025l-3.136,-0.025l-1.66,-0.012l-1.705,-0.011l-1.736,-0.011l-1.754,-0.01l-1.758,-0.009l-1.751,-0.007l-1.728,-0.006l-1.694,-0.004l-1.646,-0.002l-1.585,0.001l-1.51,0.003l-0.723,0.002l-0.699,0.003l-0.674,0.004l-0.647,0.005l-0.618,0.005l-0.587,0.006l-0.555,0.007l-0.521,0.008l-0.485,0.009l-0.446,0.009l-0.406,0.011l-0.363,0.011l-0.32,0.012l-0.138,0.006l-0.127,0.007l-0.113,0.006l-0.097,0.006l-0.081,0.006l-0.062,0.005l-0.038,0.004l-0.009,0.001l0.036,-0.005l0.011,-0.003l-0.98,-4.902l0.103,-0.021l0.154,-0.023l0.134,-0.017l0.128,-0.013l0.129,-0.011l0.134,-0.009l0.14,-0.009l0.148,-0.008l0.156,-0.008l0.167,-0.008l0.353,-0.013l0.393,-0.012l0.43,-0.011l0.466,-0.01l0.501,-0.009l0.534,-0.008l0.566,-0.007l0.597,-0.007l0.627,-0.005l0.654,-0.005l0.68,-0.004l0.706,-0.003l0.728,-0.002l1.519,-0.003l1.592,-0.001l1.652,0.002Z" style="fill:#eae778;"/><path d="M1087.55,341.795l-32.9,2l-0.304,-4.99l32.9,-2l0.304,4.99Z" style="fill:#eae778;"/><path d="M1093.23,353.479l-37.2,4.9l-0.653,-4.958l37.2,-4.9l0.653,4.958Z" style="fill:#eae778;"/><path d="M1088.65,370.096l-34.3,2l-0.292,-4.992l34.3,-2l0.292,4.992Z" style="fill:#eae778;"/></g><g><path d="M1095.31,385.391l-38.8,3.3l-0.424,-4.982l38.8,-3.3l0.424,4.982Z" style="fill:#eae778;"/><path d="M1096.79,399.993l-1.601,0.12l-4.231,0.318l-6.003,0.448l-3.398,0.253l-3.519,0.261l-3.534,0.261l-3.441,0.253l-3.241,0.237l-2.933,0.212l-1.319,0.094l-1.202,0.085l-1.072,0.075l-0.93,0.064l-0.775,0.052l-0.607,0.038l-0.242,0.014l-0.2,0.011l-0.17,0.008l-0.138,0.003l-0.031,0l0,-5l-0.03,0l0.025,-0.001l0.097,-0.004l0.166,-0.009l0.219,-0.013l0.588,-0.037l0.761,-0.051l0.922,-0.063l1.066,-0.074l1.198,-0.085l1.315,-0.094l2.93,-0.212l3.238,-0.236l3.438,-0.253l3.532,-0.261l3.519,-0.261l3.396,-0.253l6.002,-0.449l4.23,-0.317l1.601,-0.12l0.374,4.986Z" style="fill:#eae778;"/><path d="M1098.86,415.295l-37.6,2.4l-0.318,-4.99l37.6,-2.4l0.318,4.99Z" style="fill:#eae778;"/><rect x="1062" y="427" width="36.3" height="5" style="fill:#eae778;"/><path d="M1101.73,444.178l-1.686,0.227l-4.453,0.599l-2.979,0.4l-3.33,0.446l-3.567,0.475l-3.69,0.491l-3.7,0.489l-1.819,0.239l-1.778,0.233l-1.724,0.226l-1.655,0.215l-1.573,0.203l-1.476,0.189l-1.366,0.173l-1.242,0.155l-1.102,0.136l-0.497,0.06l-0.456,0.054l-0.416,0.049l-0.374,0.042l-0.331,0.036l-0.29,0.031l-0.245,0.023l-0.114,0.01l-0.106,0.008l-0.105,0.007l-0.117,0.006l-0.165,0.002l-0.111,-0.006l0.266,-4.992l-0.059,-0.004l-0.086,0.002l-0.011,0l0.028,-0.002l0.054,-0.004l0.071,-0.006l0.202,-0.019l0.256,-0.027l0.308,-0.034l0.357,-0.041l0.403,-0.047l0.446,-0.053l0.487,-0.058l1.092,-0.135l1.232,-0.154l1.358,-0.172l1.471,-0.189l1.569,-0.202l1.652,-0.215l1.72,-0.224l1.776,-0.233l1.816,-0.239l3.696,-0.489l3.688,-0.49l3.565,-0.475l3.328,-0.446l2.978,-0.399l4.45,-0.599l1.686,-0.228l0.668,4.956Z" style="fill:#eae778;"/><path d="M1104.86,455.657l-1.581,0.297l-1.819,0.34l-2.363,0.442l-2.805,0.522l-3.139,0.583l-3.369,0.624l-1.739,0.321l-1.757,0.323l-1.762,0.323l-1.753,0.321l-1.733,0.316l-1.699,0.308l-1.651,0.298l-1.591,0.286l-1.518,0.27l-1.432,0.253l-1.332,0.233l-0.626,0.108l-0.596,0.103l-0.565,0.096l-0.532,0.089l-0.499,0.083l-0.463,0.075l-0.427,0.069l-0.389,0.061l-0.351,0.053l-0.314,0.045l-0.274,0.036l-0.13,0.017l-0.121,0.014l-0.118,0.012l-0.12,0.01l-0.133,0.009l-0.092,0.002l-0.136,-4.998l-0.014,0.001l0.022,-0.002l0.049,-0.005l0.07,-0.008l0.083,-0.011l0.225,-0.03l0.273,-0.039l0.323,-0.049l0.367,-0.057l0.409,-0.065l0.449,-0.074l0.487,-0.081l0.523,-0.087l0.556,-0.095l0.589,-0.101l0.618,-0.107l1.323,-0.231l1.424,-0.252l1.511,-0.269l1.586,-0.285l1.647,-0.297l1.694,-0.308l1.73,-0.315l1.751,-0.32l1.759,-0.323l1.754,-0.323l1.736,-0.32l3.367,-0.623l3.136,-0.583l2.802,-0.521l2.361,-0.442l1.817,-0.34l1.58,-0.296l0.922,4.914Z" style="fill:#eae778;"/><path d="M1076.5,471.124l1.7,0.004l1.733,0.006l1.754,0.007l1.763,0.009l1.757,0.01l1.739,0.011l1.707,0.011l1.663,0.013l3.14,0.025l2.805,0.024l2.364,0.022l1.819,0.018l1.581,0.016l-0.052,5l-1.58,-0.017l-1.816,-0.017l-2.361,-0.022l-2.802,-0.025l-3.136,-0.025l-1.66,-0.012l-1.705,-0.011l-1.736,-0.011l-1.754,-0.01l-1.758,-0.009l-1.751,-0.007l-1.728,-0.006l-1.694,-0.004l-1.646,-0.002l-1.585,0.001l-1.51,0.003l-0.723,0.002l-0.699,0.003l-0.674,0.004l-0.647,0.005l-0.618,0.005l-0.587,0.006l-0.555,0.007l-0.521,0.008l-0.485,0.009l-0.446,0.009l-0.406,0.011l-0.363,0.011l-0.321,0.012l-0.137,0.006l-0.127,0.007l-0.113,0.006l-0.097,0.006l-0.081,0.006l-0.062,0.005l-0.038,0.004l-0.008,0.001l0.034,-0.005l0.011,-0.002l-0.978,-4.904l0.103,-0.02l0.152,-0.023l0.134,-0.017l0.13,-0.013l0.129,-0.011l0.133,-0.009l0.14,-0.009l0.148,-0.008l0.156,-0.008l0.167,-0.008l0.353,-0.013l0.393,-0.012l0.43,-0.011l0.466,-0.01l0.501,-0.009l0.534,-0.008l0.566,-0.007l0.597,-0.007l0.627,-0.005l0.654,-0.005l0.68,-0.004l0.706,-0.003l0.728,-0.002l1.519,-0.003l1.592,-0.001l1.652,0.002Z" style="fill:#eae778;"/><path d="M1096.86,488.995l-32.9,2.1l-0.318,-4.99l32.9,-2.1l0.318,4.99Z" style="fill:#eae778;"/><path d="M1102.53,500.678l-37.1,4.9l-0.654,-4.956l37.1,-4.9l0.654,4.956Z" style="fill:#eae778;"/><path d="M1097.95,517.296l-34.2,2l-0.292,-4.992l34.2,-2l0.292,4.992Z" style="fill:#eae778;"/></g><g><path d="M1101.42,532.19l-38.8,3.4l-0.436,-4.98l38.8,-3.4l0.436,4.98Z" style="fill:#eae778;"/><path d="M1102.89,546.793l-1.601,0.12l-4.231,0.318l-6.003,0.448l-3.398,0.253l-3.519,0.261l-3.534,0.261l-3.441,0.253l-3.241,0.237l-2.934,0.212l-1.318,0.094l-1.202,0.085l-1.072,0.075l-0.93,0.064l-0.775,0.052l-0.607,0.038l-0.242,0.014l-0.199,0.011l-0.171,0.008l-0.138,0.003l-0.031,0l0,-5l-0.03,0l0.025,-0.001l0.097,-0.004l0.166,-0.009l0.219,-0.013l0.588,-0.037l0.761,-0.051l0.921,-0.063l1.067,-0.074l1.198,-0.085l1.315,-0.094l2.93,-0.212l3.238,-0.236l3.438,-0.253l3.532,-0.261l3.518,-0.261l3.397,-0.253l6.002,-0.449l4.23,-0.317l1.601,-0.12l0.374,4.986Z" style="fill:#eae778;"/><path d="M1104.97,562.094l-37.6,2.501l-0.332,-4.989l37.6,-2.501l0.332,4.989Z" style="fill:#eae778;"/><rect x="1068.1" y="573.8" width="36.3" height="5" style="fill:#eae778;"/><path d="M1107.83,591.078l-1.686,0.227l-4.453,0.599l-2.979,0.4l-3.33,0.446l-3.567,0.475l-3.69,0.491l-3.7,0.489l-1.819,0.239l-1.778,0.233l-1.724,0.226l-1.655,0.215l-1.573,0.203l-1.476,0.189l-1.366,0.173l-1.242,0.155l-1.102,0.136l-0.497,0.06l-0.456,0.054l-0.416,0.049l-0.374,0.042l-0.332,0.037l-0.289,0.03l-0.244,0.023l-0.115,0.01l-0.106,0.008l-0.106,0.007l-0.115,0.006l-0.165,0.002l-0.112,-0.006l0.266,-4.992l-0.06,-0.004l-0.086,0.002l-0.009,0l0.028,-0.002l0.053,-0.004l0.071,-0.006l0.202,-0.02l0.256,-0.026l0.308,-0.034l0.357,-0.041l0.403,-0.047l0.446,-0.053l0.487,-0.058l1.092,-0.135l1.232,-0.154l1.358,-0.172l1.471,-0.189l1.569,-0.202l1.652,-0.215l1.72,-0.224l1.776,-0.233l1.816,-0.239l3.696,-0.489l3.688,-0.49l3.565,-0.475l3.328,-0.446l2.978,-0.399l4.45,-0.599l1.686,-0.228l0.668,4.956Z" style="fill:#eae778;"/><path d="M1110.96,602.457l-1.581,0.297l-1.819,0.34l-2.363,0.442l-2.805,0.522l-3.139,0.583l-3.369,0.624l-1.739,0.321l-1.757,0.323l-1.761,0.323l-1.754,0.321l-1.733,0.316l-1.699,0.308l-1.651,0.298l-1.591,0.286l-1.518,0.27l-1.432,0.253l-1.332,0.233l-0.626,0.108l-0.596,0.103l-0.565,0.096l-0.532,0.089l-0.499,0.083l-0.463,0.075l-0.427,0.069l-0.389,0.061l-0.351,0.053l-0.314,0.045l-0.274,0.036l-0.131,0.017l-0.12,0.014l-0.118,0.012l-0.12,0.01l-0.134,0.009l-0.091,0.002l-0.136,-4.998l-0.015,0.001l0.022,-0.002l0.05,-0.005l0.07,-0.008l0.083,-0.011l0.225,-0.03l0.274,-0.039l0.322,-0.049l0.367,-0.057l0.409,-0.065l0.449,-0.074l0.487,-0.081l0.522,-0.087l0.557,-0.095l0.589,-0.101l0.618,-0.107l1.323,-0.231l1.424,-0.252l1.511,-0.269l1.586,-0.285l1.647,-0.297l1.694,-0.308l1.73,-0.315l1.751,-0.32l1.759,-0.323l1.754,-0.323l1.736,-0.32l3.366,-0.623l3.137,-0.583l2.802,-0.521l2.361,-0.442l1.817,-0.34l1.58,-0.296l0.922,4.914Z" style="fill:#eae778;"/><path d="M1082.6,618.024l1.7,0.004l1.733,0.006l1.755,0.007l1.762,0.009l1.757,0.01l1.739,0.011l1.707,0.011l1.663,0.013l3.14,0.025l2.805,0.024l2.364,0.022l1.819,0.018l1.581,0.016l-0.052,5l-1.579,-0.017l-1.817,-0.017l-2.361,-0.022l-2.802,-0.025l-3.136,-0.025l-1.66,-0.012l-1.705,-0.011l-1.736,-0.011l-1.754,-0.01l-1.758,-0.009l-1.751,-0.007l-1.728,-0.006l-1.694,-0.004l-1.646,-0.002l-1.585,0.001l-1.51,0.003l-0.723,0.002l-0.699,0.003l-0.674,0.004l-0.647,0.005l-0.618,0.005l-0.587,0.006l-0.555,0.007l-0.521,0.008l-0.484,0.009l-0.447,0.009l-0.406,0.011l-0.363,0.011l-0.32,0.012l-0.138,0.006l-0.127,0.007l-0.113,0.006l-0.098,0.006l-0.081,0.006l-0.061,0.005l-0.038,0.004l-0.009,0.001l0.037,-0.005l0.01,-0.003l-0.98,-4.902l0.103,-0.021l0.154,-0.023l0.134,-0.017l0.128,-0.013l0.13,-0.011l0.133,-0.009l0.14,-0.009l0.148,-0.008l0.156,-0.008l0.166,-0.008l0.354,-0.013l0.393,-0.012l0.43,-0.011l0.466,-0.01l0.501,-0.009l0.534,-0.008l0.566,-0.007l0.597,-0.007l0.627,-0.005l0.654,-0.005l0.68,-0.004l0.706,-0.003l0.728,-0.002l1.519,-0.003l1.592,-0.001l1.652,0.002Z" style="fill:#eae778;"/><path d="M1102.95,635.895l-32.9,2l-0.304,-4.99l32.9,-2l0.304,4.99Z" style="fill:#eae778;"/><path d="M1108.62,647.579l-37.1,4.8l-0.642,-4.958l37.1,-4.8l0.642,4.958Z" style="fill:#eae778;"/><path d="M1104.05,664.196l-34.2,2l-0.292,-4.992l34.2,-2l0.292,4.992Z" style="fill:#eae778;"/></g></g></g><g><g><path d="M342.2,365.2c4.7,-24 14.9,-55.8 29.9,-78.1c48.3,-71.7 110.2,-94.2 192,-104.1c157.4,-19.8 297.5,123.3 264.4,284.8c-21.3,104.1 -87.2,168.8 -170.2,189.9c-73.1,19.8 -160.5,13.6 -239.8,-45.9c-72.3,-54.2 -86.8,-126.4 -76.3,-246.6" style="fill:#fff;fill-rule:nonzero;"/><path d="M344.6,365.8c5.6,-28.1 15.1,-56.4 31.4,-80.1c14.6,-21.2 32.4,-40.4 53.4,-55.4c40.6,-28.9 90.7,-40.4 139.5,-45.5c48.3,-5.1 97.5,5.4 139.7,29.4c41.1,23.3 75.2,58.6 96.7,100.6c22.7,44.3 30.5,95.3 22.2,144.3c-8.6,50.5 -30.4,99.6 -66.4,136.6c-33.3,34.2 -76.1,54.5 -122.5,63.9c-55.9,11.3 -114.5,5.3 -166.4,-18.6c-44.3,-20.4 -86.1,-52.1 -108.3,-96.5c-20.9,-41.9 -23.6,-90.4 -22,-136.3c0.5,-14.4 1.5,-28.7 2.7,-43.1c0.3,-3.2 -4.7,-3.2 -5,0c-4.4,51.2 -6.8,105.3 9,154.9c6.4,20.1 16.1,39.1 29.1,55.8c14.9,19.2 33.5,34.8 53.7,48.2c50.1,33.3 109.9,49.6 170,45.6c49.2,-3.3 98.7,-18.2 138.3,-48.3c40.5,-30.7 68.4,-74.7 83.5,-123c15.6,-50.1 17.2,-103.4 0.3,-153.4c-15.5,-45.7 -44.9,-86.2 -83,-115.6c-38.8,-29.9 -86.2,-48 -135.2,-50.5c-26.4,-1.4 -52.8,2.3 -78.7,7.3c-24.3,4.7 -48.3,11.7 -70.7,22.6c-47.4,23.1 -86.1,65 -104.5,114.4c-5,13.4 -8.9,27.2 -11.7,41.2c-0.6,3.3 4.3,4.7 4.9,1.5Z" style="fill:#1d1d1b;fill-rule:nonzero;"/></g><path d="M569,239c46.6,-5.7 93.6,6.9 131.4,34.8c37.1,27.3 63.6,68.1 72.4,113.4c9.5,48.8 -2.6,101.9 -29.4,143.4c-25.1,38.8 -63.5,63.9 -108.1,74.7c-54.1,13.1 -111.2,4.9 -158.9,-23.8c-6.8,-4.1 -13.3,-8.5 -19.6,-13.2c-2.6,-1.9 -5.1,2.4 -2.5,4.3c47,35 105.1,50.2 163.2,41.3c47.1,-7.2 90.4,-28.8 120.2,-66.7c30.9,-39.4 47.3,-92.8 42.6,-142.7c-4.4,-47.3 -27.4,-91.6 -62.8,-123.2c-35.5,-31.7 -82.3,-49.8 -129.9,-48.7c-6.2,0.1 -12.5,0.6 -18.7,1.4c-3.1,0.3 -3.1,5.3 0.1,5Z" style="fill:#1d1d1b;fill-rule:nonzero;"/></g><g><g><path d="M757.7,33c-2.5,10.5 -12.2,101.6 -12.8,140.1c17.2,6.8 74.2,19.5 83.5,20.1c6.8,-10.8 40.3,-101.3 49,-138.5c-21.7,6.5 -48.488,1.278 -65.888,-2.122c-17.9,-3.6 -37.412,-7.478 -53.812,-19.578c22.3,-15.2 47,-9.13 61.6,-6.83c16.2,2.5 49.7,13.33 58,28.53l-33.257,2.742l-59.037,-11.161" style="fill:#fff;fill-rule:nonzero;"/><path d="M755.3,32.3c-3,13.3 -3.8,27.4 -5.2,40.9c-2.4,22.4 -4.5,44.9 -6.1,67.5c-0.8,10.8 -1.4,21.6 -1.6,32.4c0,1.2 0.8,2 1.8,2.4c14.5,5.6 30.2,9 45.3,12.5c12.7,3 25.8,6.7 38.8,7.7c0.9,0.1 1.7,-0.5 2.2,-1.2c2.7,-4.5 4.6,-9.6 6.6,-14.5c3.7,-8.8 7.1,-17.7 10.5,-26.7c8.2,-21.9 16,-44.1 23.1,-66.4c3.3,-10.4 6.5,-20.9 9,-31.5c0.4,-1.8 -1.2,-3.6 -3.1,-3.1c-21.6,6.2 -43.4,3.3 -65,-1.3c-18.3,-3.9 -37.3,-9 -52.7,-20.1c0,1.4 0,2.9 0,4.3c19.9,-13.1 43.4,-9.4 65.4,-4.7c9.6,2 19.1,4.9 28,8.8c8.4,3.7 17.9,8.5 22.7,16.7c1.6,2.8 5.9,0.3 4.3,-2.5c-5,-8.6 -14.5,-13.9 -23.3,-17.9c-9.7,-4.4 -20,-7.7 -30.4,-9.9c-23.3,-4.9 -48.2,-8.6 -69.3,5.2c-1.7,1.1 -1.5,3.2 0,4.3c16.2,11.5 36.3,16.8 55.4,20.8c22,4.7 44.3,7.4 66.3,1.1c-1,-1 -2.1,-2.1 -3.1,-3.1c-4.7,20.1 -11.5,39.8 -18.2,59.3c-7.1,20.5 -14.5,40.9 -22.6,61c-2.4,5.9 -4.6,12.2 -7.9,17.6c0.7,-0.4 1.4,-0.8 2.2,-1.2c-12.9,-1 -26.1,-4.8 -38.7,-7.8c-14.8,-3.5 -30,-6.7 -44.1,-12.2c0.6,0.8 1.2,1.6 1.8,2.4c0.7,-40.6 5.2,-81.5 10.2,-121.9c0.7,-5.8 1.2,-11.8 2.6,-17.6c0.6,-3.1 -4.2,-4.4 -4.9,-1.3Z" style="fill:#1d1d1b;fill-rule:nonzero;"/></g><path d="M840.8,84.4c-8.7,25.9 -14.7,52.6 -23.5,78.4c-1,3.1 3.8,4.4 4.8,1.3c8.8,-25.8 14.9,-52.5 23.5,-78.4c1.1,-3.1 -3.8,-4.4 -4.8,-1.3Z" style="fill:#1d1d1b;fill-rule:nonzero;"/><path d="M808.7,76.9c-6.4,26.8 -12.1,53.8 -17.4,80.9c-0.6,3.1 4.2,4.5 4.8,1.3c5.4,-27 11,-54.1 17.4,-80.9c0.8,-3.1 -4.1,-4.4 -4.8,-1.3Z" style="fill:#1d1d1b;fill-rule:nonzero;"/><path d="M774.7,71.7c-1.9,26.3 -6.5,52.4 -7.7,78.7c-0.1,3.2 4.9,3.2 5,0c1.2,-26.3 5.8,-52.4 7.7,-78.7c0.3,-3.2 -4.7,-3.2 -5,0Z" style="fill:#1d1d1b;fill-rule:nonzero;"/></g><path d="M923.7,355.2c-1.2,13 -24,191.2 -29,229.5c3.6,0.6 11.3,1 15,1.7c8.9,-58.3 26.3,-215.4 28.3,-229.8c5,0.3 18.6,1.9 25.3,2.2c3.1,-11.8 13.8,-68.3 15.9,-82.8c-3.5,-0.7 -10.7,-2.2 -15,-2.4c-1,5.9 -8.3,58.4 -9.8,65.7c-3.7,-0.1 -7.7,-0.4 -13.9,-0.9c2.5,-18.3 7.9,-50.5 10.2,-69c-3.6,-0.4 -11.1,-2.3 -13.6,-2c-1,5.9 -9.3,62.2 -10.5,70.1c-3.1,0.1 -6.7,-1.8 -11.3,-1.9c1.1,-12.7 6.7,-56.4 7.3,-70.1c-4.4,0 -8.3,-0.1 -14.2,-1c-0.7,8.9 -7.9,78.3 -8.2,87.4c6.7,1.4 19.9,2.7 23.5,3.3" style="fill:#1d1d1b;fill-rule:nonzero;"/><path d="M188.2,284c3.4,20 65.2,268.8 81.7,319.6c5.6,-1.4 8.9,-3.2 12.9,-4.3c-1.6,-7.3 -36.1,-130.6 -37.6,-141.2c6.2,-6.5 10.5,-12.2 15.2,-16.8c-2.2,-3.1 -6.7,-9.4 -8.8,-13.6c3,-4.7 8.6,-9.2 12.1,-12.7c-5.6,-3.3 -8.5,-9.5 -13.1,-13.6c2.1,-5.2 6,-8.8 8.5,-14.1c-5.3,-5.2 -10.6,-7 -14.8,-10.9c3,-5.7 5.5,-13.7 9.7,-24.7c-6.5,-4 -11.9,-8.5 -17.4,-12.1c1.7,-4.4 5.4,-9.7 8,-15.2c-4.3,-1.8 -11.8,-6.6 -15.9,-8.9c1.4,-4 1.5,-9.7 2.7,-14.9c-6.7,0.2 -9.7,0.6 -15,0.2c-1,-4.4 -1.2,-6 -4.1,-14.8c-6.7,3.5 -7.2,3.8 -11.8,5.7c-3.7,-1.7 -8.2,-4.8 -12.3,-7.7" style="fill:#1d1d1b;fill-rule:nonzero;"/><g><path d="M406.2,122.6c-12.3,-22.9 11.2,-48.4 27.5,-52.4c13.9,-3.1 25.5,-2.5 35.8,7c4.6,4.3 13.7,17.4 11,28.5c-4.9,25.6 -29.2,41 -45.6,39c-7.8,-1 -16.4,-5 -21,-10.2c-9.6,6.4 -89.8,57.2 -102.8,64.9c-2.2,-4 -4,-7 -7,-12.4c10.2,-6.2 88.7,-56.2 102.1,-64.4" style="fill:#1d1d1b;fill-rule:nonzero;"/><path d="M457.7,91c-5.2,-9.1 -16.5,-9.1 -25.1,-5.1c-10.7,4.9 -14.2,16.4 -10.8,27.2c1,3.1 5.8,1.7 4.8,-1.3c-2.6,-8.2 -0.7,-16.9 7.5,-21c6.2,-3.2 15.3,-4.1 19.3,2.8c1.6,2.7 5.9,0.2 4.3,-2.6Z" style="fill:#fff;fill-rule:nonzero;"/></g><g><path d="M120.577,99.967c1.024,-2.74 4.668,-3.913 8.132,-2.618c3.464,1.295 5.444,4.571 4.42,7.311c-1.025,2.74 -4.668,3.913 -8.132,2.618c-3.464,-1.295 -5.444,-4.571 -4.42,-7.311Z" style="fill:#1d1d1b;"/><path d="M105.395,94.242c1.024,-2.74 4.667,-3.913 8.131,-2.619c3.464,1.294 5.445,4.569 4.421,7.309c-1.024,2.74 -4.667,3.914 -8.131,2.62c-3.464,-1.294 -5.445,-4.57 -4.421,-7.31Z" style="fill:#1d1d1b;"/><path d="M115.64,98.059c0.502,-1.344 2.337,-1.902 4.095,-1.245c1.758,0.657 2.777,2.282 2.274,3.626c-0.502,1.344 -2.337,1.902 -4.095,1.245c-1.758,-0.657 -2.777,-2.282 -2.274,-3.626Z" style="fill:#1d1d1b;"/><path d="M133.204,110.275c0.232,-0.62 1.05,-0.888 1.826,-0.598c0.775,0.29 1.216,1.029 0.984,1.65c-0.232,0.62 -1.05,0.888 -1.826,0.598c-0.775,-0.29 -1.216,-1.029 -0.984,-1.65Z" style="fill:#1d1d1b;"/><path d="M136.86,100.377c0.232,-0.621 1.049,-0.889 1.825,-0.599c0.775,0.29 1.217,1.029 0.985,1.649c-0.232,0.621 -1.05,0.889 -1.826,0.599c-0.775,-0.29 -1.216,-1.029 -0.984,-1.649Z" style="fill:#1d1d1b;"/><path d="M138.3,100.9l-6.2,0.5" style="fill:none;stroke:#1d1d1b;stroke-width:1px;"/><path d="M134,110.6l-4.2,-4.4" style="fill:none;stroke:#1d1d1b;stroke-width:1px;"/><path d="M124.9,88.3l2.5,5.7l-3.5,6" style="fill:none;stroke:#1d1d1b;stroke-width:1px;"/><path d="M120.4,86.7l2.7,6.2l-3.3,5.6" style="fill:none;stroke:#1d1d1b;stroke-width:1px;"/><path d="M116.5,86.5l2.8,5.8l-3.6,3" style="fill:none;stroke:#1d1d1b;stroke-width:1px;"/><path d="M117.6,111.9l5.2,-3.2l1.5,-6.2" style="fill:none;stroke:#1d1d1b;stroke-width:1px;"/><path d="M113.2,108.7l5,-2.5l1.3,-5.5" style="fill:none;stroke:#1d1d1b;stroke-width:1px;"/><path d="M107.9,106.8l6.1,-3l-1,-3.9" style="fill:none;stroke:#1d1d1b;stroke-width:1px;"/></g></svg>