<?xml version="1.0" encoding="utf-8"?>
<!-- Generator: Adobe Illustrator 19.2.0, SVG Export Plug-In . SVG Version: 6.00 Build 0)  -->
<svg version="1.1" id="repas3" xmlns="http://www.w3.org/2000/svg" xmlns:xlink="http://www.w3.org/1999/xlink" x="0px" y="0px"
	 viewBox="0 0 1200 800"  xml:space="preserve">
<style type="text/css">
	.st0{fill:none;stroke:#D0EDEF;stroke-width:5;stroke-miterlimit:10;}
	.st1{fill:#FCE0DB;}
	.st2{fill:#FFFFFF;}
	.st3{fill:#1D1D1B;}
	.st4{fill:none;stroke:#1D1D1B;stroke-miterlimit:10;}
</style>
<g>
	<g>
		<g>
			<g>
				<line class="st0" x1="43.4" y1="126.1" x2="84.8" y2="124.3"/>
				<path class="st0" d="M44.8,141.4c1.3,0.1,40.9-1.2,40.9-1.2"/>
				<line class="st0" x1="47.1" y1="157.7" x2="87.2" y2="156.9"/>
				<line class="st0" x1="47.3" y1="173.2" x2="85.9" y2="174.9"/>
				<path class="st0" d="M45.8,192c0.9,0.2,42.7-3.7,42.7-3.7"/>
				<path class="st0" d="M50.1,206.5c1.8,0.1,41.1-5.6,41.1-5.6"/>
				<path class="st0" d="M46.8,221.2c1.8-0.4,40.8,1.9,40.8,1.9"/>
				<line class="st0" x1="46.4" y1="237.2" x2="81.4" y2="236.6"/>
				<line class="st0" x1="47" y1="253" x2="86.7" y2="249.5"/>
				<line class="st0" x1="44.7" y1="267.8" x2="81.2" y2="267.3"/>
			</g>
			<g>
				<line class="st0" x1="44.5" y1="285.2" x2="85.9" y2="283.5"/>
				<path class="st0" d="M45.8,300.5c1.3,0.1,40.9-1.2,40.9-1.2"/>
				<line class="st0" x1="48.2" y1="316.8" x2="88.2" y2="316"/>
				<line class="st0" x1="48.4" y1="332.3" x2="87" y2="334.1"/>
				<path class="st0" d="M46.9,351.2c0.9,0.2,42.7-3.7,42.7-3.7"/>
				<path class="st0" d="M51.2,365.6c1.8,0.1,41.1-5.6,41.1-5.6"/>
				<path class="st0" d="M47.9,380.4c1.8-0.4,40.8,1.8,40.8,1.8"/>
				<line class="st0" x1="47.4" y1="396.4" x2="82.5" y2="395.8"/>
				<line class="st0" x1="48" y1="412.2" x2="87.7" y2="408.7"/>
				<line class="st0" x1="45.7" y1="427" x2="82.3" y2="426.4"/>
			</g>
			<g>
				<line class="st0" x1="47.2" y1="445.1" x2="88.6" y2="443.3"/>
				<path class="st0" d="M48.6,460.4c1.3,0.1,40.9-1.2,40.9-1.2"/>
				<line class="st0" x1="50.9" y1="476.7" x2="90.9" y2="475.9"/>
				<line class="st0" x1="51.1" y1="492.1" x2="89.7" y2="493.9"/>
				<path class="st0" d="M49.6,511c0.9,0.2,42.7-3.7,42.7-3.7"/>
				<path class="st0" d="M53.9,525.4c1.8,0.1,41.1-5.6,41.1-5.6"/>
				<path class="st0" d="M50.6,540.2c1.8-0.4,40.8,1.8,40.8,1.8"/>
				<line class="st0" x1="50.1" y1="556.2" x2="85.2" y2="555.6"/>
				<line class="st0" x1="50.7" y1="572" x2="90.4" y2="568.5"/>
				<line class="st0" x1="48.5" y1="586.8" x2="85" y2="586.3"/>
			</g>
			<g>
				<line class="st0" x1="46.4" y1="604.3" x2="87.8" y2="602.6"/>
				<path class="st0" d="M47.8,619.6c1.3,0.1,40.9-1.2,40.9-1.2"/>
				<line class="st0" x1="50.2" y1="635.9" x2="90.2" y2="635.1"/>
				<line class="st0" x1="50.3" y1="651.4" x2="88.9" y2="653.1"/>
				<path class="st0" d="M48.8,670.2c0.9,0.2,42.7-3.7,42.7-3.7"/>
				<path class="st0" d="M53.1,684.7c1.8,0.1,41.1-5.6,41.1-5.6"/>
				<path class="st0" d="M49.8,699.5c1.8-0.4,40.8,1.8,40.8,1.8"/>
				<line class="st0" x1="49.4" y1="715.5" x2="84.5" y2="714.9"/>
				<line class="st0" x1="50" y1="731.2" x2="89.7" y2="727.8"/>
				<line class="st0" x1="47.7" y1="746" x2="84.2" y2="745.5"/>
			</g>
		</g>
		<g>
			<g>
				<line class="st0" x1="1074.9" y1="117.2" x2="1116.3" y2="115.5"/>
				<path class="st0" d="M1076.3,132.2c1.3,0.1,40.9-1.2,40.9-1.2"/>
				<line class="st0" x1="1078.7" y1="148.2" x2="1118.7" y2="147.4"/>
				<line class="st0" x1="1078.8" y1="163.4" x2="1117.4" y2="165.1"/>
				<path class="st0" d="M1077.4,181.8c0.9,0.2,42.7-3.6,42.7-3.6"/>
				<path class="st0" d="M1081.7,196c1.8,0.1,41.1-5.5,41.1-5.5"/>
				<path class="st0" d="M1078.4,210.5c1.8-0.4,40.8,1.9,40.8,1.9"/>
				<line class="st0" x1="1078" y1="226.2" x2="1113" y2="225.6"/>
				<line class="st0" x1="1078.6" y1="241.7" x2="1118.3" y2="238.3"/>
				<line class="st0" x1="1076.3" y1="256.2" x2="1112.8" y2="255.7"/>
			</g>
			<g>
				<line class="st0" x1="1076.1" y1="273.3" x2="1117.5" y2="271.6"/>
				<path class="st0" d="M1077.5,288.3c1.3,0.1,40.9-1.2,40.9-1.2"/>
				<line class="st0" x1="1079.8" y1="304.3" x2="1119.9" y2="303.5"/>
				<line class="st0" x1="1080" y1="319.5" x2="1118.6" y2="321.2"/>
				<path class="st0" d="M1078.5,338c0.9,0.2,42.7-3.6,42.7-3.6"/>
				<path class="st0" d="M1082.9,352.1c1.8,0.1,41.1-5.5,41.1-5.5"/>
				<path class="st0" d="M1079.6,366.6c1.8-0.4,40.8,1.8,40.8,1.8"/>
				<line class="st0" x1="1079.1" y1="382.3" x2="1114.2" y2="381.7"/>
				<line class="st0" x1="1079.7" y1="397.8" x2="1119.5" y2="394.4"/>
				<line class="st0" x1="1077.5" y1="412.3" x2="1114" y2="411.8"/>
			</g>
			<g>
				<line class="st0" x1="1078.9" y1="430.1" x2="1120.3" y2="428.4"/>
				<path class="st0" d="M1080.3,445.1c1.3,0.1,40.9-1.2,40.9-1.2"/>
				<line class="st0" x1="1082.7" y1="461.1" x2="1122.7" y2="460.3"/>
				<line class="st0" x1="1082.9" y1="476.2" x2="1121.5" y2="478"/>
				<path class="st0" d="M1081.4,494.7c0.9,0.2,42.7-3.6,42.7-3.6"/>
				<path class="st0" d="M1085.7,508.9c1.8,0.1,41.1-5.5,41.1-5.5"/>
				<path class="st0" d="M1082.4,523.4c1.8-0.4,40.8,1.9,40.8,1.9"/>
				<line class="st0" x1="1082" y1="539.1" x2="1117" y2="538.5"/>
				<line class="st0" x1="1082.6" y1="554.6" x2="1122.3" y2="551.2"/>
				<line class="st0" x1="1080.3" y1="569.1" x2="1116.8" y2="568.6"/>
			</g>
			<g>
				<line class="st0" x1="1078.3" y1="586.3" x2="1119.7" y2="584.6"/>
				<path class="st0" d="M1079.7,601.3c1.3,0.1,40.9-1.2,40.9-1.2"/>
				<line class="st0" x1="1082.1" y1="617.3" x2="1122.1" y2="616.5"/>
				<line class="st0" x1="1082.3" y1="632.5" x2="1120.9" y2="634.2"/>
				<path class="st0" d="M1080.8,650.9c0.9,0.2,42.7-3.6,42.7-3.6"/>
				<path class="st0" d="M1085.1,665.1c1.8,0.1,41.1-5.5,41.1-5.5"/>
				<path class="st0" d="M1081.8,679.6c1.8-0.4,40.8,1.8,40.8,1.8"/>
				<line class="st0" x1="1081.4" y1="695.3" x2="1116.4" y2="694.7"/>
				<line class="st0" x1="1082" y1="710.8" x2="1121.7" y2="707.4"/>
				<line class="st0" x1="1079.7" y1="725.3" x2="1116.2" y2="724.8"/>
			</g>
		</g>
		<path class="st1" d="M80.3,117.2c0,0,990.6-5.8,1000.6-7.5l13.3,621.5L80.5,754.4L80.3,117.2z"/>
	</g>
	<circle class="st2" cx="180" cy="653.8" r="45.3"/>
	<circle class="st2" cx="311.8" cy="494.7" r="45.3"/>
	<circle class="st2" cx="193.4" cy="302.3" r="45.3"/>
	<circle class="st2" cx="457.4" cy="213.7" r="45.3"/>
	<circle class="st2" cx="750.7" cy="618.4" r="45.3"/>
	<circle class="st2" cx="994.8" cy="667.9" r="45.3"/>
	<circle class="st2" cx="910.7" cy="476.3" r="45.3"/>
	<circle class="st2" cx="985.7" cy="197.3" r="45.3"/>
	<circle class="st2" cx="795.9" cy="249.5" r="45.3"/>
</g>
<g>
	<g>
		<path class="st2" d="M399.7,416.2c3.8-19.4,12-45,24.1-63c39-57.9,88.9-76,154.8-84c127-16,239.9,99.5,213.3,229.7
			c-17.2,84-70.3,136.2-137.3,153.2c-59,16-129.5,11-193.5-37C402.9,571.4,391.2,513.2,399.7,416.2"/>
		<g>
			<path class="st3" d="M402.1,416.8c4.5-22.5,12.1-45.3,25.2-64.3c12-17.4,26.5-33,43.8-45.2c32.6-22.9,72.7-32,111.7-36.1
				c78.4-8.1,155.2,35.6,190.6,105.6c36.6,72.4,20.5,166.7-35.9,224.9c-58.5,60.4-157.7,71.1-232.4,36.8
				c-35.8-16.4-69.7-42-87.6-77.9c-16.9-33.8-18.9-73.1-17.6-110.2c0.4-11.4,1.2-22.8,2.2-34.2c0.3-3.2-4.7-3.2-5,0
				c-3.6,41.5-5.5,85.5,7.5,125.7c11.6,35.9,36.2,63.3,67.3,83.9c40.7,26.9,89.3,39.9,138,36.4c39.8-2.8,79.6-15.1,111.5-39.6
				c65-49.9,93-144.7,67.1-222.2c-25.3-75.6-97.1-131-176.9-135c-21.2-1.1-42.5,1.9-63.3,5.9c-19.8,3.8-39.3,9.5-57.4,18.4
				c-38.4,18.8-69.7,52.8-84.5,93c-3.9,10.7-7,21.6-9.2,32.8C396.7,418.7,401.5,420,402.1,416.8L402.1,416.8z"/>
		</g>
	</g>
	<g>
		<g>
			<path class="st3" d="M589.1,340c63.3-7.6,124.2,36.4,136.4,99.2c6.4,32.5-1.8,67.9-19.6,95.6c-16.9,26.3-42.9,43.1-73,50.3
				c-41.7,9.9-84.5,0.5-118.9-25c-2.6-1.9-5.1,2.4-2.5,4.3c31.8,23.6,70.8,33.8,110,28c32-4.8,61.5-19.5,81.8-45.2
				c20.9-26.6,32-62.8,28.9-96.6c-3-31.8-18.4-61.7-42.1-83c-27.4-24.7-64.3-36.9-101-32.5C585.9,335.4,585.9,340.4,589.1,340
				L589.1,340z"/>
		</g>
	</g>
</g>
<g>
	<path class="st2" d="M180,226.2c2.3,1.3,11.7,3.2,11.7,3.2l38.4-9.1l38.9-16.6l30.7-24.5l-30.3-2.3L225,191.4l-29,16.1L180,226.2z"
		/>
	<g>
		<g>
			<path class="st2" d="M180.7,229.6c3.9,10.8,48.3,97.4,70.2,132c19.3-4,77.3-25.9,85.9-30.7c-0.3-13.6-23.2-113.5-37.2-151.6
				c-15.5,18.4-35.7,27.8-53.2,34.8C228.6,221.3,202.4,230.8,180.7,229.6c11-26.5,37-34.8,51.2-41.2c15.9-7.2,51.4-17.8,67.7-9.2"/>
			<g>
				<path class="st3" d="M178.3,230.3c5,13.6,12.6,26.5,19.1,39.4c10.9,21.3,22.2,42.6,33.9,63.5c5.6,10,11.3,20,17.4,29.7
					c0.6,1,1.7,1.4,2.8,1.1c16.2-3.5,32-9.6,47.5-15.3c12.9-4.7,26.9-9.1,39-15.7c0.7-0.4,1.3-1.3,1.2-2.2
					c-0.2-5.5-1.4-11.1-2.5-16.5c-1.9-10-4.1-20-6.3-30c-5.5-24.5-11.5-48.9-18.3-73.1c-3.1-11-6.3-22-10.2-32.7
					c-0.6-1.6-2.9-2.6-4.2-1.1c-14.1,16.5-32.9,26.5-52.7,34.5c-20.3,8.2-42.3,16.2-64.5,15.2c0.7,1.3,1.4,2.5,2.2,3.8
					c9.4-21.8,29.1-31,49.6-40c10-4.4,20.4-7.8,31.1-10.1c10.8-2.3,24.5-4.6,34.8,0.5c2.9,1.4,5.4-2.9,2.5-4.3
					c-10.5-5.2-23.4-3.9-34.5-1.9c-11.9,2.2-23.7,5.8-34.8,10.6c-21.7,9.5-43,19.4-53,42.5c-0.7,1.7,0.1,3.7,2.2,3.8
					c23.1,1,46-7.3,67.1-15.9c20.2-8.2,39.3-18.5,53.6-35.2c-1.4-0.4-2.8-0.7-4.2-1.1c7.5,20.6,13,42.1,18.4,63.3
					c5.7,22.3,11,44.8,15.5,67.4c1.3,6.6,3,13.5,3.2,20.2c0.4-0.7,0.8-1.4,1.2-2.2c-12.1,6.7-26,10.9-38.9,15.7
					c-15.1,5.5-30.6,11.5-46.4,14.8c0.9,0.4,1.9,0.8,2.8,1.1c-23.1-36.5-42.9-75.6-62-114.3c-2.8-5.6-5.8-11.2-8-17.1
					C182,226,177.2,227.3,178.3,230.3L178.3,230.3z"/>
			</g>
		</g>
		<g>
			<g>
				<path class="st3" d="M284.7,226.7c7.3,28.1,17.6,55.3,24.7,83.4c0.8,3.1,5.6,1.8,4.8-1.3c-7.2-28.1-17.4-55.4-24.7-83.4
					C288.7,222.3,283.9,223.6,284.7,226.7L284.7,226.7z"/>
			</g>
		</g>
		<g>
			<g>
				<path class="st3" d="M251.8,238.8c9.9,27.6,20.6,54.9,31.6,82.1c1.2,2.9,6,1.7,4.8-1.3c-11-27.2-21.7-54.5-31.6-82.1
					C255.5,234.5,250.7,235.8,251.8,238.8L251.8,238.8z"/>
			</g>
		</g>
		<g>
			<g>
				<path class="st3" d="M218.5,253.9c13.6,24.5,24.7,50.4,39,74.5c1.6,2.8,6,0.3,4.3-2.5c-14.3-24.1-25.3-50-39-74.5
					C221.2,248.6,216.9,251.1,218.5,253.9L218.5,253.9z"/>
			</g>
		</g>
	</g>
</g>
<g>
	<g>
		<path class="st3" d="M833.4,253.5c-24.9,12.1-50.9-14-54.5-31.5c-2.7-14.9-1.6-27.2,9-37.7c4.7-4.7,19.1-13.8,30.7-10.4
			c27,6.4,42.3,32.7,39.4,50.1c-1.4,8.3-6,17.2-11.7,21.8c6.4,10.5,56.9,97.9,64.4,112c-4.3,2.2-7.6,3.9-13.5,6.9
			C891.2,353.7,841.4,268.2,833.4,253.5"/>
	</g>
	<g>
		<g>
			<path class="st2" d="M802,197.7c-9.8,5.1-10.1,17.2-6.2,26.4c4.8,11.4,16.7,15.5,28.2,12.3c3.1-0.9,1.8-5.7-1.3-4.8
				c-8.9,2.4-18.1-0.1-22.1-9c-3.1-6.9-3.6-16.6,4-20.6C807.4,200.6,804.9,196.3,802,197.7L802,197.7z"/>
		</g>
	</g>
</g>
<g>

		<ellipse transform="matrix(0.8408 -0.5413 0.5413 0.8408 108.5538 519.0091)" class="st3" cx="936.8" cy="74.9" rx="7.2" ry="5.6"/>

		<ellipse transform="matrix(0.8408 -0.5414 0.5414 0.8408 115.9503 525.4551)" class="st3" cx="951.2" cy="65.6" rx="7.2" ry="5.6"/>
	<ellipse transform="matrix(0.8408 -0.5414 0.5414 0.8408 112.4816 522.4278)" class="st3" cx="944.4" cy="70" rx="3.6" ry="2.8"/>
	<ellipse transform="matrix(0.841 -0.541 0.541 0.841 105.7764 512.2464)" class="st3" cx="924.5" cy="76.1" rx="1.6" ry="1.3"/>

		<ellipse transform="matrix(0.8409 -0.5412 0.5412 0.8409 101.7719 517.2623)" class="st3" cx="930.6" cy="85.5" rx="1.6" ry="1.3"/>
	<line class="st4" x1="930.6" y1="85.5" x2="934.1" y2="80"/>
	<line class="st4" x1="925.1" y1="75.8" x2="931.5" y2="75"/>
	<polyline class="st4" points="949.9,82.1 943.4,80.6 940.6,73.9 	"/>
	<polyline class="st4" points="954.1,79.4 947.1,77.7 944.4,71.4 	"/>
	<polyline class="st4" points="956.8,76.1 950,74.9 949.8,69.9 	"/>
	<polyline class="st4" points="934.4,61 933.9,67.4 938.2,72.6 	"/>
	<polyline class="st4" points="939.9,59.2 938.9,65.1 942.8,69.7 	"/>
	<polyline class="st4" points="945,55.9 943.6,63 947.6,64.6 	"/>
</g>
</svg>
