<?xml version="1.0" encoding="UTF-8" standalone="no"?><!DOCTYPE svg PUBLIC "-//W3C//DTD SVG 1.1//EN" "http://www.w3.org/Graphics/SVG/1.1/DTD/svg11.dtd"><svg width="100%" height="100%" viewBox="0 0 1200 800" version="1.1" xmlns="http://www.w3.org/2000/svg" xmlns:xlink="http://www.w3.org/1999/xlink" xml:space="preserve" style="fill-rule:evenodd;clip-rule:evenodd;stroke-miterlimit:10;"><g><g><g><path d="M157.26,76.805l-0.32,4.99l-38.9,-2.5l0.32,-4.99l38.9,2.5Z" style="fill:#eae778;"/><path d="M118.277,88.729l0.003,0l0.101,0.011l0.162,0.017l0.218,0.02l0.269,0.025l0.314,0.028l0.761,0.065l0.921,0.077l1.066,0.087l1.197,0.097l1.315,0.105l1.42,0.112l1.509,0.119l3.238,0.253l3.438,0.266l3.532,0.271l3.518,0.27l3.397,0.259l6.002,0.456l4.229,0.319l1.601,0.121l-0.376,4.986l-1.601,-0.121l-4.231,-0.32l-6.003,-0.456l-3.399,-0.259l-3.519,-0.269l-3.534,-0.272l-3.441,-0.266l-3.241,-0.253l-1.513,-0.119l-1.422,-0.113l-1.319,-0.105l-1.202,-0.097l-1.073,-0.088l-0.93,-0.078l-0.775,-0.066l-0.328,-0.029l-0.284,-0.026l-0.243,-0.023l-0.203,-0.021l-0.167,-0.018l-0.092,-0.012l-0.06,-0.009l0.736,-4.946l0.009,0.002Z" style="fill:#eae778;"/><path d="M156.219,107.51l-0.438,4.98l-37.5,-3.3l0.438,-4.98l37.5,3.3Z" style="fill:#eae778;"/><path d="M153.379,124.229l-0.758,4.942l-35.9,-5.5l0.758,-4.942l35.9,5.5Z" style="fill:#eae778;"/><path d="M114.24,136.242l0.044,0.004l0.067,0.005l0.087,0.007l0.1,0.006l0.256,0.015l0.306,0.015l0.356,0.016l0.403,0.017l0.447,0.016l0.49,0.018l0.529,0.017l0.567,0.018l0.603,0.017l0.636,0.018l1.368,0.037l1.481,0.037l1.579,0.037l1.664,0.038l1.733,0.037l1.788,0.037l1.829,0.037l1.856,0.036l1.868,0.036l1.866,0.035l1.849,0.033l3.591,0.064l3.353,0.057l3.001,0.05l2.533,0.041l1.95,0.031l1.699,0.026l-0.078,5l-1.699,-0.027l-1.953,-0.031l-2.534,-0.041l-3.003,-0.05l-3.356,-0.057l-3.594,-0.064l-1.851,-0.033l-1.868,-0.035l-1.87,-0.036l-1.859,-0.036l-1.832,-0.037l-1.792,-0.037l-1.738,-0.037l-1.668,-0.038l-1.586,-0.037l-1.488,-0.038l-1.377,-0.036l-0.643,-0.019l-0.61,-0.018l-0.575,-0.018l-0.539,-0.017l-0.501,-0.018l-0.461,-0.017l-0.422,-0.017l-0.38,-0.017l-0.338,-0.017l-0.293,-0.017l-0.137,-0.009l-0.126,-0.009l-0.12,-0.01l-0.116,-0.011l-0.119,-0.013l-0.139,-0.019l-0.166,-0.03l-0.17,-0.041l-0.092,-0.029l1.508,-4.768l-0.07,-0.022l-0.14,-0.034l-0.087,-0.015l-0.032,-0.005l0.015,0.002Z" style="fill:#eae778;"/><path d="M155.392,153.998l-1.61,0.06l-1.853,0.068l-2.408,0.086l-2.856,0.102l-3.197,0.112l-3.429,0.117l-1.77,0.059l-1.787,0.059l-1.793,0.058l-1.783,0.057l-1.762,0.055l-1.727,0.052l-1.678,0.049l-1.616,0.045l-1.542,0.041l-1.452,0.036l-0.69,0.016l-0.662,0.015l-0.634,0.013l-0.604,0.011l-0.572,0.01l-0.539,0.009l-0.504,0.006l-0.469,0.005l-0.431,0.002l-0.394,0.001l-0.355,-0.001l-0.314,-0.004l-0.148,-0.003l-0.137,-0.004l-0.13,-0.004l-0.125,-0.006l-0.123,-0.008l-0.129,-0.01l-0.147,-0.015l-0.099,-0.016l0.754,-4.942l-0.011,-0.002l-0.033,-0.004l0.011,0.001l0.04,0.003l0.064,0.003l0.083,0.002l0.099,0.003l0.112,0.002l0.274,0.004l0.321,0.001l0.367,-0.001l0.411,-0.002l0.452,-0.005l0.491,-0.006l0.527,-0.008l0.562,-0.01l0.596,-0.011l0.626,-0.013l0.656,-0.015l0.684,-0.016l1.444,-0.036l1.533,-0.04l1.61,-0.045l1.673,-0.049l1.722,-0.052l1.758,-0.055l1.78,-0.056l1.789,-0.058l1.785,-0.059l1.766,-0.059l3.427,-0.117l3.193,-0.112l2.853,-0.101l2.405,-0.087l1.851,-0.068l1.61,-0.059l0.184,4.996Z" style="fill:#eae778;"/><path d="M111.941,163.597l0.136,0.005l0.134,0.008l0.137,0.009l0.143,0.012l0.149,0.013l0.157,0.015l0.165,0.018l0.174,0.018l0.184,0.021l0.39,0.047l0.427,0.053l0.463,0.06l0.497,0.067l0.53,0.073l0.562,0.079l0.592,0.085l0.621,0.09l0.648,0.095l0.674,0.1l0.698,0.105l0.721,0.109l0.742,0.113l0.763,0.117l1.575,0.244l1.636,0.256l1.682,0.266l1.715,0.273l1.736,0.278l1.744,0.281l1.739,0.281l1.72,0.28l1.689,0.276l1.646,0.269l1.588,0.261l1.518,0.251l2.774,0.459l2.339,0.388l1.8,0.3l1.564,0.262l-0.826,4.932l-1.562,-0.262l-1.797,-0.3l-2.335,-0.388l-2.771,-0.458l-1.516,-0.25l-1.586,-0.261l-1.643,-0.269l-1.686,-0.275l-1.717,-0.279l-1.735,-0.281l-1.74,-0.28l-1.731,-0.278l-1.71,-0.272l-1.676,-0.264l-1.628,-0.255l-1.568,-0.243l-0.757,-0.117l-0.737,-0.112l-0.715,-0.108l-0.691,-0.104l-0.667,-0.099l-0.64,-0.094l-0.611,-0.088l-0.581,-0.084l-0.548,-0.077l-0.515,-0.07l-0.479,-0.065l-0.441,-0.057l-0.4,-0.05l-0.36,-0.043l-0.16,-0.018l-0.15,-0.016l-0.137,-0.015l-0.123,-0.012l-0.109,-0.009l-0.094,-0.008l-0.075,-0.005l-0.055,-0.003l-0.03,-0.001l0.004,0l0.033,-0.001l0.068,-0.004l0.023,-0.002l-0.478,-4.978l0.066,-0.006l0.117,-0.007l0.151,-0.003l0.146,0.002Z" style="fill:#eae778;"/><path d="M142.728,181.51l-0.456,4.98l-32.8,-3l0.456,-4.98l32.8,3Z" style="fill:#eae778;"/><path d="M146.253,194.101l-0.106,4.998l-37.5,-0.8l0.106,-4.998l37.5,0.8Z" style="fill:#eae778;"/><path d="M139.426,210.11l-0.452,4.98l-34.2,-3.1l0.452,-4.98l34.2,3.1Z" style="fill:#eae778;"/></g><g><path d="M142.067,225.806l-0.334,4.988l-38.8,-2.6l0.334,-4.988l38.8,2.6Z" style="fill:#eae778;"/><path d="M103.178,237.729l0.002,0l0.101,0.011l0.162,0.017l0.218,0.02l0.269,0.025l0.314,0.028l0.761,0.065l0.921,0.077l1.066,0.087l1.197,0.097l1.315,0.105l1.42,0.112l1.509,0.119l3.238,0.253l3.438,0.266l3.532,0.271l3.518,0.27l3.397,0.259l6.002,0.456l4.229,0.319l1.601,0.121l-0.376,4.986l-1.601,-0.121l-4.231,-0.32l-6.003,-0.456l-3.399,-0.259l-3.519,-0.269l-3.534,-0.272l-3.441,-0.266l-3.241,-0.253l-1.513,-0.119l-1.422,-0.113l-1.319,-0.105l-1.202,-0.097l-1.073,-0.088l-0.93,-0.078l-0.775,-0.066l-0.328,-0.029l-0.284,-0.026l-0.243,-0.023l-0.203,-0.021l-0.167,-0.018l-0.092,-0.012l-0.06,-0.009l0.736,-4.946l0.01,0.002Z" style="fill:#eae778;"/><path d="M141.019,256.41l-0.438,4.98l-37.5,-3.3l0.438,-4.98l37.5,3.3Z" style="fill:#eae778;"/><path d="M138.185,273.23l-0.77,4.94l-35.9,-5.6l0.77,-4.94l35.9,5.6Z" style="fill:#eae778;"/><path d="M99.035,285.141l0.044,0.004l0.067,0.005l0.086,0.006l0.101,0.007l0.255,0.014l0.306,0.015l0.356,0.015l0.403,0.015l0.448,0.016l0.489,0.016l0.529,0.016l0.567,0.016l0.603,0.017l0.636,0.016l1.368,0.033l1.481,0.034l1.579,0.033l1.663,0.033l1.733,0.033l1.789,0.033l1.829,0.032l1.856,0.032l1.868,0.031l1.865,0.03l1.849,0.029l3.592,0.054l3.353,0.049l3,0.042l2.533,0.035l1.951,0.026l1.698,0.022l-0.064,5l-1.7,-0.022l-1.952,-0.026l-2.535,-0.035l-3.003,-0.042l-3.355,-0.049l-3.595,-0.055l-1.851,-0.029l-1.868,-0.03l-1.87,-0.031l-1.859,-0.031l-1.832,-0.033l-1.792,-0.032l-1.737,-0.034l-1.669,-0.033l-1.586,-0.034l-1.488,-0.033l-1.377,-0.034l-0.643,-0.016l-0.61,-0.017l-0.575,-0.016l-0.539,-0.017l-0.501,-0.016l-0.462,-0.016l-0.421,-0.016l-0.38,-0.016l-0.338,-0.017l-0.294,-0.016l-0.137,-0.009l-0.126,-0.009l-0.119,-0.009l-0.117,-0.011l-0.12,-0.013l-0.14,-0.019l-0.165,-0.029l-0.171,-0.041l-0.096,-0.031l1.51,-4.766l-0.073,-0.023l-0.142,-0.035l-0.086,-0.015l-0.033,-0.004l0.014,0.001Z" style="fill:#eae778;"/><path d="M140.292,302.998l-1.61,0.06l-1.853,0.068l-2.408,0.086l-2.856,0.102l-3.197,0.112l-3.429,0.117l-1.77,0.059l-1.787,0.059l-1.793,0.058l-1.783,0.057l-1.762,0.055l-1.727,0.052l-1.678,0.049l-1.616,0.045l-1.542,0.041l-1.452,0.036l-0.69,0.016l-0.662,0.015l-0.634,0.013l-0.604,0.011l-0.572,0.01l-0.539,0.009l-0.504,0.006l-0.469,0.005l-0.431,0.002l-0.394,0.001l-0.355,-0.001l-0.314,-0.004l-0.148,-0.003l-0.137,-0.004l-0.13,-0.004l-0.125,-0.006l-0.123,-0.008l-0.129,-0.01l-0.147,-0.016l-0.098,-0.014l0.752,-4.943l-0.01,-0.002l-0.033,-0.004l0.01,0.001l0.041,0.003l0.064,0.003l0.083,0.002l0.099,0.003l0.112,0.002l0.274,0.004l0.321,0.001l0.367,-0.001l0.411,-0.002l0.452,-0.005l0.491,-0.006l0.527,-0.008l0.563,-0.01l0.595,-0.011l0.626,-0.013l0.656,-0.015l0.684,-0.016l1.444,-0.036l1.533,-0.04l1.61,-0.045l1.673,-0.049l1.722,-0.052l1.758,-0.055l1.78,-0.056l1.789,-0.058l1.785,-0.059l1.766,-0.059l3.427,-0.117l3.193,-0.112l2.853,-0.101l2.405,-0.087l1.851,-0.068l1.61,-0.059l0.184,4.996Z" style="fill:#eae778;"/><path d="M96.841,312.497l0.135,0.005l0.135,0.008l0.137,0.009l0.143,0.012l0.149,0.013l0.157,0.015l0.165,0.018l0.174,0.018l0.184,0.021l0.39,0.047l0.428,0.053l0.462,0.06l0.497,0.067l0.53,0.073l0.562,0.079l0.592,0.085l0.621,0.09l0.648,0.095l0.674,0.1l0.698,0.105l0.721,0.109l0.743,0.113l0.762,0.117l1.575,0.244l1.636,0.256l1.682,0.266l1.715,0.273l1.736,0.278l1.744,0.281l1.739,0.281l1.72,0.28l1.689,0.276l1.646,0.269l1.588,0.261l1.518,0.251l2.774,0.459l2.339,0.388l1.8,0.3l1.564,0.262l-0.826,4.932l-1.562,-0.262l-1.797,-0.3l-2.335,-0.388l-2.771,-0.458l-1.516,-0.25l-1.586,-0.261l-1.643,-0.269l-1.686,-0.275l-1.717,-0.279l-1.735,-0.281l-1.74,-0.28l-1.731,-0.278l-1.71,-0.272l-1.676,-0.264l-1.628,-0.255l-1.568,-0.243l-0.757,-0.117l-0.737,-0.112l-0.715,-0.108l-0.691,-0.104l-0.667,-0.099l-0.64,-0.094l-0.611,-0.088l-0.581,-0.084l-0.548,-0.077l-0.515,-0.07l-0.479,-0.065l-0.441,-0.057l-0.4,-0.05l-0.36,-0.043l-0.16,-0.018l-0.15,-0.016l-0.137,-0.015l-0.123,-0.012l-0.109,-0.009l-0.094,-0.008l-0.075,-0.005l-0.055,-0.003l-0.03,-0.002l0.004,0.001l0.034,-0.001l0.066,-0.004l0.022,-0.002l-0.474,-4.978l0.065,-0.006l0.116,-0.007l0.151,-0.003l0.146,0.002Z" style="fill:#eae778;"/><path d="M127.628,330.41l-0.456,4.98l-32.8,-3l0.456,-4.98l32.8,3Z" style="fill:#eae778;"/><path d="M131.047,343l-0.094,5l-37.5,-0.7l0.094,-5l37.5,0.7Z" style="fill:#eae778;"/><path d="M124.333,359.111l-0.466,4.978l-34.2,-3.2l0.466,-4.978l34.2,3.2Z" style="fill:#eae778;"/></g><g><path d="M128.467,375.506l-0.334,4.988l-38.9,-2.6l0.334,-4.988l38.9,2.6Z" style="fill:#eae778;"/><path d="M89.577,387.429l0.003,0l0.101,0.011l0.162,0.017l0.218,0.02l0.269,0.025l0.314,0.028l0.761,0.065l0.921,0.077l1.066,0.087l1.197,0.097l1.315,0.105l1.42,0.112l1.509,0.119l3.238,0.253l3.438,0.266l3.532,0.271l3.518,0.27l3.397,0.259l6.002,0.456l4.229,0.319l1.601,0.121l-0.376,4.986l-1.601,-0.121l-4.231,-0.32l-6.003,-0.456l-3.399,-0.259l-3.519,-0.269l-3.534,-0.272l-3.441,-0.266l-3.241,-0.253l-1.513,-0.119l-1.422,-0.113l-1.319,-0.105l-1.202,-0.097l-1.073,-0.088l-0.93,-0.078l-0.775,-0.066l-0.328,-0.029l-0.284,-0.026l-0.243,-0.023l-0.203,-0.021l-0.166,-0.018l-0.093,-0.012l-0.06,-0.009l0.736,-4.946l0.009,0.002Z" style="fill:#eae778;"/><path d="M127.419,406.21l-0.438,4.98l-37.5,-3.3l0.438,-4.98l37.5,3.3Z" style="fill:#eae778;"/><path d="M124.585,422.93l-0.77,4.94l-35.9,-5.6l0.77,-4.94l35.9,5.6Z" style="fill:#eae778;"/><path d="M85.435,434.841l0.044,0.004l0.067,0.005l0.086,0.006l0.101,0.007l0.255,0.014l0.306,0.015l0.356,0.015l0.403,0.015l0.447,0.016l0.49,0.016l0.529,0.016l0.567,0.016l0.603,0.017l0.636,0.016l1.368,0.033l1.481,0.034l1.579,0.033l1.663,0.033l1.733,0.033l1.789,0.033l1.829,0.032l1.856,0.032l1.868,0.031l1.865,0.03l1.849,0.029l3.592,0.054l3.353,0.049l3,0.042l2.533,0.035l1.951,0.026l1.698,0.022l-0.064,5l-1.7,-0.022l-1.952,-0.026l-2.535,-0.035l-3.003,-0.042l-3.355,-0.049l-3.595,-0.055l-1.851,-0.029l-1.868,-0.03l-1.87,-0.031l-1.859,-0.031l-1.832,-0.033l-1.792,-0.032l-1.737,-0.034l-1.669,-0.033l-1.586,-0.034l-1.488,-0.033l-1.377,-0.034l-0.643,-0.016l-0.61,-0.017l-0.575,-0.016l-0.539,-0.017l-0.501,-0.016l-0.461,-0.016l-0.422,-0.016l-0.38,-0.016l-0.338,-0.017l-0.294,-0.016l-0.137,-0.009l-0.126,-0.009l-0.119,-0.009l-0.117,-0.011l-0.121,-0.013l-0.138,-0.018l-0.168,-0.03l-0.172,-0.042l-0.092,-0.029l1.508,-4.768l-0.07,-0.022l-0.143,-0.034l-0.088,-0.016l-0.031,-0.004l0.013,0.001Z" style="fill:#eae778;"/><path d="M126.692,452.698l-1.61,0.06l-1.853,0.068l-2.408,0.086l-2.856,0.102l-3.197,0.112l-3.429,0.117l-1.77,0.059l-1.787,0.059l-1.793,0.058l-1.783,0.057l-1.762,0.055l-1.727,0.052l-1.678,0.049l-1.616,0.045l-1.542,0.041l-1.452,0.036l-0.69,0.016l-0.662,0.015l-0.634,0.013l-0.604,0.011l-0.572,0.01l-0.539,0.009l-0.504,0.006l-0.469,0.005l-0.431,0.002l-0.394,0.001l-0.355,-0.001l-0.314,-0.004l-0.148,-0.003l-0.137,-0.004l-0.13,-0.004l-0.125,-0.006l-0.124,-0.008l-0.128,-0.01l-0.147,-0.015l-0.1,-0.016l0.756,-4.942l-0.012,-0.002l-0.033,-0.004l0.011,0.001l0.04,0.003l0.064,0.003l0.083,0.002l0.099,0.003l0.112,0.002l0.274,0.004l0.321,0.001l0.367,-0.001l0.411,-0.002l0.452,-0.005l0.491,-0.006l0.527,-0.008l0.563,-0.01l0.595,-0.011l0.626,-0.013l0.656,-0.015l0.684,-0.016l1.444,-0.036l1.533,-0.04l1.61,-0.045l1.673,-0.049l1.722,-0.052l1.758,-0.055l1.78,-0.056l1.789,-0.058l1.785,-0.059l1.766,-0.059l3.427,-0.117l3.193,-0.112l2.853,-0.101l2.405,-0.087l1.851,-0.068l1.61,-0.059l0.184,4.996Z" style="fill:#eae778;"/><path d="M83.24,462.297l0.136,0.005l0.135,0.008l0.137,0.009l0.143,0.012l0.149,0.013l0.157,0.015l0.165,0.018l0.174,0.018l0.184,0.021l0.39,0.047l0.428,0.053l0.462,0.06l0.497,0.067l0.53,0.073l0.562,0.079l0.592,0.085l0.621,0.09l0.648,0.095l0.674,0.1l0.698,0.105l0.721,0.109l0.743,0.113l0.762,0.117l1.575,0.244l1.636,0.256l1.682,0.266l1.715,0.273l1.736,0.278l1.744,0.281l1.739,0.281l1.72,0.28l1.689,0.276l1.646,0.269l1.588,0.261l1.518,0.251l2.774,0.459l2.339,0.388l1.8,0.3l1.564,0.262l-0.826,4.932l-1.562,-0.262l-1.797,-0.3l-2.335,-0.388l-2.771,-0.458l-1.516,-0.25l-1.586,-0.261l-1.643,-0.269l-1.686,-0.275l-1.717,-0.279l-1.735,-0.281l-1.74,-0.28l-1.731,-0.278l-1.71,-0.272l-1.676,-0.264l-1.628,-0.255l-1.568,-0.243l-0.757,-0.117l-0.737,-0.112l-0.715,-0.108l-0.691,-0.104l-0.667,-0.099l-0.64,-0.094l-0.611,-0.089l-0.581,-0.082l-0.548,-0.078l-0.515,-0.07l-0.479,-0.065l-0.441,-0.057l-0.4,-0.05l-0.36,-0.043l-0.16,-0.018l-0.15,-0.016l-0.137,-0.015l-0.123,-0.012l-0.109,-0.009l-0.093,-0.008l-0.077,-0.005l-0.054,-0.003l-0.03,-0.001l0.004,0l0.034,-0.001l0.066,-0.004l0.022,-0.002l-0.474,-4.978l0.065,-0.006l0.116,-0.007l0.151,-0.003l0.145,0.002Z" style="fill:#eae778;"/><path d="M114.02,480.11l-0.44,4.98l-32.9,-2.9l0.44,-4.98l32.9,2.9Z" style="fill:#eae778;"/><path d="M117.447,492.7l-0.094,5l-37.5,-0.7l0.094,-5l37.5,0.7Z" style="fill:#eae778;"/><path d="M110.733,508.811l-0.466,4.978l-34.2,-3.2l0.466,-4.978l34.2,3.2Z" style="fill:#eae778;"/></g><g><path d="M111.66,524.305l-0.32,4.99l-38.9,-2.5l0.32,-4.99l38.9,2.5Z" style="fill:#eae778;"/><path d="M72.778,536.229l0.003,0l0.1,0.011l0.162,0.017l0.218,0.02l0.269,0.025l0.314,0.028l0.761,0.065l0.921,0.077l1.066,0.087l1.197,0.097l1.315,0.105l1.42,0.112l1.509,0.119l3.238,0.253l3.438,0.266l3.532,0.271l3.518,0.27l3.397,0.259l6.002,0.456l4.229,0.319l1.601,0.121l-0.376,4.986l-1.601,-0.121l-4.231,-0.32l-6.003,-0.456l-3.399,-0.259l-3.519,-0.269l-3.534,-0.272l-3.441,-0.266l-3.241,-0.253l-1.513,-0.119l-1.422,-0.113l-1.319,-0.105l-1.202,-0.097l-1.073,-0.088l-0.93,-0.078l-0.775,-0.066l-0.328,-0.029l-0.284,-0.026l-0.243,-0.023l-0.203,-0.021l-0.167,-0.019l-0.092,-0.011l-0.06,-0.009l0.736,-4.946l0.01,0.002Z" style="fill:#eae778;"/><path d="M110.619,555.01l-0.438,4.98l-37.5,-3.3l0.438,-4.98l37.5,3.3Z" style="fill:#eae778;"/><path d="M107.779,571.729l-0.758,4.942l-35.9,-5.5l0.758,-4.942l35.9,5.5Z" style="fill:#eae778;"/><path d="M68.635,583.741l0.044,0.004l0.067,0.005l0.086,0.006l0.1,0.007l0.256,0.014l0.306,0.015l0.356,0.015l0.403,0.015l0.448,0.016l0.489,0.016l0.529,0.016l0.567,0.016l0.603,0.017l0.636,0.016l1.368,0.033l1.481,0.034l1.579,0.033l1.663,0.033l1.733,0.033l1.789,0.033l1.829,0.032l1.856,0.032l1.868,0.031l1.865,0.03l1.849,0.029l3.592,0.054l3.353,0.049l3,0.042l2.533,0.035l1.951,0.026l1.698,0.022l-0.064,5l-1.7,-0.022l-1.952,-0.026l-2.535,-0.035l-3.003,-0.042l-3.355,-0.049l-3.595,-0.055l-1.851,-0.029l-1.868,-0.03l-1.87,-0.031l-1.859,-0.031l-1.832,-0.033l-1.792,-0.032l-1.737,-0.034l-1.669,-0.033l-1.586,-0.034l-1.488,-0.033l-1.377,-0.034l-0.643,-0.016l-0.61,-0.017l-0.575,-0.016l-0.539,-0.017l-0.501,-0.016l-0.462,-0.016l-0.421,-0.016l-0.38,-0.016l-0.338,-0.017l-0.294,-0.016l-0.137,-0.009l-0.126,-0.009l-0.119,-0.009l-0.117,-0.011l-0.12,-0.013l-0.14,-0.019l-0.164,-0.029l-0.172,-0.041l-0.095,-0.03l1.508,-4.768l-0.073,-0.023l-0.142,-0.034l-0.085,-0.015l-0.033,-0.004l0.014,0.001Z" style="fill:#eae778;"/><path d="M109.892,601.498l-1.61,0.06l-1.853,0.068l-2.408,0.086l-2.856,0.102l-3.197,0.112l-3.429,0.117l-1.77,0.059l-1.787,0.059l-1.793,0.058l-1.783,0.057l-1.762,0.055l-1.727,0.052l-1.678,0.049l-1.616,0.045l-1.542,0.041l-1.452,0.036l-0.69,0.016l-0.662,0.015l-0.634,0.013l-0.604,0.011l-0.572,0.01l-0.539,0.009l-0.504,0.006l-0.469,0.005l-0.431,0.002l-0.394,0.001l-0.355,-0.001l-0.313,-0.004l-0.148,-0.003l-0.138,-0.004l-0.131,-0.004l-0.124,-0.006l-0.124,-0.008l-0.128,-0.01l-0.146,-0.015l-0.099,-0.015l0.752,-4.944l-0.011,-0.001l-0.032,-0.004l0.011,0.001l0.04,0.003l0.065,0.003l0.082,0.003l0.099,0.002l0.112,0.002l0.274,0.004l0.321,0.001l0.367,0l0.411,-0.003l0.452,-0.005l0.491,-0.006l0.527,-0.008l0.563,-0.01l0.595,-0.011l0.626,-0.013l0.656,-0.015l0.684,-0.016l1.444,-0.036l1.533,-0.04l1.61,-0.045l1.673,-0.049l1.722,-0.052l1.758,-0.055l1.78,-0.056l1.789,-0.058l1.785,-0.059l1.766,-0.059l3.427,-0.117l3.193,-0.112l2.853,-0.101l2.405,-0.087l1.851,-0.068l1.61,-0.059l0.184,4.996Z" style="fill:#eae778;"/><path d="M66.44,611.097l0.136,0.005l0.135,0.008l0.137,0.009l0.143,0.012l0.149,0.013l0.157,0.015l0.165,0.018l0.173,0.018l0.185,0.021l0.39,0.047l0.428,0.053l0.462,0.06l0.497,0.067l0.53,0.073l0.562,0.079l0.592,0.085l0.62,0.09l0.649,0.095l0.674,0.1l0.698,0.105l0.721,0.109l0.742,0.113l0.763,0.117l1.575,0.244l1.636,0.256l1.682,0.266l1.715,0.273l1.736,0.278l1.744,0.281l1.739,0.281l1.72,0.28l1.689,0.276l1.646,0.269l1.588,0.261l1.518,0.251l2.774,0.459l2.339,0.388l1.8,0.3l1.564,0.262l-0.826,4.932l-1.562,-0.262l-1.797,-0.3l-2.335,-0.388l-2.771,-0.458l-1.516,-0.25l-1.586,-0.261l-1.643,-0.269l-1.686,-0.275l-1.717,-0.279l-1.735,-0.281l-1.74,-0.28l-1.731,-0.278l-1.71,-0.272l-1.676,-0.264l-1.628,-0.255l-1.568,-0.243l-0.757,-0.117l-0.737,-0.112l-0.715,-0.108l-0.691,-0.104l-0.667,-0.099l-0.64,-0.094l-0.611,-0.088l-0.581,-0.084l-0.548,-0.077l-0.515,-0.07l-0.479,-0.065l-0.441,-0.057l-0.4,-0.05l-0.36,-0.043l-0.16,-0.018l-0.15,-0.016l-0.137,-0.015l-0.123,-0.012l-0.109,-0.009l-0.094,-0.008l-0.076,-0.005l-0.054,-0.003l-0.03,-0.001l0.004,0l0.033,-0.001l0.069,-0.004l0.024,-0.003l-0.482,-4.976l0.067,-0.007l0.118,-0.007l0.151,-0.003l0.145,0.002Z" style="fill:#eae778;"/><path d="M97.227,629.01l-0.454,4.98l-32.9,-3l0.454,-4.98l32.9,3Z" style="fill:#eae778;"/><path d="M100.653,641.601l-0.106,4.998l-37.5,-0.8l0.106,-4.998l37.5,0.8Z" style="fill:#eae778;"/><path d="M93.933,657.611l-0.466,4.978l-34.2,-3.2l0.466,-4.978l34.2,3.2Z" style="fill:#eae778;"/></g></g><g><g><path d="M1122.67,172.906l-0.334,4.988l-38.9,-2.6l0.334,-4.988l38.9,2.6Z" style="fill:#eae778;"/><path d="M1083.78,184.529l0.004,0l0.102,0.012l0.163,0.017l0.219,0.021l0.268,0.025l0.314,0.029l0.762,0.067l0.921,0.079l1.066,0.09l1.198,0.1l1.315,0.108l1.419,0.116l1.51,0.123l3.237,0.261l3.439,0.275l3.532,0.281l3.518,0.278l3.397,0.269l6.001,0.471l4.23,0.332l1.601,0.125l-0.39,4.984l-1.601,-0.125l-4.231,-0.331l-6.003,-0.472l-3.398,-0.268l-3.52,-0.279l-3.534,-0.281l-3.441,-0.275l-3.241,-0.262l-1.512,-0.122l-1.422,-0.117l-1.319,-0.108l-1.202,-0.1l-1.073,-0.091l-0.93,-0.08l-0.775,-0.068l-0.327,-0.03l-0.285,-0.027l-0.242,-0.023l-0.203,-0.021l-0.165,-0.019l-0.091,-0.012l-0.059,-0.008l0.738,-4.946l0.01,0.002Z" style="fill:#eae778;"/><path d="M1121.73,203.01l-0.452,4.98l-37.5,-3.4l0.452,-4.98l37.5,3.4Z" style="fill:#eae778;"/><path d="M1118.88,219.429l-0.758,4.942l-35.9,-5.5l0.758,-4.942l35.9,5.5Z" style="fill:#eae778;"/><path d="M1079.84,231.043l0.045,0.004l0.067,0.005l0.087,0.007l0.101,0.007l0.255,0.015l0.306,0.016l0.357,0.017l0.403,0.017l0.447,0.018l0.49,0.018l0.529,0.019l0.567,0.019l0.603,0.019l0.636,0.02l1.368,0.04l1.481,0.04l1.579,0.042l1.664,0.041l1.733,0.042l1.788,0.042l1.83,0.041l1.855,0.041l1.868,0.04l1.866,0.039l1.849,0.039l3.592,0.072l3.353,0.066l3,0.057l2.533,0.048l1.951,0.036l1.698,0.03l-0.09,5l-1.699,-0.031l-1.953,-0.036l-2.535,-0.048l-3.002,-0.057l-3.356,-0.066l-3.594,-0.072l-1.851,-0.039l-1.868,-0.039l-1.871,-0.04l-1.858,-0.041l-1.832,-0.042l-1.792,-0.041l-1.738,-0.042l-1.668,-0.042l-1.586,-0.041l-1.488,-0.041l-1.377,-0.04l-0.643,-0.02l-0.61,-0.02l-0.575,-0.019l-0.539,-0.019l-0.501,-0.019l-0.461,-0.018l-0.422,-0.018l-0.379,-0.018l-0.338,-0.018l-0.294,-0.017l-0.137,-0.01l-0.125,-0.009l-0.12,-0.01l-0.115,-0.011l-0.12,-0.013l-0.138,-0.02l-0.165,-0.03l-0.168,-0.041l-0.09,-0.028l1.506,-4.768l-0.067,-0.021l-0.139,-0.034l-0.086,-0.016l-0.031,-0.004l0.014,0.002Z" style="fill:#eae778;"/><path d="M1120.99,248.699l-1.611,0.055l-1.853,0.063l-2.408,0.08l-2.856,0.094l-3.196,0.103l-3.43,0.108l-1.769,0.055l-1.788,0.054l-1.792,0.054l-1.784,0.052l-1.762,0.05l-1.726,0.048l-1.678,0.044l-1.617,0.041l-1.541,0.037l-1.452,0.033l-0.69,0.014l-0.663,0.013l-0.633,0.012l-0.604,0.01l-0.572,0.008l-0.539,0.007l-0.504,0.006l-0.469,0.003l-0.431,0.002l-0.393,0l-0.355,-0.003l-0.314,-0.004l-0.148,-0.003l-0.137,-0.004l-0.129,-0.005l-0.125,-0.006l-0.123,-0.008l-0.128,-0.01l-0.146,-0.016l-0.098,-0.015l0.756,-4.942l-0.01,-0.002l-0.032,-0.003l0.011,0.001l0.041,0.002l0.064,0.003l0.084,0.003l0.099,0.003l0.112,0.003l0.274,0.004l0.321,0.002l0.368,0l0.411,-0.002l0.452,-0.003l0.491,-0.005l0.527,-0.007l0.563,-0.009l0.595,-0.01l0.627,-0.011l0.656,-0.013l0.683,-0.014l1.444,-0.032l1.534,-0.037l1.609,-0.041l1.673,-0.045l1.722,-0.047l1.758,-0.05l1.781,-0.052l1.789,-0.053l1.784,-0.055l1.767,-0.054l3.426,-0.108l3.193,-0.103l2.853,-0.094l2.406,-0.081l1.851,-0.062l1.609,-0.056l0.172,4.998Z" style="fill:#eae778;"/><path d="M1077.58,257.901l0.13,0.005l0.124,0.008l0.126,0.01l0.131,0.012l0.137,0.013l0.148,0.015l0.311,0.035l0.352,0.043l0.388,0.049l0.425,0.056l0.46,0.062l0.495,0.069l0.529,0.075l0.56,0.08l0.591,0.086l0.619,0.091l0.648,0.097l0.674,0.101l1.417,0.215l1.503,0.23l1.575,0.245l1.635,0.255l1.681,0.265l1.715,0.271l1.735,0.276l1.744,0.279l1.738,0.279l1.72,0.277l1.689,0.273l1.645,0.266l3.106,0.505l2.774,0.453l2.339,0.383l1.799,0.296l1.564,0.257l-0.814,4.934l-1.562,-0.258l-1.797,-0.295l-2.336,-0.383l-2.771,-0.452l-3.103,-0.504l-1.642,-0.267l-1.687,-0.272l-1.717,-0.276l-1.736,-0.279l-1.74,-0.278l-1.732,-0.276l-1.711,-0.27l-1.676,-0.264l-1.629,-0.255l-1.568,-0.243l-1.495,-0.23l-1.409,-0.213l-0.667,-0.1l-0.641,-0.096l-0.612,-0.09l-0.582,-0.084l-0.55,-0.079l-0.516,-0.073l-0.481,-0.067l-0.443,-0.06l-0.404,-0.053l-0.361,-0.046l-0.316,-0.038l-0.271,-0.031l-0.11,-0.011l-0.099,-0.01l-0.083,-0.007l-0.063,-0.005l-0.042,-0.003l-0.012,0l0.03,0l0.007,0l-0.132,-4.998l0.1,-0.003l0.146,0.003Z" style="fill:#eae778;"/><path d="M1108.53,275.51l-0.454,4.98l-32.9,-3l0.454,-4.98l32.9,3Z" style="fill:#eae778;"/><path d="M1111.95,287.901l-0.106,4.998l-37.5,-0.8l0.106,-4.998l37.5,0.8Z" style="fill:#eae778;"/><path d="M1105.23,303.611l-0.466,4.978l-34.2,-3.2l0.466,-4.978l34.2,3.2Z" style="fill:#eae778;"/></g><g><path d="M1107.97,319.006l-0.334,4.988l-38.9,-2.6l0.334,-4.988l38.9,2.6Z" style="fill:#eae778;"/><path d="M1069.08,330.629l0.003,0l0.102,0.012l0.163,0.017l0.218,0.021l0.269,0.025l0.314,0.029l0.762,0.067l0.921,0.079l1.066,0.09l1.198,0.1l1.315,0.108l1.419,0.116l1.51,0.123l3.237,0.261l3.439,0.275l3.532,0.281l3.518,0.278l3.397,0.269l6.001,0.471l4.23,0.332l1.601,0.125l-0.39,4.984l-1.601,-0.125l-4.231,-0.331l-6.003,-0.472l-3.398,-0.268l-3.52,-0.279l-3.534,-0.281l-3.441,-0.275l-3.241,-0.262l-1.512,-0.122l-1.422,-0.117l-1.319,-0.108l-1.202,-0.1l-1.073,-0.091l-0.93,-0.08l-0.775,-0.068l-0.327,-0.03l-0.284,-0.027l-0.243,-0.023l-0.203,-0.021l-0.165,-0.019l-0.091,-0.012l-0.06,-0.009l0.74,-4.944l0.01,0.001Z" style="fill:#eae778;"/><path d="M1107.03,349.11l-0.452,4.98l-37.5,-3.4l0.452,-4.98l37.5,3.4Z" style="fill:#eae778;"/><path d="M1104.18,365.53l-0.77,4.94l-35.9,-5.6l0.77,-4.94l35.9,5.6Z" style="fill:#eae778;"/><path d="M1065.14,377.143l0.045,0.004l0.068,0.005l0.086,0.007l0.1,0.007l0.256,0.015l0.306,0.016l0.357,0.017l0.403,0.017l0.447,0.018l0.49,0.018l0.529,0.019l0.567,0.019l0.603,0.019l0.636,0.02l1.368,0.04l1.481,0.04l1.579,0.042l1.664,0.041l1.733,0.042l1.788,0.042l1.83,0.041l1.855,0.041l1.868,0.04l1.866,0.039l1.849,0.039l3.591,0.072l3.354,0.066l3,0.057l2.533,0.048l1.951,0.036l1.698,0.03l-0.09,5l-1.699,-0.031l-1.953,-0.036l-2.535,-0.048l-3.002,-0.057l-3.356,-0.066l-3.594,-0.072l-1.851,-0.039l-1.868,-0.039l-1.871,-0.04l-1.858,-0.041l-1.832,-0.042l-1.792,-0.041l-1.738,-0.042l-1.668,-0.042l-1.586,-0.041l-1.488,-0.041l-1.377,-0.04l-0.643,-0.02l-0.61,-0.02l-0.575,-0.019l-0.539,-0.019l-0.501,-0.019l-0.461,-0.018l-0.422,-0.018l-0.379,-0.018l-0.338,-0.018l-0.294,-0.017l-0.137,-0.01l-0.125,-0.009l-0.119,-0.01l-0.116,-0.011l-0.12,-0.013l-0.138,-0.019l-0.167,-0.031l-0.17,-0.042l-0.091,-0.029l1.516,-4.764l-0.069,-0.022l-0.141,-0.035l-0.087,-0.016l-0.031,-0.004l0.014,0.002Z" style="fill:#eae778;"/><path d="M1106.38,394.899l-1.611,0.051l-1.853,0.058l-2.408,0.074l-2.855,0.086l-3.197,0.095l-3.43,0.099l-1.769,0.05l-1.787,0.05l-1.793,0.048l-1.783,0.048l-1.762,0.045l-1.727,0.043l-1.678,0.041l-1.616,0.037l-1.541,0.033l-1.453,0.028l-0.689,0.013l-0.663,0.011l-0.634,0.011l-0.603,0.008l-0.572,0.007l-0.539,0.006l-0.504,0.004l-0.468,0.002l-0.432,0.001l-0.393,-0.001l-0.355,-0.003l-0.313,-0.005l-0.148,-0.004l-0.137,-0.004l-0.129,-0.005l-0.124,-0.006l-0.122,-0.008l-0.128,-0.01l-0.144,-0.016l-0.096,-0.015l0.754,-4.942l-0.008,-0.002l-0.03,-0.003l0.011,0.001l0.042,0.003l0.065,0.003l0.083,0.003l0.1,0.003l0.112,0.003l0.275,0.004l0.321,0.003l0.368,0.001l0.411,-0.001l0.452,-0.002l0.491,-0.004l0.527,-0.005l0.563,-0.007l0.595,-0.009l0.627,-0.01l0.656,-0.011l0.683,-0.013l1.444,-0.028l1.534,-0.033l1.61,-0.037l1.673,-0.04l1.722,-0.043l1.758,-0.046l1.78,-0.047l1.789,-0.049l1.785,-0.049l1.767,-0.05l3.426,-0.099l3.193,-0.095l2.853,-0.086l2.406,-0.074l1.85,-0.058l1.61,-0.051l0.158,4.998Z" style="fill:#eae778;"/><path d="M1062.88,404.001l0.129,0.005l0.124,0.008l0.126,0.01l0.131,0.012l0.137,0.013l0.148,0.015l0.311,0.035l0.352,0.043l0.388,0.049l0.425,0.056l0.46,0.062l0.495,0.069l0.529,0.075l0.56,0.08l0.591,0.086l0.619,0.091l0.648,0.097l0.674,0.101l1.417,0.215l1.503,0.23l1.575,0.245l1.635,0.255l1.681,0.265l1.715,0.271l1.736,0.276l1.743,0.279l1.738,0.279l1.72,0.277l1.689,0.273l1.645,0.266l3.106,0.505l2.774,0.453l2.339,0.383l1.799,0.296l1.564,0.257l-0.813,4.934l-1.563,-0.258l-1.797,-0.295l-2.336,-0.383l-2.771,-0.452l-3.103,-0.504l-1.642,-0.266l-1.687,-0.273l-1.718,-0.277l-1.735,-0.278l-1.74,-0.278l-1.732,-0.276l-1.711,-0.271l-1.676,-0.263l-1.629,-0.255l-1.568,-0.243l-1.495,-0.23l-1.409,-0.213l-0.667,-0.1l-0.64,-0.096l-0.613,-0.09l-0.582,-0.084l-0.55,-0.079l-0.516,-0.073l-0.481,-0.067l-0.443,-0.06l-0.404,-0.053l-0.361,-0.046l-0.316,-0.038l-0.271,-0.031l-0.11,-0.011l-0.099,-0.01l-0.083,-0.007l-0.063,-0.005l-0.041,-0.003l-0.013,0l0.03,0l0.009,0l-0.136,-4.998l0.101,-0.003l0.148,0.003Z" style="fill:#eae778;"/><path d="M1093.83,421.61l-0.454,4.98l-32.9,-3l0.454,-4.98l32.9,3Z" style="fill:#eae778;"/><path d="M1097.25,434.001l-0.106,4.998l-37.5,-0.8l0.106,-4.998l37.5,0.8Z" style="fill:#eae778;"/><path d="M1090.53,449.711l-0.466,4.978l-34.2,-3.2l0.466,-4.978l34.2,3.2Z" style="fill:#eae778;"/></g><g><path d="M1094.77,465.906l-0.346,4.988l-38.9,-2.7l0.346,-4.988l38.9,2.7Z" style="fill:#eae778;"/><path d="M1055.88,477.429l0.005,0l0.101,0.012l0.163,0.017l0.219,0.021l0.268,0.025l0.315,0.029l0.761,0.067l0.921,0.079l1.066,0.09l1.198,0.1l1.315,0.108l1.419,0.116l1.51,0.123l3.237,0.261l3.439,0.275l3.532,0.281l3.518,0.278l3.397,0.269l6.001,0.471l4.23,0.332l1.601,0.125l-0.39,4.984l-1.601,-0.125l-4.231,-0.331l-6.003,-0.472l-3.398,-0.268l-3.52,-0.279l-3.534,-0.281l-3.441,-0.275l-3.241,-0.262l-1.512,-0.122l-1.422,-0.117l-1.319,-0.108l-1.202,-0.1l-1.073,-0.091l-0.93,-0.08l-0.775,-0.068l-0.327,-0.03l-0.285,-0.027l-0.242,-0.023l-0.203,-0.021l-0.165,-0.019l-0.09,-0.011l-0.059,-0.009l0.736,-4.946l0.011,0.002Z" style="fill:#eae778;"/><path d="M1093.83,496.01l-0.452,4.98l-37.5,-3.4l0.452,-4.98l37.5,3.4Z" style="fill:#eae778;"/><path d="M1090.99,512.43l-0.77,4.94l-35.9,-5.6l0.77,-4.94l35.9,5.6Z" style="fill:#eae778;"/><path d="M1051.94,524.042l0.045,0.004l0.067,0.005l0.087,0.007l0.1,0.006l0.255,0.015l0.307,0.015l0.356,0.016l0.403,0.017l0.447,0.016l0.49,0.018l0.529,0.017l0.567,0.018l0.603,0.017l0.636,0.018l1.368,0.037l1.481,0.037l1.579,0.037l1.664,0.038l1.733,0.037l1.788,0.037l1.829,0.037l1.856,0.036l1.868,0.036l1.866,0.035l1.849,0.033l3.591,0.064l3.353,0.057l3.001,0.05l2.533,0.041l1.95,0.031l1.699,0.026l-0.078,5l-1.699,-0.027l-1.953,-0.031l-2.534,-0.041l-3.003,-0.05l-3.356,-0.057l-3.594,-0.064l-1.851,-0.033l-1.868,-0.035l-1.87,-0.036l-1.859,-0.036l-1.832,-0.037l-1.792,-0.037l-1.738,-0.037l-1.668,-0.038l-1.586,-0.037l-1.488,-0.038l-1.377,-0.036l-0.643,-0.019l-0.61,-0.018l-0.575,-0.018l-0.539,-0.017l-0.501,-0.018l-0.461,-0.017l-0.422,-0.017l-0.38,-0.017l-0.338,-0.017l-0.293,-0.017l-0.138,-0.009l-0.125,-0.009l-0.119,-0.01l-0.116,-0.011l-0.12,-0.013l-0.139,-0.019l-0.165,-0.03l-0.17,-0.041l-0.093,-0.029l1.508,-4.768l-0.07,-0.022l-0.141,-0.034l-0.086,-0.015l-0.032,-0.005l0.014,0.002Z" style="fill:#eae778;"/><path d="M1093.18,541.799l-1.611,0.051l-1.853,0.058l-2.407,0.074l-2.856,0.086l-3.197,0.095l-3.43,0.099l-1.769,0.05l-1.787,0.05l-1.793,0.048l-1.783,0.048l-1.762,0.045l-1.727,0.043l-1.678,0.041l-1.616,0.037l-1.541,0.033l-1.453,0.029l-0.69,0.012l-0.662,0.011l-0.633,0.01l-0.604,0.009l-0.572,0.007l-0.539,0.006l-0.504,0.004l-0.468,0.002l-0.431,0.001l-0.394,-0.001l-0.355,-0.003l-0.313,-0.005l-0.148,-0.004l-0.137,-0.004l-0.129,-0.005l-0.123,-0.006l-0.124,-0.008l-0.127,-0.01l-0.143,-0.016l-0.096,-0.014l0.753,-4.943l-0.009,-0.002l-0.029,-0.003l0.012,0.001l0.041,0.003l0.065,0.003l0.084,0.003l0.099,0.003l0.112,0.003l0.275,0.004l0.321,0.003l0.368,0.001l0.411,-0.001l0.452,-0.002l0.491,-0.004l0.527,-0.005l0.563,-0.007l0.595,-0.009l0.627,-0.01l0.656,-0.011l0.683,-0.013l1.444,-0.028l1.534,-0.033l1.61,-0.037l1.673,-0.04l1.722,-0.043l1.758,-0.046l1.78,-0.047l1.789,-0.049l1.785,-0.049l1.767,-0.05l3.426,-0.099l3.193,-0.095l2.853,-0.086l2.406,-0.074l1.85,-0.058l1.61,-0.051l0.158,4.998Z" style="fill:#eae778;"/><path d="M1049.74,550.897l0.136,0.005l0.134,0.008l0.137,0.009l0.143,0.012l0.149,0.013l0.157,0.015l0.165,0.018l0.173,0.018l0.185,0.021l0.39,0.047l0.427,0.053l0.463,0.06l0.497,0.067l0.53,0.073l0.562,0.079l0.592,0.085l0.62,0.09l0.649,0.095l0.674,0.1l0.698,0.105l0.721,0.109l0.742,0.113l0.763,0.117l1.575,0.244l1.636,0.256l1.682,0.266l1.715,0.273l1.736,0.278l1.744,0.281l1.739,0.281l1.72,0.28l1.689,0.276l1.646,0.269l1.588,0.261l1.518,0.251l2.775,0.459l2.338,0.388l1.8,0.3l1.564,0.262l-0.826,4.932l-1.562,-0.262l-1.797,-0.3l-2.335,-0.388l-2.771,-0.458l-1.516,-0.25l-1.586,-0.26l-1.643,-0.27l-1.686,-0.275l-1.717,-0.279l-1.735,-0.281l-1.74,-0.28l-1.731,-0.278l-1.71,-0.272l-1.676,-0.264l-1.628,-0.255l-1.568,-0.243l-0.757,-0.117l-0.737,-0.112l-0.715,-0.108l-0.691,-0.104l-0.667,-0.099l-0.64,-0.094l-0.611,-0.088l-0.581,-0.084l-0.548,-0.077l-0.515,-0.07l-0.479,-0.065l-0.441,-0.057l-0.4,-0.05l-0.36,-0.043l-0.16,-0.018l-0.149,-0.016l-0.138,-0.015l-0.123,-0.012l-0.109,-0.009l-0.093,-0.008l-0.076,-0.005l-0.056,-0.003l-0.029,-0.002l0.004,0.001l0.033,-0.001l0.069,-0.004l0.024,-0.003l-0.482,-4.976l0.067,-0.007l0.118,-0.007l0.151,-0.003l0.146,0.002Z" style="fill:#eae778;"/><path d="M1080.63,568.51l-0.454,4.98l-32.9,-3l0.454,-4.98l32.9,3Z" style="fill:#eae778;"/><path d="M1084.05,580.901l-0.106,4.998l-37.5,-0.8l0.106,-4.998l37.5,0.8Z" style="fill:#eae778;"/><path d="M1077.33,596.611l-0.468,4.978l-34.1,-3.2l0.468,-4.978l34.1,3.2Z" style="fill:#eae778;"/></g><g><path d="M1078.37,611.906l-0.334,4.988l-38.8,-2.6l0.334,-4.988l38.8,2.6Z" style="fill:#eae778;"/><path d="M1039.48,623.429l0.004,0.001l0.101,0.011l0.163,0.017l0.218,0.021l0.269,0.025l0.315,0.029l0.761,0.067l0.921,0.079l1.066,0.09l1.198,0.1l1.315,0.108l1.419,0.116l1.51,0.123l3.237,0.261l3.439,0.275l3.532,0.281l3.518,0.278l3.397,0.269l6.001,0.471l4.23,0.332l1.601,0.125l-0.39,4.984l-1.601,-0.125l-4.231,-0.331l-6.003,-0.472l-3.398,-0.268l-3.52,-0.279l-3.534,-0.281l-3.441,-0.275l-3.241,-0.262l-1.512,-0.122l-1.422,-0.117l-1.319,-0.108l-1.202,-0.1l-1.073,-0.091l-0.93,-0.08l-0.775,-0.068l-0.327,-0.03l-0.285,-0.027l-0.242,-0.023l-0.202,-0.021l-0.166,-0.019l-0.091,-0.012l-0.058,-0.008l0.736,-4.946l0.012,0.002Z" style="fill:#eae778;"/><path d="M1077.43,642.01l-0.452,4.98l-37.5,-3.4l0.452,-4.98l37.5,3.4Z" style="fill:#eae778;"/><path d="M1074.68,658.43l-0.77,4.94l-35.9,-5.6l0.77,-4.94l35.9,5.6Z" style="fill:#eae778;"/><path d="M1035.54,670.043l0.046,0.004l0.067,0.006l0.086,0.006l0.1,0.007l0.256,0.015l0.306,0.016l0.357,0.017l0.403,0.017l0.447,0.018l0.49,0.018l0.529,0.019l0.567,0.019l0.603,0.019l0.636,0.02l1.368,0.04l1.481,0.04l1.579,0.042l1.664,0.041l1.733,0.042l1.788,0.042l1.83,0.041l1.855,0.041l1.868,0.04l1.866,0.039l1.849,0.039l3.591,0.072l3.354,0.066l3,0.057l2.533,0.048l1.951,0.036l1.698,0.03l-0.09,5l-1.699,-0.031l-1.953,-0.036l-2.535,-0.048l-3.002,-0.057l-3.356,-0.066l-3.594,-0.072l-1.851,-0.039l-1.868,-0.039l-1.871,-0.04l-1.858,-0.041l-1.832,-0.042l-1.792,-0.041l-1.738,-0.042l-1.668,-0.042l-1.586,-0.041l-1.488,-0.041l-1.377,-0.04l-0.643,-0.02l-0.61,-0.02l-0.575,-0.019l-0.539,-0.019l-0.501,-0.019l-0.461,-0.018l-0.421,-0.018l-0.38,-0.018l-0.339,-0.018l-0.292,-0.017l-0.138,-0.01l-0.126,-0.009l-0.119,-0.01l-0.115,-0.011l-0.119,-0.013l-0.138,-0.019l-0.168,-0.031l-0.168,-0.041l-0.089,-0.028l1.508,-4.768l-0.067,-0.021l-0.139,-0.034l-0.088,-0.016l-0.031,-0.004l0.015,0.002Z" style="fill:#eae778;"/><path d="M1076.78,687.799l-1.611,0.051l-1.853,0.058l-2.407,0.074l-2.856,0.086l-3.197,0.095l-3.43,0.099l-1.769,0.05l-1.787,0.05l-1.793,0.048l-1.783,0.048l-1.762,0.045l-1.727,0.043l-1.678,0.041l-1.616,0.037l-1.541,0.033l-1.453,0.028l-0.689,0.013l-0.663,0.011l-0.634,0.01l-0.603,0.009l-0.572,0.007l-0.539,0.006l-0.504,0.004l-0.468,0.002l-0.432,0.001l-0.393,-0.001l-0.355,-0.003l-0.313,-0.005l-0.147,-0.004l-0.137,-0.004l-0.13,-0.005l-0.124,-0.006l-0.123,-0.008l-0.126,-0.01l-0.146,-0.016l-0.098,-0.015l0.76,-4.942l-0.01,-0.002l-0.032,-0.003l0.013,0.001l0.042,0.003l0.064,0.003l0.083,0.003l0.1,0.003l0.112,0.003l0.275,0.004l0.321,0.003l0.368,0.001l0.411,-0.001l0.452,-0.002l0.491,-0.004l0.527,-0.005l0.563,-0.007l0.595,-0.009l0.627,-0.01l0.656,-0.011l0.683,-0.013l1.444,-0.028l1.534,-0.033l1.61,-0.037l1.673,-0.04l1.722,-0.043l1.758,-0.046l1.78,-0.047l1.789,-0.049l1.785,-0.049l1.767,-0.05l3.426,-0.099l3.193,-0.095l2.853,-0.086l2.406,-0.074l1.85,-0.058l1.61,-0.051l0.158,4.998Z" style="fill:#eae778;"/><path d="M1033.38,696.901l0.13,0.005l0.124,0.008l0.127,0.01l0.13,0.012l0.137,0.013l0.148,0.015l0.311,0.035l0.352,0.043l0.388,0.049l0.425,0.056l0.46,0.062l0.495,0.069l0.529,0.075l0.56,0.08l0.591,0.086l0.619,0.091l0.648,0.097l0.674,0.101l1.417,0.215l1.503,0.23l1.575,0.245l1.635,0.255l1.681,0.265l1.715,0.271l1.736,0.276l1.743,0.279l1.738,0.279l1.72,0.277l1.689,0.273l1.645,0.266l3.106,0.505l2.774,0.453l2.339,0.383l1.799,0.296l1.564,0.257l-0.814,4.934l-1.562,-0.258l-1.797,-0.295l-2.336,-0.383l-2.771,-0.452l-3.103,-0.504l-1.642,-0.267l-1.687,-0.272l-1.718,-0.276l-1.735,-0.279l-1.74,-0.278l-1.732,-0.276l-1.711,-0.271l-1.676,-0.263l-1.629,-0.255l-1.568,-0.243l-1.495,-0.23l-1.409,-0.213l-0.667,-0.1l-0.64,-0.096l-0.613,-0.09l-0.582,-0.084l-0.55,-0.079l-0.516,-0.073l-0.481,-0.067l-0.443,-0.06l-0.404,-0.053l-0.361,-0.046l-0.316,-0.038l-0.271,-0.031l-0.11,-0.011l-0.099,-0.01l-0.083,-0.007l-0.063,-0.005l-0.041,-0.003l-0.013,0l0.029,0l0.006,0l-0.128,-4.998l0.098,-0.003l0.146,0.003Z" style="fill:#eae778;"/><path d="M1064.23,714.51l-0.456,4.98l-32.8,-3l0.456,-4.98l32.8,3Z" style="fill:#eae778;"/><path d="M1067.75,726.901l-0.106,4.998l-37.5,-0.8l0.106,-4.998l37.5,0.8Z" style="fill:#eae778;"/><path d="M1061.03,742.611l-0.466,4.978l-34.2,-3.2l0.466,-4.978l34.2,3.2Z" style="fill:#eae778;"/></g></g><path d="M153.6,72.2c0,0 926.9,94.8 936.4,94.2l-50.4,582.5l-950.3,-80.8l64.3,-595.9Z" style="fill:#d0edef;fill-rule:nonzero;"/><circle cx="225.4" cy="160.2" r="20.6" style="fill:#fff;"/><circle cx="569.5" cy="332.6" r="20.6" style="fill:#fff;"/><circle cx="701.6" cy="192.9" r="20.6" style="fill:#fff;"/><circle cx="909.1" cy="318" r="20.6" style="fill:#fff;"/><circle cx="1031.2" cy="213.5" r="20.6" style="fill:#fff;"/><circle cx="1006" cy="464.8" r="20.6" style="fill:#fff;"/><circle cx="937.3" cy="660.1" r="20.6" style="fill:#fff;"/><circle cx="599.3" cy="655.1" r="20.6" style="fill:#fff;"/><circle cx="445" cy="538.7" r="20.6" style="fill:#fff;"/><circle cx="302.9" cy="641.1" r="20.6" style="fill:#fff;"/><circle cx="171.7" cy="447.4" r="20.6" style="fill:#fff;"/></g><g><g><path d="M591.6,456.6c3,-15.4 9.5,-35.6 19.1,-49.8c30.8,-45.8 70.3,-60.1 122.5,-66.5c100.5,-12.6 189.9,78.7 168.8,181.8c-13.6,66.5 -55.7,107.8 -108.7,121.2c-46.7,12.7 -102.5,8.7 -153.1,-29.3c-46.1,-34.5 -55.3,-80.6 -48.6,-157.4" style="fill:#fff;fill-rule:nonzero;"/><path d="M594,457.3c3.6,-17.7 9.4,-35.6 19.7,-50.5c9.3,-13.6 20.7,-25.9 34.2,-35.5c25.7,-18.2 57.2,-25.4 88.1,-28.7c61.8,-6.6 122.5,27.6 150.6,82.8c29.3,57.4 16.4,132.5 -28.6,178.4c-46.3,47.3 -124.5,55.4 -183.2,28.3c-28.1,-13 -54.5,-33.1 -68.6,-61.2c-13.2,-26.6 -14.9,-57.3 -13.9,-86.5c0.3,-9.2 0.9,-18.4 1.7,-27.6c0.3,-3.2 -4.7,-3.2 -5,0c-2.9,33.1 -4.4,68.2 6.1,100.2c9.2,28 28.4,49.6 52.7,65.7c32.3,21.5 70.9,32 109.6,29.3c31.4,-2.2 62.9,-11.7 88.1,-30.8c52.2,-39.5 74.9,-115.2 54.2,-177.1c-20.1,-60 -77.1,-104 -140.5,-107.2c-16.9,-0.8 -34,1.5 -50.5,4.7c-15.5,3 -30.8,7.5 -45,14.4c-30.3,14.7 -55.1,41.5 -67,73.1c-3.3,8.7 -5.8,17.7 -7.7,26.9c-0.5,3.1 4.4,4.4 5,1.3Z" style="fill:#1d1d1b;fill-rule:nonzero;"/></g><path d="M741.4,396.9c49.5,-5.9 97.1,28.1 107.3,77.1c5.3,25.7 -1,53.8 -15,75.9c-13.1,20.5 -33.2,33.9 -56.7,39.7c-33.2,8.2 -67.3,0.8 -94.7,-19.5c-2.6,-1.9 -5.1,2.4 -2.5,4.3c25.5,18.8 56.6,26.9 87.9,22.1c25.3,-3.9 48.5,-15.6 64.5,-35.9c16.7,-21.3 25.5,-50.3 22.9,-77.3c-2.5,-25.2 -14.7,-48.8 -33.5,-65.7c-21.8,-19.5 -51,-29.1 -80.1,-25.7c-3.2,0.3 -3.2,5.3 -0.1,5Z" style="fill:#1d1d1b;fill-rule:nonzero;"/></g><g><g><path d="M448.9,61c-1.9,10.7 -6.5,102.1 -4.9,140.5c17.6,5.8 75.1,15.3 84.4,15.4c6.2,-11.2 34.5,-103.4 41.1,-141c-21.3,7.7 -42.1,5.8 -59.7,3.4c-18,-2.5 -43.8,-7.1 -60.9,-18.3c21.4,-16.4 46.5,-10.9 61.1,-9.5c16.4,1.6 50.3,9.7 59.5,24.4" style="fill:#fff;fill-rule:nonzero;"/><path d="M452.717,59.658c0,0 48.646,-1.201 54.171,-0.84c5.525,0.36 31.949,8.768 34.352,9.609c2.402,0.84 24.382,4.804 24.382,4.804l0.841,3.243c0,0 -4.324,7.807 -8.047,7.687c-3.724,-0.12 -44.562,3.604 -48.285,3.003c-3.724,-0.601 -9.129,0.841 -18.978,-3.964c-9.849,-4.804 -23.782,-10.449 -26.064,-12.011c-2.282,-1.561 -9.009,-5.765 -9.009,-5.765l-3.603,-3.483l0.24,-2.283l100.894,5.165" style="fill:#fff;"/><path d="M446.5,60.4c-2.3,13.4 -2.3,27.5 -3,41.1c-1.1,22.5 -2,45.1 -2.3,67.7c-0.1,10.8 -0.2,21.6 0.2,32.4c0,1.1 0.8,2.1 1.8,2.4c14.8,4.8 30.6,7.3 45.9,9.9c12.8,2.2 26.1,5.3 39.2,5.5c0.9,0 1.8,-0.5 2.2,-1.2c2.5,-4.6 4.1,-9.8 5.9,-14.8c3.2,-9 6.1,-18.1 8.9,-27.2c7,-22.4 13.5,-44.9 19.3,-67.6c2.7,-10.6 5.3,-21.2 7.2,-32c0.3,-1.7 -1.1,-3.8 -3.1,-3.1c-21.2,7.4 -43.1,5.8 -64.9,2.4c-18.4,-2.9 -37.8,-6.9 -53.7,-17.1c0,1.4 0,2.9 0,4.3c19.1,-14.1 42.3,-11.8 64.5,-8.6c9.6,1.4 19.2,3.8 28.4,7.1c8.7,3.1 19,7.5 24.3,15.5c1.8,2.7 6.1,0.2 4.3,-2.5c-5.4,-8.2 -14.8,-12.9 -23.6,-16.4c-10.3,-4.1 -21.1,-6.9 -32.1,-8.5c-23.4,-3.5 -48.2,-5.9 -68.3,9.1c-1.5,1.1 -1.7,3.2 0,4.3c16.8,10.7 37,14.9 56.4,17.9c22.2,3.4 44.6,5 66.2,-2.6c-1,-1 -2.1,-2.1 -3.1,-3.1c-3.6,20.3 -9.2,40.3 -14.8,60.2c-5.9,20.9 -12.1,41.7 -19.1,62.2c-2,6 -3.9,12.4 -6.9,18c0.7,-0.4 1.4,-0.8 2.2,-1.2c-13,-0.3 -26.3,-3.3 -39.1,-5.6c-14.9,-2.6 -30.3,-5 -44.7,-9.7c0.6,0.8 1.2,1.6 1.8,2.4c-1.6,-40.6 0.7,-81.7 3.3,-122.2c0.4,-5.9 0.5,-11.9 1.5,-17.7c0.6,-3.2 -4.2,-4.5 -4.8,-1.3Z" style="fill:#1d1d1b;fill-rule:nonzero;"/></g><path d="M534.8,107.5c-7.2,26.3 -11.7,53.3 -19.1,79.6c-0.9,3.1 4,4.4 4.8,1.3c7.4,-26.3 11.9,-53.3 19.1,-79.6c0.9,-3.1 -3.9,-4.4 -4.8,-1.3Z" style="fill:#1d1d1b;fill-rule:nonzero;"/><path d="M502.3,101.9c-4.9,27.1 -9,54.4 -12.9,81.7c-0.4,3.1 4.4,4.5 4.8,1.3c3.8,-27.3 8,-54.6 12.9,-81.7c0.6,-3.1 -4.2,-4.5 -4.8,-1.3Z" style="fill:#1d1d1b;fill-rule:nonzero;"/><path d="M468.1,98.6c-0.4,26.3 -3.6,52.6 -3.3,79c0,3.2 5,3.2 5,0c-0.3,-26.3 2.9,-52.6 3.3,-79c0,-3.2 -5,-3.2 -5,0Z" style="fill:#1d1d1b;fill-rule:nonzero;"/></g><path d="M798.7,102.7c15.4,13.3 196.5,194.5 231.5,234.9c-4.1,4.1 -7.3,6 -10.3,8.9c-5.4,-5.1 -93.1,-98.3 -101.4,-105c-8.8,2 -15.9,2.7 -22.2,4.4c-1.5,-3.5 -4.6,-10.5 -7.1,-14.6c-5.6,0.2 -12.3,2.6 -17.1,3.8c0.1,-6.5 -3.7,-12.2 -4.9,-18.2c-5.5,-0.9 -10.6,0.6 -16.5,0c-1.8,-7.2 -0.5,-12.7 -1.7,-18.3c-6.5,-0.4 -14.5,-2.4 -26.1,-4.4c-0.1,-7.6 -1.1,-14.5 -1.4,-21.1c-4.6,-0.8 -11.1,-0.4 -17.2,-1c0.7,-4.6 0.4,-13.5 0.6,-18.2c-4.2,-0.8 -9.1,-3.7 -14.2,-5.3c3.6,-5.6 5.5,-8 7.9,-12.8c-3.3,-3.1 -4.6,-4.1 -10.5,-11.2c6.5,-3.9 7,-4.2 11,-7.2c0.3,-4.4 0,-9.8 -0.4,-14.7" style="fill:#1d1d1b;fill-rule:nonzero;"/><g><path d="M207.7,592.5c-24.3,-9.4 -22.9,-44.1 -13.2,-57.7c8.5,-11.4 17.7,-18.5 31.7,-17.9c6.3,0.2 21.7,4.3 26.8,14.5c12.9,22.7 4.5,50.1 -9.3,59.2c-6.6,4.3 -15.7,6.8 -22.6,5.9c-3.2,11.2 -31.1,101.8 -36.1,116.1c-4.2,-1.6 -7.6,-2.7 -13.4,-4.8c4,-11.4 31.1,-100.4 36.1,-115.3" style="fill:#1d1d1b;fill-rule:nonzero;"/><path d="M226.1,535c-10.2,-3.5 -19,4.5 -22.7,13.5c-4.3,10.6 0.8,20.9 10,26.7c2.7,1.7 5.3,-2.6 2.5,-4.3c-6.9,-4.3 -11.1,-11.8 -8.2,-19.9c2.5,-7 9.1,-13.9 17,-11.2c3.1,1.1 4.4,-3.7 1.4,-4.8Z" style="fill:#fff;fill-rule:nonzero;"/></g><g><path d="M241.6,308.8c1.9,0.6 46.8,8.9 46.8,8.9l71.4,2.6l76.9,-12.6l57.2,-21.3l-60.1,-12.9l-90.3,2.8l-66.5,12.8l-35.4,19.7Z" style="fill:#fff;fill-rule:nonzero;stroke:#1d1d1b;stroke-width:1px;"/><g><path d="M241.6,308.8c5.2,22.8 13.7,60.5 27.6,83.1c15.8,25.8 35.6,49.7 56.1,64.2c-3.4,6.8 -3.6,9.2 -7.2,16.1c41.2,2.7 93.2,-4 141,-12.1c-5.5,-6.5 -8.3,-11.4 -11.5,-15.6c5.2,-4.6 27.2,-58.5 31.7,-74.9c10,-36.1 15.5,-49.3 14.5,-83.2c-20.6,9.7 -66.6,27.7 -116.6,32.6c-56.5,5.7 -97.9,-1.4 -135.6,-10.2c43.4,-27.3 89.3,-30.7 140.2,-37.1c9.7,-1.4 69.3,-0.6 112,14.8" style="fill:#fff;fill-rule:nonzero;"/><path d="M239.2,309.5c6,26.4 11.9,53.8 24.6,77.9c7.2,13.8 16.8,26.7 26.6,38.7c9.9,12.1 21,23.2 33.7,32.3c-0.3,-1.1 -0.6,-2.3 -0.9,-3.4c-2.6,5.3 -4.5,10.8 -7.2,16.1c-0.9,1.7 0.2,3.6 2.2,3.8c47.3,2.9 95.1,-4.3 141.6,-12.2c2,-0.3 2.2,-2.9 1.1,-4.2c-4,-4.8 -7.3,-10.1 -11.1,-15.1c-0.1,1 -0.3,2 -0.4,3c4.4,-4.3 6.9,-11.7 9.3,-17.1c4.5,-9.8 8.6,-19.8 12.6,-29.8c8.6,-21.8 15.6,-44.2 20.9,-67c3.5,-15.1 4.6,-30.4 4.2,-45.9c-0.1,-2 -2.1,-3 -3.8,-2.2c-61.8,29 -131.6,39.9 -199.4,31.5c-17.2,-2.1 -34.1,-5.6 -51,-9.5c0.2,1.5 0.4,3 0.6,4.6c33.8,-21.1 72.4,-28.5 111.4,-33.4c12.9,-1.6 25.8,-3.8 38.8,-3.9c13.9,0 27.8,0.9 41.7,2.5c19.8,2.3 39.7,6 58.5,12.7c3,1.1 4.3,-3.8 1.3,-4.8c-31,-11 -65.1,-14.9 -97.8,-15.3c-12.6,-0.2 -24.9,1.7 -37.4,3.2c-19.3,2.4 -38.6,4.9 -57.5,9.5c-21.7,5.2 -42.5,13.4 -61.5,25.2c-1.7,1.1 -1.6,4.1 0.6,4.6c32,7.5 64.5,12.4 97.4,12.4c39.1,0 77.7,-6.3 114.9,-18.5c14.3,-4.7 28.3,-10.1 41.9,-16.4c-1.3,-0.7 -2.5,-1.4 -3.8,-2.2c0.3,13.5 -0.3,26.9 -3.1,40.1c-2.9,14 -7.3,27.7 -11.1,41.5c-5.2,18.6 -13,36.7 -20.8,54.3c-2,4.5 -4,9 -6.3,13.3c-1.2,2.3 -2.4,5.2 -4.3,7.1c-0.7,0.7 -1,2.2 -0.4,3c4,5.4 7.6,11 11.9,16.1c0.4,-1.4 0.7,-2.8 1.1,-4.2c-46.1,7.8 -93.4,14.9 -140.3,12c0.7,1.3 1.4,2.5 2.2,3.8c2.7,-5.2 4.6,-10.8 7.2,-16.1c0.6,-1.3 0.3,-2.6 -0.9,-3.4c-12.3,-8.9 -23.1,-19.8 -32.7,-31.5c-9.9,-12 -19.4,-25 -26.5,-38.9c-11.9,-23.5 -17.6,-49.9 -23.4,-75.4c-0.6,-3.3 -5.4,-2 -4.7,1.2Z" style="fill:#1d1d1b;fill-rule:nonzero;"/></g><path d="M269.3,337.8c0.9,5.9 2.1,11.6 4.2,17.2c1.1,3 5.9,1.7 4.8,-1.3c-2.1,-5.6 -3.3,-11.3 -4.2,-17.2c-0.4,-3.2 -5.2,-1.9 -4.8,1.3Z" style="fill:#1d1d1b;fill-rule:nonzero;"/><path d="M300.5,337.3c0.9,5.9 1.7,11.8 2.6,17.6c0.5,3.2 5.3,1.8 4.8,-1.3c-0.9,-5.9 -1.7,-11.8 -2.6,-17.6c-0.4,-3.2 -5.2,-1.9 -4.8,1.3Z" style="fill:#1d1d1b;fill-rule:nonzero;"/><path d="M336.5,338.3c0.8,6 0.8,11.9 1,17.9c0.1,3.2 5.1,3.2 5,0c-0.2,-6 -0.2,-11.9 -1,-17.9c-0.4,-3.1 -5.4,-3.2 -5,0Z" style="fill:#1d1d1b;fill-rule:nonzero;"/><path d="M372.9,336.6c0.8,5.4 1.6,10.8 2.4,16.2c0.5,3.2 5.3,1.8 4.8,-1.3c-0.8,-5.4 -1.6,-10.8 -2.4,-16.2c-0.5,-3.2 -5.3,-1.9 -4.8,1.3Z" style="fill:#1d1d1b;fill-rule:nonzero;"/><path d="M409.4,332.2c0.7,4.9 1.7,9.7 2.2,14.6c0.3,3.2 5.3,3.2 5,0c-0.5,-5.4 -1.5,-10.6 -2.3,-16c-0.6,-3.1 -5.4,-1.8 -4.9,1.4Z" style="fill:#1d1d1b;fill-rule:nonzero;"/><path d="M441.2,324.7c0.8,5.5 1.5,10.9 1.1,16.4c-0.2,3.2 4.8,3.2 5,0c0.4,-6 -0.4,-11.9 -1.3,-17.8c-0.4,-3.1 -5.2,-1.7 -4.8,1.4Z" style="fill:#1d1d1b;fill-rule:nonzero;"/><path d="M472.5,315.1c0.5,5.6 0.1,10.9 -0.8,16.5c-0.5,3.1 4.3,4.5 4.8,1.3c0.9,-6 1.5,-11.8 1,-17.8c-0.3,-3.2 -5.3,-3.2 -5,0Z" style="fill:#1d1d1b;fill-rule:nonzero;"/></g><g><path d="M1162.33,735.006c2.779,-1.588 6.68,0.002 8.706,3.549c2.026,3.546 1.414,7.714 -1.365,9.302c-2.78,1.587 -6.681,-0.003 -8.707,-3.549c-2.026,-3.546 -1.414,-7.714 1.366,-9.302Z" style="fill:#1d1d1b;"/><path d="M1171.14,750.296c2.779,-1.588 6.681,0.001 8.708,3.547c2.026,3.546 1.415,7.714 -1.364,9.303c-2.779,1.588 -6.681,-0.001 -8.708,-3.547c-2.026,-3.546 -1.415,-7.714 1.364,-9.303Z" style="fill:#1d1d1b;"/><path d="M1168.93,746.337c1.389,-0.794 3.34,0.001 4.353,1.774c1.013,1.773 0.708,3.858 -0.682,4.652c-1.39,0.794 -3.341,-0.001 -4.354,-1.774c-1.013,-1.774 -0.707,-3.858 0.683,-4.652Z" style="fill:#1d1d1b;"/><path d="M1164.58,727.216c0.623,-0.356 1.507,0.016 1.972,0.831c0.466,0.815 0.337,1.765 -0.286,2.121c-0.623,0.356 -1.506,-0.017 -1.972,-0.831c-0.465,-0.815 -0.337,-1.766 0.286,-2.121Z" style="fill:#1d1d1b;"/><path d="M1154.58,732.914c0.623,-0.356 1.507,0.017 1.973,0.831c0.465,0.815 0.337,1.765 -0.286,2.121c-0.623,0.356 -1.506,-0.016 -1.972,-0.831c-0.465,-0.815 -0.338,-1.765 0.285,-2.121Z" style="fill:#1d1d1b;"/><path d="M1155.4,734.4l5.6,4" style="fill:none;stroke:#1d1d1b;stroke-width:1px;"/><path d="M1165.8,729.3l0.4,6.6" style="fill:none;stroke:#1d1d1b;stroke-width:1px;"/><path d="M1157.9,754.5l1.9,-6.6l7.1,-2.6" style="fill:none;stroke:#1d1d1b;stroke-width:1px;"/><path d="M1160.4,759l2.2,-7.2l6.7,-2.3" style="fill:none;stroke:#1d1d1b;stroke-width:1px;"/><path d="M1163.7,761.9l1.6,-6.8l5.2,0" style="fill:none;stroke:#1d1d1b;stroke-width:1px;"/><path d="M1180.5,739.7l-6.5,-0.9l-5.7,4.2" style="fill:none;stroke:#1d1d1b;stroke-width:1px;"/><path d="M1182.1,745.5l-6.1,-1.3l-4.9,3.6" style="fill:none;stroke:#1d1d1b;stroke-width:1px;"/><path d="M1185.1,750.9l-7.2,-1.9l-1.9,4.1" style="fill:none;stroke:#1d1d1b;stroke-width:1px;"/></g></svg>