<?xml version="1.0" encoding="utf-8"?>
<!-- Generator: Adobe Illustrator 19.2.0, SVG Export Plug-In . SVG Version: 6.00 Build 0)  -->
<svg version="1.1" id="repas1" xmlns="http://www.w3.org/2000/svg" xmlns:xlink="http://www.w3.org/1999/xlink" x="0px" y="0px"
	 viewBox="0 0 1200 800" style="enable-background:new 0 0 1200 800;" xml:space="preserve">
<style type="text/css">
	.st0{fill:none;stroke:#EAE778;stroke-width:5;stroke-miterlimit:10;}
	.st1{fill:#D0EDEF;}
	.st2{fill:#FFFFFF;}
	.st3{fill:#1D1D1B;}
	.st4{fill:#FFFFFF;stroke:#1D1D1B;stroke-miterlimit:10;}
	.st5{fill:none;stroke:#1D1D1B;stroke-miterlimit:10;}
</style>
<g>
	<g>
		<g>
			<line class="st0" x1="118.2" y1="76.8" x2="157.1" y2="79.3"/>
			<path class="st0" d="M117.9,91.2c1.2,0.2,38.4,3,38.4,3"/>
			<line class="st0" x1="118.5" y1="106.7" x2="156" y2="110"/>
			<line class="st0" x1="117.1" y1="121.2" x2="153" y2="126.7"/>
			<path class="st0" d="M113.8,138.7c0.8,0.3,40.3,0.9,40.3,0.9"/>
			<path class="st0" d="M116.3,152.6c1.6,0.3,39-1.1,39-1.1"/>
			<path class="st0" d="M111.7,166.1c1.7-0.2,38,5.9,38,5.9"/>
			<line class="st0" x1="109.7" y1="181" x2="142.5" y2="184"/>
			<line class="st0" x1="108.7" y1="195.8" x2="146.2" y2="196.6"/>
			<line class="st0" x1="105" y1="209.5" x2="139.2" y2="212.6"/>
		</g>
		<g>
			<line class="st0" x1="103.1" y1="225.7" x2="141.9" y2="228.3"/>
			<path class="st0" d="M102.8,240.2c1.2,0.2,38.4,3,38.4,3"/>
			<line class="st0" x1="103.3" y1="255.6" x2="140.8" y2="258.9"/>
			<line class="st0" x1="101.9" y1="270.1" x2="137.8" y2="275.7"/>
			<path class="st0" d="M98.6,287.6c0.8,0.3,40.3,0.8,40.3,0.8"/>
			<path class="st0" d="M101.2,301.6c1.6,0.3,39-1.1,39-1.1"/>
			<path class="st0" d="M96.6,315c1.7-0.2,38,5.9,38,5.9"/>
			<line class="st0" x1="94.6" y1="329.9" x2="127.4" y2="332.9"/>
			<line class="st0" x1="93.5" y1="344.8" x2="131" y2="345.5"/>
			<line class="st0" x1="89.9" y1="358.4" x2="124.1" y2="361.6"/>
		</g>
		<g>
			<line class="st0" x1="89.4" y1="375.4" x2="128.3" y2="378"/>
			<path class="st0" d="M89.2,389.9c1.2,0.2,38.4,3,38.4,3"/>
			<line class="st0" x1="89.7" y1="405.4" x2="127.2" y2="408.7"/>
			<line class="st0" x1="88.3" y1="419.8" x2="124.2" y2="425.4"/>
			<path class="st0" d="M85,437.3c0.8,0.3,40.3,0.8,40.3,0.8"/>
			<path class="st0" d="M87.6,451.3c1.6,0.3,39-1.1,39-1.1"/>
			<path class="st0" d="M83,464.8c1.7-0.2,38,5.9,38,5.9"/>
			<line class="st0" x1="80.9" y1="479.7" x2="113.8" y2="482.6"/>
			<line class="st0" x1="79.9" y1="494.5" x2="117.4" y2="495.2"/>
			<line class="st0" x1="76.3" y1="508.1" x2="110.5" y2="511.3"/>
		</g>
		<g>
			<line class="st0" x1="72.6" y1="524.3" x2="111.5" y2="526.8"/>
			<path class="st0" d="M72.4,538.7c1.2,0.2,38.4,3,38.4,3"/>
			<line class="st0" x1="72.9" y1="554.2" x2="110.4" y2="557.5"/>
			<line class="st0" x1="71.5" y1="568.7" x2="107.4" y2="574.2"/>
			<path class="st0" d="M68.2,586.2c0.8,0.3,40.3,0.8,40.3,0.8"/>
			<path class="st0" d="M70.8,600.1c1.6,0.3,39-1.1,39-1.1"/>
			<path class="st0" d="M66.2,613.6c1.7-0.2,38,5.9,38,5.9"/>
			<line class="st0" x1="64.1" y1="628.5" x2="97" y2="631.5"/>
			<line class="st0" x1="63.1" y1="643.3" x2="100.6" y2="644.1"/>
			<line class="st0" x1="59.5" y1="656.9" x2="93.7" y2="660.1"/>
		</g>
	</g>
	<g>
		<g>
			<line class="st0" x1="1083.6" y1="172.8" x2="1122.5" y2="175.4"/>
			<path class="st0" d="M1083.4,187c1.2,0.2,38.4,3.1,38.4,3.1"/>
			<line class="st0" x1="1084" y1="202.1" x2="1121.5" y2="205.5"/>
			<line class="st0" x1="1082.6" y1="216.4" x2="1118.5" y2="221.9"/>
			<path class="st0" d="M1079.4,233.5c0.8,0.3,40.3,1,40.3,1"/>
			<path class="st0" d="M1081.9,247.2c1.6,0.3,39-1,39-1"/>
			<path class="st0" d="M1077.4,260.4c1.7-0.1,38,5.9,38,5.9"/>
			<line class="st0" x1="1075.4" y1="275" x2="1108.3" y2="278"/>
			<line class="st0" x1="1074.4" y1="289.6" x2="1111.9" y2="290.4"/>
			<line class="st0" x1="1070.8" y1="302.9" x2="1105" y2="306.1"/>
		</g>
		<g>
			<line class="st0" x1="1068.9" y1="318.9" x2="1107.8" y2="321.5"/>
			<path class="st0" d="M1068.7,333.1c1.2,0.2,38.4,3.1,38.4,3.1"/>
			<line class="st0" x1="1069.3" y1="348.2" x2="1106.8" y2="351.6"/>
			<line class="st0" x1="1067.9" y1="362.4" x2="1103.8" y2="368"/>
			<path class="st0" d="M1064.7,379.6c0.8,0.3,40.3,1,40.3,1"/>
			<path class="st0" d="M1067.3,393.3c1.6,0.3,39-0.9,39-0.9"/>
			<path class="st0" d="M1062.7,406.5c1.7-0.1,38,5.9,38,5.9"/>
			<line class="st0" x1="1060.7" y1="421.1" x2="1093.6" y2="424.1"/>
			<line class="st0" x1="1059.7" y1="435.7" x2="1097.2" y2="436.5"/>
			<line class="st0" x1="1056.1" y1="449" x2="1090.3" y2="452.2"/>
		</g>
		<g>
			<line class="st0" x1="1055.7" y1="465.7" x2="1094.6" y2="468.4"/>
			<path class="st0" d="M1055.5,479.9c1.2,0.2,38.4,3.1,38.4,3.1"/>
			<line class="st0" x1="1056.1" y1="495.1" x2="1093.6" y2="498.5"/>
			<line class="st0" x1="1054.7" y1="509.3" x2="1090.6" y2="514.9"/>
			<path class="st0" d="M1051.5,526.5c0.8,0.3,40.3,0.9,40.3,0.9"/>
			<path class="st0" d="M1054.1,540.2c1.6,0.3,39-0.9,39-0.9"/>
			<path class="st0" d="M1049.5,553.4c1.7-0.2,38,5.9,38,5.9"/>
			<line class="st0" x1="1047.5" y1="568" x2="1080.4" y2="571"/>
			<line class="st0" x1="1046.5" y1="582.6" x2="1084" y2="583.4"/>
			<line class="st0" x1="1043" y1="595.9" x2="1077.1" y2="599.1"/>
		</g>
		<g>
			<line class="st0" x1="1039.4" y1="611.8" x2="1078.2" y2="614.4"/>
			<path class="st0" d="M1039.1,625.9c1.2,0.2,38.4,3.1,38.4,3.1"/>
			<line class="st0" x1="1039.7" y1="641.1" x2="1077.2" y2="644.5"/>
			<line class="st0" x1="1038.4" y1="655.3" x2="1074.3" y2="660.9"/>
			<path class="st0" d="M1035.1,672.5c0.8,0.3,40.3,1,40.3,1"/>
			<path class="st0" d="M1037.7,686.2c1.6,0.3,39-0.9,39-0.9"/>
			<path class="st0" d="M1033.2,699.4c1.7-0.1,38,5.9,38,5.9"/>
			<line class="st0" x1="1031.2" y1="714" x2="1064" y2="717"/>
			<line class="st0" x1="1030.2" y1="728.6" x2="1067.7" y2="729.4"/>
			<line class="st0" x1="1026.6" y1="741.9" x2="1060.8" y2="745.1"/>
		</g>
	</g>
	<path class="st1" d="M153.6,72.2c0,0,926.9,94.8,936.4,94.2l-50.4,582.5L89.3,668.1L153.6,72.2z"/>
	<circle class="st2" cx="225.4" cy="160.2" r="20.6"/>
	<circle class="st2" cx="569.5" cy="332.6" r="20.6"/>
	<circle class="st2" cx="701.6" cy="192.9" r="20.6"/>
	<circle class="st2" cx="909.1" cy="318" r="20.6"/>
	<circle class="st2" cx="1031.2" cy="213.5" r="20.6"/>
	<circle class="st2" cx="1006" cy="464.8" r="20.6"/>
	<circle class="st2" cx="937.3" cy="660.1" r="20.6"/>
	<circle class="st2" cx="599.3" cy="655.1" r="20.6"/>
	<circle class="st2" cx="445" cy="538.7" r="20.6"/>
	<circle class="st2" cx="302.9" cy="641.1" r="20.6"/>
	<circle class="st2" cx="171.7" cy="447.4" r="20.6"/>
</g>
<g>
	<g>
		<path class="st2" d="M591.6,456.6c3-15.4,9.5-35.6,19.1-49.8c30.8-45.8,70.3-60.1,122.5-66.5C833.7,327.7,923.1,419,902,522.1
			c-13.6,66.5-55.7,107.8-108.7,121.2c-46.7,12.7-102.5,8.7-153.1-29.3C594.1,579.5,584.9,533.4,591.6,456.6"/>
		<g>
			<path class="st3" d="M594,457.3c3.6-17.7,9.4-35.6,19.7-50.5c9.3-13.6,20.7-25.9,34.2-35.5c25.7-18.2,57.2-25.4,88.1-28.7
				c61.8-6.6,122.5,27.6,150.6,82.8c29.3,57.4,16.4,132.5-28.6,178.4c-46.3,47.3-124.5,55.4-183.2,28.3
				c-28.1-13-54.5-33.1-68.6-61.2c-13.2-26.6-14.9-57.3-13.9-86.5c0.3-9.2,0.9-18.4,1.7-27.6c0.3-3.2-4.7-3.2-5,0
				c-2.9,33.1-4.4,68.2,6.1,100.2c9.2,28,28.4,49.6,52.7,65.7c32.3,21.5,70.9,32,109.6,29.3c31.4-2.2,62.9-11.7,88.1-30.8
				c52.2-39.5,74.9-115.2,54.2-177.1c-20.1-60-77.1-104-140.5-107.2c-16.9-0.8-34,1.5-50.5,4.7c-15.5,3-30.8,7.5-45,14.4
				c-30.3,14.7-55.1,41.5-67,73.1c-3.3,8.7-5.8,17.7-7.7,26.9C588.5,459.1,593.4,460.4,594,457.3L594,457.3z"/>
		</g>
	</g>
	<g>
		<g>
			<path class="st3" d="M741.4,396.9c49.5-5.9,97.1,28.1,107.3,77.1c5.3,25.7-1,53.8-15,75.9c-13.1,20.5-33.2,33.9-56.7,39.7
				c-33.2,8.2-67.3,0.8-94.7-19.5c-2.6-1.9-5.1,2.4-2.5,4.3c25.5,18.8,56.6,26.9,87.9,22.1c25.3-3.9,48.5-15.6,64.5-35.9
				c16.7-21.3,25.5-50.3,22.9-77.3c-2.5-25.2-14.7-48.8-33.5-65.7c-21.8-19.5-51-29.1-80.1-25.7
				C738.3,392.2,738.3,397.2,741.4,396.9L741.4,396.9z"/>
		</g>
	</g>
</g>
<g>
	<g>
		<path class="st2" d="M448.9,61c-1.9,10.7-6.5,102.1-4.9,140.5c17.6,5.8,75.1,15.3,84.4,15.4c6.2-11.2,34.5-103.4,41.1-141
			c-21.3,7.7-42.1,5.8-59.7,3.4C491.8,76.8,466,72.2,448.9,61c21.4-16.4,46.5-10.9,61.1-9.5c16.4,1.6,50.3,9.7,59.5,24.4"/>
		<g>
			<path class="st3" d="M446.5,60.4c-2.3,13.4-2.3,27.5-3,41.1c-1.1,22.5-2,45.1-2.3,67.7c-0.1,10.8-0.2,21.6,0.2,32.4
				c0,1.1,0.8,2.1,1.8,2.4c14.8,4.8,30.6,7.3,45.9,9.9c12.8,2.2,26.1,5.3,39.2,5.5c0.9,0,1.8-0.5,2.2-1.2c2.5-4.6,4.1-9.8,5.9-14.8
				c3.2-9,6.1-18.1,8.9-27.2c7-22.4,13.5-44.9,19.3-67.6c2.7-10.6,5.3-21.2,7.2-32c0.3-1.7-1.1-3.8-3.1-3.1
				c-21.2,7.4-43.1,5.8-64.9,2.4c-18.4-2.9-37.8-6.9-53.7-17.1c0,1.4,0,2.9,0,4.3c19.1-14.1,42.3-11.8,64.5-8.6
				c9.6,1.4,19.2,3.8,28.4,7.1c8.7,3.1,19,7.5,24.3,15.5c1.8,2.7,6.1,0.2,4.3-2.5c-5.4-8.2-14.8-12.9-23.6-16.4
				c-10.3-4.1-21.1-6.9-32.1-8.5c-23.4-3.5-48.2-5.9-68.3,9.1c-1.5,1.1-1.7,3.2,0,4.3C464.4,73.8,484.6,78,504,81
				c22.2,3.4,44.6,5,66.2-2.6c-1-1-2.1-2.1-3.1-3.1c-3.6,20.3-9.2,40.3-14.8,60.2c-5.9,20.9-12.1,41.7-19.1,62.2
				c-2,6-3.9,12.4-6.9,18c0.7-0.4,1.4-0.8,2.2-1.2c-13-0.3-26.3-3.3-39.1-5.6c-14.9-2.6-30.3-5-44.7-9.7c0.6,0.8,1.2,1.6,1.8,2.4
				c-1.6-40.6,0.7-81.7,3.3-122.2c0.4-5.9,0.5-11.9,1.5-17.7C451.9,58.5,447.1,57.2,446.5,60.4L446.5,60.4z"/>
		</g>
	</g>
	<g>
		<g>
			<path class="st3" d="M534.8,107.5c-7.2,26.3-11.7,53.3-19.1,79.6c-0.9,3.1,4,4.4,4.8,1.3c7.4-26.3,11.9-53.3,19.1-79.6
				C540.5,105.7,535.7,104.4,534.8,107.5L534.8,107.5z"/>
		</g>
	</g>
	<g>
		<g>
			<path class="st3" d="M502.3,101.9c-4.9,27.1-9,54.4-12.9,81.7c-0.4,3.1,4.4,4.5,4.8,1.3c3.8-27.3,8-54.6,12.9-81.7
				C507.7,100.1,502.9,98.7,502.3,101.9L502.3,101.9z"/>
		</g>
	</g>
	<g>
		<g>
			<path class="st3" d="M468.1,98.6c-0.4,26.3-3.6,52.6-3.3,79c0,3.2,5,3.2,5,0c-0.3-26.3,2.9-52.6,3.3-79
				C473.1,95.4,468.1,95.4,468.1,98.6L468.1,98.6z"/>
		</g>
	</g>
</g>
<g>
	<path class="st3" d="M798.7,102.7c15.4,13.3,196.5,194.5,231.5,234.9c-4.1,4.1-7.3,6-10.3,8.9c-5.4-5.1-93.1-98.3-101.4-105
		c-8.8,2-15.9,2.7-22.2,4.4c-1.5-3.5-4.6-10.5-7.1-14.6c-5.6,0.2-12.3,2.6-17.1,3.8c0.1-6.5-3.7-12.2-4.9-18.2
		c-5.5-0.9-10.6,0.6-16.5,0c-1.8-7.2-0.5-12.7-1.7-18.3c-6.5-0.4-14.5-2.4-26.1-4.4c-0.1-7.6-1.1-14.5-1.4-21.1
		c-4.6-0.8-11.1-0.4-17.2-1c0.7-4.6,0.4-13.5,0.6-18.2c-4.2-0.8-9.1-3.7-14.2-5.3c3.6-5.6,5.5-8,7.9-12.8
		c-3.3-3.1-4.6-4.1-10.5-11.2c6.5-3.9,7-4.2,11-7.2C799.4,113,799.1,107.6,798.7,102.7"/>
</g>
<g>
	<g>
		<path class="st3" d="M207.7,592.5c-24.3-9.4-22.9-44.1-13.2-57.7c8.5-11.4,17.7-18.5,31.7-17.9c6.3,0.2,21.7,4.3,26.8,14.5
			c12.9,22.7,4.5,50.1-9.3,59.2c-6.6,4.3-15.7,6.8-22.6,5.9c-3.2,11.2-31.1,101.8-36.1,116.1c-4.2-1.6-7.6-2.7-13.4-4.8
			C175.6,696.4,202.7,607.4,207.7,592.5"/>
	</g>
	<g>
		<g>
			<path class="st2" d="M226.1,535c-10.2-3.5-19,4.5-22.7,13.5c-4.3,10.6,0.8,20.9,10,26.7c2.7,1.7,5.3-2.6,2.5-4.3
				c-6.9-4.3-11.1-11.8-8.2-19.9c2.5-7,9.1-13.9,17-11.2C227.8,540.9,229.1,536.1,226.1,535L226.1,535z"/>
		</g>
	</g>
</g>
<circle class="st2" cx="1961" cy="806.4" r="6.7"/>
<g>
	<path class="st4" d="M241.6,308.8c1.9,0.6,46.8,8.9,46.8,8.9l71.4,2.6l76.9-12.6l57.2-21.3l-60.1-12.9l-90.3,2.8l-66.5,12.8
		L241.6,308.8z"/>
	<g>
		<path class="st2" d="M241.6,308.8c5.2,22.8,13.7,60.5,27.6,83.1c15.8,25.8,35.6,49.7,56.1,64.2c-3.4,6.8-3.6,9.2-7.2,16.1
			c41.2,2.7,93.2-4,141-12.1c-5.5-6.5-8.3-11.4-11.5-15.6c5.2-4.6,27.2-58.5,31.7-74.9c10-36.1,15.5-49.3,14.5-83.2
			c-20.6,9.7-66.6,27.7-116.6,32.6C320.7,324.7,279.3,317.6,241.6,308.8c43.4-27.3,89.3-30.7,140.2-37.1c9.7-1.4,69.3-0.6,112,14.8"
			/>
		<g>
			<path class="st3" d="M239.2,309.5c6,26.4,11.9,53.8,24.6,77.9c7.2,13.8,16.8,26.7,26.6,38.7c9.9,12.1,21,23.2,33.7,32.3
				c-0.3-1.1-0.6-2.3-0.9-3.4c-2.6,5.3-4.5,10.8-7.2,16.1c-0.9,1.7,0.2,3.6,2.2,3.8c47.3,2.9,95.1-4.3,141.6-12.2
				c2-0.3,2.2-2.9,1.1-4.2c-4-4.8-7.3-10.1-11.1-15.1c-0.1,1-0.3,2-0.4,3c4.4-4.3,6.9-11.7,9.3-17.1c4.5-9.8,8.6-19.8,12.6-29.8
				c8.6-21.8,15.6-44.2,20.9-67c3.5-15.1,4.6-30.4,4.2-45.9c-0.1-2-2.1-3-3.8-2.2c-61.8,29-131.6,39.9-199.4,31.5
				c-17.2-2.1-34.1-5.6-51-9.5c0.2,1.5,0.4,3,0.6,4.6c33.8-21.1,72.4-28.5,111.4-33.4c12.9-1.6,25.8-3.8,38.8-3.9
				c13.9,0,27.8,0.9,41.7,2.5c19.8,2.3,39.7,6,58.5,12.7c3,1.1,4.3-3.8,1.3-4.8c-31-11-65.1-14.9-97.8-15.3
				c-12.6-0.2-24.9,1.7-37.4,3.2c-19.3,2.4-38.6,4.9-57.5,9.5c-21.7,5.2-42.5,13.4-61.5,25.2c-1.7,1.1-1.6,4.1,0.6,4.6
				c32,7.5,64.5,12.4,97.4,12.4c39.1,0,77.7-6.3,114.9-18.5c14.3-4.7,28.3-10.1,41.9-16.4c-1.3-0.7-2.5-1.4-3.8-2.2
				c0.3,13.5-0.3,26.9-3.1,40.1c-2.9,14-7.3,27.7-11.1,41.5c-5.2,18.6-13,36.7-20.8,54.3c-2,4.5-4,9-6.3,13.3
				c-1.2,2.3-2.4,5.2-4.3,7.1c-0.7,0.7-1,2.2-0.4,3c4,5.4,7.6,11,11.9,16.1c0.4-1.4,0.7-2.8,1.1-4.2c-46.1,7.8-93.4,14.9-140.3,12
				c0.7,1.3,1.4,2.5,2.2,3.8c2.7-5.2,4.6-10.8,7.2-16.1c0.6-1.3,0.3-2.6-0.9-3.4c-12.3-8.9-23.1-19.8-32.7-31.5
				c-9.9-12-19.4-25-26.5-38.9c-11.9-23.5-17.6-49.9-23.4-75.4C243.3,305,238.5,306.3,239.2,309.5L239.2,309.5z"/>
		</g>
	</g>
	<g>
		<g>
			<path class="st3" d="M269.3,337.8c0.9,5.9,2.1,11.6,4.2,17.2c1.1,3,5.9,1.7,4.8-1.3c-2.1-5.6-3.3-11.3-4.2-17.2
				C273.7,333.3,268.9,334.6,269.3,337.8L269.3,337.8z"/>
		</g>
	</g>
	<g>
		<g>
			<path class="st3" d="M300.5,337.3c0.9,5.9,1.7,11.8,2.6,17.6c0.5,3.2,5.3,1.8,4.8-1.3c-0.9-5.9-1.7-11.8-2.6-17.6
				C304.9,332.8,300.1,334.1,300.5,337.3L300.5,337.3z"/>
		</g>
	</g>
	<g>
		<g>
			<path class="st3" d="M336.5,338.3c0.8,6,0.8,11.9,1,17.9c0.1,3.2,5.1,3.2,5,0c-0.2-6-0.2-11.9-1-17.9
				C341.1,335.2,336.1,335.1,336.5,338.3L336.5,338.3z"/>
		</g>
	</g>
	<g>
		<g>
			<path class="st3" d="M372.9,336.6c0.8,5.4,1.6,10.8,2.4,16.2c0.5,3.2,5.3,1.8,4.8-1.3c-0.8-5.4-1.6-10.8-2.4-16.2
				C377.2,332.1,372.4,333.4,372.9,336.6L372.9,336.6z"/>
		</g>
	</g>
	<g>
		<g>
			<path class="st3" d="M409.4,332.2c0.7,4.9,1.7,9.7,2.2,14.6c0.3,3.2,5.3,3.2,5,0c-0.5-5.4-1.5-10.6-2.3-16
				C413.7,327.7,408.9,329,409.4,332.2L409.4,332.2z"/>
		</g>
	</g>
	<g>
		<g>
			<path class="st3" d="M441.2,324.7c0.8,5.5,1.5,10.9,1.1,16.4c-0.2,3.2,4.8,3.2,5,0c0.4-6-0.4-11.9-1.3-17.8
				C445.6,320.2,440.8,321.6,441.2,324.7L441.2,324.7z"/>
		</g>
	</g>
	<g>
		<g>
			<path class="st3" d="M472.5,315.1c0.5,5.6,0.1,10.9-0.8,16.5c-0.5,3.1,4.3,4.5,4.8,1.3c0.9-6,1.5-11.8,1-17.8
				C477.2,311.9,472.2,311.9,472.5,315.1L472.5,315.1z"/>
		</g>
	</g>
</g>
<g>
	<ellipse transform="matrix(0.8683 -0.496 0.496 0.8683 -214.1771 676.0097)" class="st3" cx="1166" cy="741.4" rx="5.8" ry="7.4"/>
	
		<ellipse transform="matrix(0.8682 -0.4962 0.4962 0.8682 -220.6725 682.6031)" class="st3" cx="1174.8" cy="756.8" rx="5.8" ry="7.4"/>
	
		<ellipse transform="matrix(0.8683 -0.4961 0.4961 0.8683 -217.6281 679.4565)" class="st3" cx="1170.7" cy="749.6" rx="2.9" ry="3.7"/>
	
		<ellipse transform="matrix(0.8684 -0.4959 0.4959 0.8684 -207.9693 673.8107)" class="st3" cx="1165.4" cy="728.7" rx="1.3" ry="1.7"/>
	
		<ellipse transform="matrix(0.8683 -0.4961 0.4961 0.8683 -212.1488 669.9046)" class="st3" cx="1155.4" cy="734.4" rx="1.3" ry="1.7"/>
	<line class="st5" x1="1155.4" y1="734.4" x2="1161" y2="738.4"/>
	<line class="st5" x1="1165.8" y1="729.3" x2="1166.2" y2="735.9"/>
	<polyline class="st5" points="1157.9,754.5 1159.8,747.9 1166.9,745.3 	"/>
	<polyline class="st5" points="1160.4,759 1162.6,751.8 1169.3,749.5 	"/>
	<polyline class="st5" points="1163.7,761.9 1165.3,755.1 1170.5,755.1 	"/>
	<polyline class="st5" points="1180.5,739.7 1174,738.8 1168.3,743 	"/>
	<polyline class="st5" points="1182.1,745.5 1176,744.2 1171.1,747.8 	"/>
	<polyline class="st5" points="1185.1,750.9 1177.9,749 1176,753.1 	"/>
</g>
</svg>
