<?xml version="1.0" encoding="utf-8"?>
<!-- Generator: Adobe Illustrator 16.0.0, SVG Export Plug-In . SVG Version: 6.00 Build 0)  -->
<!DOCTYPE svg PUBLIC "-//W3C//DTD SVG 1.1//EN" "http://www.w3.org/Graphics/SVG/1.1/DTD/svg11.dtd">
<svg version="1.1" id="Calque_1" xmlns="http://www.w3.org/2000/svg" xmlns:xlink="http://www.w3.org/1999/xlink" x="0px" y="0px"
	 width="1200px" height="800px" viewBox="0 0 1200 800" enable-background="new 0 0 1200 800" xml:space="preserve">
<g>
	<g>
		<path fill="#1D1D1B" d="M464.348,356.985c5.634-24.848,24.103-40.001,45.255-52.196c18.332-10.568,39.525-15.868,60.469-17.778
			c42.854-3.91,90.193,6.57,123.403,35.029c35.529,30.447,43.249,79.182,33.057,122.999c-5.181,22.27-15.046,43.462-28.782,61.732
			c-14.501,19.287-33.618,32.788-56.527,40.293c-23.983,7.857-50.288,9.335-75.149,5.416c-21.872-3.448-44.807-11.462-62.92-24.397
			c-15.105-10.788-24.659-26.649-31.562-43.562c-11.357-27.827-14.607-56.594-13.414-86.477
			C458.721,384.438,461.029,370.18,464.348,356.985c0.787-3.128-4.035-4.455-4.821-1.329
			c-11.895,47.285-8.889,99.391,13.101,143.227c7.908,15.764,19.517,28.626,34.557,37.855
			c19.038,11.682,41.954,18.622,63.981,21.479c24.249,3.145,49.545,0.823,72.779-6.788c21.739-7.122,39.957-19.898,54.473-37.492
			c27.751-33.635,42.104-80.747,36.17-124.096c-2.932-21.415-11.033-41.468-24.747-58.254
			c-13.05-15.974-30.874-27.659-49.684-35.742c-38.969-16.745-85.204-19.344-125.784-7.025
			c-32.379,9.83-66.931,31.931-74.846,66.836C458.814,358.796,463.635,360.129,464.348,356.985L464.348,356.985z"/>
	</g>
</g>
<g>
	<g>
		<path fill="#1D1D1B" d="M685.789,353.09c28.094,37.826,19.801,92.064-5.007,129.301c-13.629,20.458-32.858,33.771-56.623,39.88
			c-24.668,6.341-50.593,4.594-74.611-3.417c-14.027-4.678-27.603-11.313-37.868-22.182c-9.661-10.229-15.106-23.691-19.69-36.767
			c-1.06-3.021-5.891-1.722-4.821,1.33c5.985,17.071,13.543,33.636,27.826,45.352c16.223,13.307,38.915,20.743,59.465,23.354
			c23.945,3.043,48.83,0.151,70.914-9.813c20.306-9.163,35.408-26.354,46.016-45.573c20.581-37.292,25.192-88.342-1.283-123.988
			C688.207,348.009,683.863,350.498,685.789,353.09L685.789,353.09z"/>
	</g>
</g>
<g>
	<g>
		<path fill="#1D1D1B" d="M808.086,336.515c-2.763,10.648-5.687,22.485-2.854,33.419c2.479,9.571,11.115,13.125,20.184,13.714
			c21.318,1.386,25.686-23.648,28.246-39.629c0.505-3.153-4.312-4.506-4.822-1.329c-2.063,12.88-4.466,35.147-21.376,35.979
			c-8.876,0.437-16.04-3.253-17.921-12.25c-1.932-9.242,1.056-19.676,3.365-28.575C813.719,334.72,808.896,333.396,808.086,336.515
			L808.086,336.515z"/>
	</g>
</g>
<g>
	<g>
		<path fill="#1D1D1B" d="M822.122,339.602c-2.036,12.334-5.369,24.378-7.024,36.787c-0.426,3.188,4.58,3.147,5,0
			c1.595-11.958,4.883-23.569,6.847-35.458C827.465,337.778,822.646,336.426,822.122,339.602L822.122,339.602z"/>
	</g>
</g>
<g>
	<g>
		<path fill="#1D1D1B" d="M835.255,340.837c-2.572,12.82-6.984,25.221-9.879,37.974c-0.712,3.14,4.108,4.473,4.822,1.329
			c2.894-12.753,7.306-25.154,9.879-37.974C840.708,339.019,835.89,337.677,835.255,340.837L835.255,340.837z"/>
	</g>
</g>
<g>
	<g>
		<path fill="#1D1D1B" d="M815.805,381.291c-4.327,20.286-7.476,40.763-11.545,61.093c-3.426,17.115-7.379,34.604-8.189,52.087
			c-0.158,3.405-0.621,10.214,4.116,10.71c3.966,0.415,5.885-7.083,6.754-9.644c5.49-16.182,8.307-33.471,11.464-50.222
			c3.853-20.443,7.14-40.947,10.539-61.47c0.521-3.153-4.296-4.504-4.822-1.329c-5.764,34.81-10.67,70.125-19.801,104.269
			c-0.852,3.185-1.786,6.351-2.913,9.45c-0.382,1.052-0.822,2.071-1.339,3.064c-1.19,2.287-0.458-0.057,1.317,1.351
			c-0.671-0.531-0.364-4.388-0.342-5.417c0.083-3.97,0.572-7.938,1.071-11.871c2.319-18.29,6.557-36.265,9.74-54.406
			c2.72-15.496,5.488-30.946,8.771-46.336C821.297,379.475,816.478,378.138,815.805,381.291L815.805,381.291z"/>
	</g>
</g>
<g>
	<g>
		<path fill="#1D1D1B" d="M367.467,401.423c13.228,27.672,26.23,55.473,41.153,82.287c6.079,10.924,12.113,21.868,17.899,32.951
			c3.839,7.354,7.58,14.764,11.028,22.31c2.036,4.457,4.993,9.794,5.366,14.788c0.087,1.172-0.046-0.438,1.195-0.529
			c0.197-0.015-0.524-0.303-0.838-0.551c-2.025-1.598-3.658-3.777-5.192-5.824c-4.637-6.187-8.604-12.896-12.51-19.557
			c-6.608-11.266-12.699-22.815-18.922-34.294c-2.908-5.364-6.1-10.376-11.423-13.617c-3.753-2.286-7.954-3.533-11.624-6.009
			c-2.57-1.733-1.006-7.024-0.975-9.618c0.016-1.292-1.15-2.594-2.5-2.5c-3.548,0.246-5.825,0.936-5.182-2.964
			c0.38-2.308,0.529-4.496-0.107-6.771c-0.659-2.357-2.536-3.431-4.749-4.057c-1.279-0.361-2.621-0.517-3.911-0.847
			c-3.524-0.899,0.598-7.242,1.288-8.768c0.54-1.193,0.399-2.741-0.897-3.42c-2.438-1.277-5.227-1.526-7.686-2.728
			c-1.515-0.739,2.098-6.658,2.083-8.1c-0.055-5.269-7.627-7.039-9.029-12.13c-0.733-2.661,0.945-6.119,1.773-8.597
			c1.161-3.472,2.518-6.904,4.345-10.082c2.072-3.603,4.576-3.612,5.881,0.002C365,395.753,365.871,398.695,367.467,401.423
			c1.627,2.78,5.95,0.266,4.317-2.523c-2.842-4.856-3.656-16.442-11.928-13.701c-7.722,2.559-10.31,13.749-12.295,20.567
			c-1.109,3.809-0.872,7.238,1.056,10.779c0.745,1.369,7.456,6.312,7.249,7.146c-0.989,3.99-3.411,6.235-1.365,10.458
			c1.614,3.332,6.694,3.111,9.542,4.602c-0.299-1.14-0.598-2.28-0.897-3.42c-2.028,4.48-4.98,8.896-2.052,13.706
			c1.873,3.074,8.337,1.735,9.139,4.604c0.827,2.955-1.193,6.022-0.215,9.048c1.318,4.075,6.754,3.805,10.106,3.572
			c-0.833-0.833-1.667-1.667-2.5-2.5c-0.038,3.183-0.976,7.025,0.108,10.111c1.18,3.362,5.639,5.535,8.625,6.815
			c4.236,1.816,8.128,3.62,11.196,7.162c1.954,2.257,3.35,5.059,4.775,7.679c7.057,12.97,13.936,26.029,21.533,38.697
			c3.7,6.17,7.55,12.297,12.042,17.928c2.112,2.647,5.43,6.833,9.321,5.919c8.099-1.9-4.164-23.413-5.706-26.651
			c-7.631-16.035-16.201-31.639-24.852-47.142c-15.534-27.84-29.138-56.63-42.881-85.379
			C370.395,395.991,366.084,398.529,367.467,401.423L367.467,401.423z"/>
	</g>
</g>
<g>
	<g>
		<path fill="#1D1D1B" d="M813.623,223.468c-14.015,2.052-28.476-0.399-42.37-2.394c-11.924-1.711-24.668-3.798-35.12-10.13
			c0.169,1.309,0.338,2.618,0.506,3.926c7.206-7.624,21.117-5.143,30.38-3.951c8.779,1.13,17.44,2.599,25.991,4.931
			c7.168,1.955,18.523,4.526,19.404,13.389c0.933,9.386-2.552,19.555-5.187,28.425c-2.26,7.604-4.85,15.105-7.268,22.658
			c-3.017,9.424-5.618,19.17-10.569,27.812c-2.032,3.549-4.459,6.502-8.727,6.846c-5.528,0.445-11.307-1.1-16.633-2.385
			c-4.554-1.098-8.997-2.435-13.603-3.305c-6.016-1.135-14.408-2.133-18.315-7.475c-1.968-2.689-0.923-7.655-0.917-10.738
			c0.004-2.392,0.058-4.783,0.111-7.174c0.175-7.746,0.482-15.489,0.869-23.228c0.767-15.367,0.804-32.023,5.105-46.911
			c0.896-3.104-3.929-4.421-4.822-1.329c-2.112,7.313-2.768,15.109-3.498,22.656c-0.978,10.095-1.55,20.23-2.014,30.36
			c-0.358,7.823-0.628,15.654-0.734,23.485c-0.114,8.475-0.907,14.99,6.777,20.176c4.586,3.095,10.804,3.976,16.108,4.997
			c5.02,0.966,9.889,2.41,14.857,3.607c7.235,1.746,18.348,4.924,24.683-0.677c6.578-5.816,9.58-15.403,12.327-23.451
			c2.596-7.607,4.926-15.313,7.406-22.959c3.771-11.618,7.714-23.412,8.943-35.625c0.423-4.204,0.37-8.945-1.869-12.671
			c-2.576-4.289-7.499-6.434-11.932-8.267c-10.973-4.537-22.98-6.322-34.668-7.907c-11.246-1.525-26.991-4.09-35.744,5.171
			c-1.116,1.181-0.899,3.075,0.506,3.926c11.3,6.846,24.932,9,37.805,10.848c14.38,2.064,29.047,4.302,43.539,2.18
			C818.134,227.823,816.776,223.006,813.623,223.468L813.623,223.468z"/>
	</g>
</g>
<g>
	<g>
		<path fill="#1D1D1B" d="M746.264,240.271c-0.935,17.703-1.556,35.418-2.688,53.11c-0.206,3.221,4.795,3.201,5,0
			c1.133-17.692,1.754-35.407,2.688-53.11C751.434,237.047,746.433,237.063,746.264,240.271L746.264,240.271z"/>
	</g>
</g>
<g>
	<g>
		<path fill="#1D1D1B" d="M770.125,242.693c-3.372,18.359-8.074,36.47-11.855,54.747c-0.65,3.146,4.169,4.486,4.822,1.329
			c3.781-18.277,8.482-36.388,11.855-54.747C775.525,240.871,770.707,239.525,770.125,242.693L770.125,242.693z"/>
	</g>
</g>
<g>
	<g>
		<path fill="#1D1D1B" d="M789.884,247.016c-4.983,17.766-11.789,34.899-16.142,52.856c-0.759,3.133,4.062,4.462,4.822,1.329
			c4.352-17.957,11.157-35.09,16.142-52.856C795.578,245.234,790.754,243.916,789.884,247.016L789.884,247.016z"/>
	</g>
</g>
<g>
	<g>
		<path fill="#1D1D1B" d="M437.706,268.881c-6.967-7.996-1.438-20.097,4.576-26.868c6.975-7.853,18.066-9.475,26.363-2.411
			c6.99,5.951,5.572,16.354,1.752,23.607c-2.286,4.34-5.936,8.335-10.167,10.818c-5.961,3.498-12.294-2.504-17.911,0.825
			c-6.505,3.856-9.772,12.534-13.321,18.97c-4.24,7.689-8.507,15.389-13.481,22.636c-1.968,2.867-4.109,5.683-6.762,7.954
			c-0.385,0.33-1.708,0.987-1.699,0.992c0.484,0.224,0.258,0.562,0.238-0.348c-0.018-0.833,0.231-1.667,0.433-2.465
			c2.111-8.394,7.327-16.405,11.794-23.709c5.705-9.326,12.636-17.795,18.576-26.972c1.758-2.715-2.572-5.219-4.317-2.523
			c-10.262,15.854-22.354,30.2-29.524,47.906c-1.519,3.749-4.16,11.385,1.601,12.946c5.336,1.446,10.286-6.182,12.82-9.624
			c5.231-7.108,9.491-14.954,13.753-22.663c1.441-2.607,2.852-5.233,4.361-7.802c3.007-5.12,5.381-12.437,12.603-10.637
			c10.602,2.642,18.537-3.348,24.235-11.949c4.352-6.569,6.166-15.042,4.056-22.691c-3.992-14.474-22.947-18.588-34.289-10.539
			c-11.156,7.917-19.409,26.395-9.225,38.081C436.293,274.852,439.814,271.3,437.706,268.881L437.706,268.881z"/>
	</g>
</g>
<g>
	<g>
		<path fill="#1D1D1B" d="M453.66,246.55c4.609-1.135,9.13-0.041,9.753,5.364c0.569,4.933-3.038,9.706-6.681,12.568
			c-2.534,1.991,1.031,5.504,3.535,3.535c5.759-4.526,9.524-12.057,7.572-19.388c-1.855-6.966-9.441-8.396-15.509-6.901
			C449.201,242.5,450.529,247.321,453.66,246.55L453.66,246.55z"/>
	</g>
</g>
</svg>
