<?xml version="1.0" encoding="utf-8"?>
<!-- Generator: Adobe Illustrator 18.1.1, SVG Export Plug-In . SVG Version: 6.00 Build 0)  -->
<svg version="1.1" id="Layer_1" xmlns="http://www.w3.org/2000/svg" xmlns:xlink="http://www.w3.org/1999/xlink" x="0px" y="0px"
	 viewBox="0 0 612 792" enable-background="new 0 0 612 792" xml:space="preserve">
<g>
	<g>
		<path fill="#1D1D1B" d="M275.9,439.4c-66-19.2-70.5-110.7-48-148.8c19.8-32,42.3-52.7,79.4-54.6c16.6-0.8,58.1,6.4,73.9,32
			c39.2,56.7,23.4,130.8-10.8,158c-16.3,12.9-39.6,21.7-58,20.7c-5.7,30.1-58.3,275.2-68,313.8c-11.5-3.2-20.6-5.5-36.4-9.6
			C215.5,720.3,266.3,479.8,275.9,439.4"/>
	</g>
	<path fill="#FFFFFF" d="M338.5,383c0,0,0,28.7-35.5,23.5c-20.8-3-20.9-27.6-20.9-27.6L338.5,383z"/>
	<circle fill="#FFFFFF" cx="290.7" cy="349.6" r="9.7"/>
	<circle fill="#FFFFFF" cx="340.2" cy="355.6" r="9.7"/>
</g>
</svg>
