<?xml version="1.0" encoding="utf-8"?>
<!-- Generator: Adobe Illustrator 18.1.1, SVG Export Plug-In . SVG Version: 6.00 Build 0)  -->
<svg version="1.1" id="Calque_1" xmlns="http://www.w3.org/2000/svg" xmlns:xlink="http://www.w3.org/1999/xlink" x="0px" y="0px"
	 viewBox="0 0 1920 1080" enable-background="new 0 0 1920 1080" xml:space="preserve">
<g>
	<rect display="none" fill="#36A9E1" width="1920" height="1080"/>
	<g>
		<path fill="#5DA314" d="M0,555.8c71-4.8,253,2.9,325-0.1c157.5-7.5,765.9-1.8,896.4,1.2L0,555.8V1080h1920V576
			c-25.5-40.5-169.4-237.3-200.5-296.3c-38.1,34.6-133.9,151.7-144.5,159.1c-15.5-7.2-60-66-75-84c-21-25.5-39-52.5-60-78
			c-62.4,77.9-192.7,252.7-218.7,280.2"/>
	</g>
	<g>
		<g>
			<path fill="#FFFFFF" d="M1340.3,403.1c16.7-8.1,31.6-19.6,48.7-26.7c-0.8-0.2-1.6-0.4-2.4-0.6c12.3,13.6,20.8,30.1,32.6,44.1
				c0.8,1,2.7,1,3.5,0c12.1-13.8,22.3-29,34.4-42.8c-1.2,0-2.4,0-3.5,0c9.7,9.6,19.6,19,30.1,27.8c0.9,0.7,2,1,3,0.4
				c12.4-7.4,21.5-17.7,31.2-28.2c2.2-2.4-1.3-5.9-3.5-3.5c-9.4,10.1-18.2,20.3-30.2,27.4c1,0.1,2,0.3,3,0.4
				c-10.4-8.8-20.4-18.2-30.1-27.8c-0.9-0.9-2.6-1-3.5,0c-12.1,13.8-22.3,29.1-34.4,42.8c1.2,0,2.4,0,3.5,0
				c-11.8-14-20.3-30.5-32.6-44.1c-0.5-0.6-1.7-1-2.4-0.6c-17.6,7.3-32.8,19-49.9,27.2C1334.8,400.2,1337.4,404.5,1340.3,403.1
				L1340.3,403.1z"/>
		</g>
	</g>
	<g>
		<g>
			<path fill="#FFFFFF" d="M1773.3,366.5c-7.3,8.8-17.7,14.8-26.7,21.8c1.2,0,2.4,0,3.5,0c-12.8-10-23.6-21.9-34.9-33.4
				c-0.9-0.9-2.6-1-3.5,0c-12.5,14-26.1,27.6-41.5,38.6c1.1,0.3,2.3,0.6,3.4,0.9c-3.6-6.8-10.1-12.5-15.4-18
				c-5.2-5.4-12.1-10.9-15.7-17.6c-1.5-2.8-5.9-0.3-4.3,2.5c3.5,6.4,9.8,11.7,14.8,16.8c5.5,5.7,12.5,11.6,16.2,18.8
				c0.6,1.1,2.4,1.7,3.4,0.9c15.7-11.2,29.7-25,42.5-39.4c-1.2,0-2.4,0-3.5,0c11.4,11.5,22.1,23.4,34.9,33.4c1.2,0.9,2.4,0.9,3.5,0
				c9-7,19.4-12.9,26.7-21.8C1778.8,367.5,1775.3,364,1773.3,366.5L1773.3,366.5z"/>
		</g>
	</g>
</g>
<g display="none">
	<g display="inline">
		<path fill="#1D1D1B" d="M239.5,362.6c4.7,27.5,89.4,368.3,112,438c7.7-1.9,12.2-4.3,17.7-5.8c-2.2-10-49.5-178.9-51.6-193.4
			c8.6-8.9,14.4-16.8,20.8-23c-3-4.2-9.1-12.8-12.1-18.7c4.1-6.4,11.7-12.6,16.6-17.4c-7.6-4.5-11.7-13-18-18.6
			c2.8-7.1,8.2-12,11.6-19.4c-7.2-7.1-14.5-9.6-20.3-15c4.1-7.9,7.5-18.8,13.3-33.8c-8.9-5.5-16.3-11.6-23.8-16.6
			c2.3-6,7.4-13.3,11-20.9c-5.9-2.5-16.2-9.1-21.8-12.1c2-5.5,2.1-13.3,3.8-20.4c-9.2,0.3-13.4,0.8-20.6,0.3
			c-1.3-6.1-1.6-8.3-5.7-20.3c-9.2,4.8-9.9,5.2-16.2,7.9C251.2,370.8,245.1,366.6,239.5,362.6"/>
	</g>
	<path display="inline" fill="none" stroke="#FFFFFF" stroke-width="5" stroke-linecap="round" stroke-miterlimit="10" d="
		M337.4,503.8c0,0-5,3.3-14.5,4.3s-17.4-2-21.8-10"/>
	<circle display="inline" fill="#FFFFFF" cx="287.7" cy="451.5" r="5.2"/>
</g>
<g display="none">
	<g display="inline">
		<path fill="#1D1D1B" d="M425.5,584.5c-1.1,18.1-22.7,222.4-28,276.1c5.1,0.7,15.9,0.9,21,1.7c9.8-81.7,23.4-257.6,25.5-277.8
			c7.5-5.2,28.5-33.8,39.3-42.3c3.8-16.6,16.2-96,18.6-116.2c-4.9-0.8-15-2.7-21.1-2.7c-1.2,8.3-9,81.8-10.8,92.2
			c-5.2,0-10.8-0.2-19.4-0.7c2.6-25.6,8.8-70.9,11.2-96.8c-5.1-0.4-15.6-2.8-19-2.2c-1.2,8.3-10.2,87.2-11.5,98.3
			c-4.3,0.2-9.4-2.2-15.9-2.1c1-17.8,6.9-79,7.1-98.2c-6.2,0.2-11.6,0.2-19.8-0.7c-0.6,12.4-7.6,109.6-7.5,122.4
			C404.7,546.4,420.4,583.8,425.5,584.5"/>
	</g>
	<path display="inline" fill="none" stroke="#FFFFFF" stroke-width="5" stroke-linecap="round" stroke-miterlimit="10" d="
		M423.2,550.5c0,0,3.9,9.3,11.5,10.5c14,2.3,18.5-9.5,18.5-9.5"/>
	<circle display="inline" fill="#FFFFFF" cx="427.3" cy="530.8" r="5.2"/>
	<circle display="inline" fill="#FFFFFF" cx="453.7" cy="533.3" r="5.2"/>
</g>
<g display="none">
	<g display="inline">
		<path fill="#1D1D1B" d="M200.5,734.7c-35.1-10.2-37.5-58.8-25.5-79c10.5-17,22.5-28,42.2-29c8.8-0.4,30.9,3.4,39.3,17
			c20.8,30.1,12.4,69.5-5.8,83.9c-8.7,6.9-21,11.5-30.8,11c-3,16-31,146.1-36.1,166.7c-6.1-1.7-10.9-2.9-19.3-5.1
			C168.4,883.9,195.4,756.1,200.5,734.7"/>
	</g>
	<path display="inline" fill="#FFFFFF" d="M233.7,704.8c0,0,0,15.2-18.8,12.5c-11.1-1.6-11.1-14.7-11.1-14.7L233.7,704.8z"/>
	<circle display="inline" fill="#FFFFFF" cx="208.4" cy="687" r="5.2"/>
	<circle display="inline" fill="#FFFFFF" cx="234.6" cy="690.2" r="5.2"/>
</g>
<g>
	<g>
		<path fill="#1D1D1B" d="M-896,96.3c4.7,27.5,89.4,368.3,112,438c7.7-1.9,12.2-4.3,17.7-5.8c-2.2-10-49.5-178.9-51.6-193.4
			c8.6-8.9,14.4-16.8,20.8-23c-3-4.2-9.1-12.8-12.1-18.7c4.1-6.4,11.7-12.6,16.6-17.4c-7.6-4.5-11.7-13-18-18.6
			c2.8-7.1,8.2-12,11.6-19.4c-7.2-7.1-14.5-9.6-20.3-15c4.1-7.9,7.5-18.8,13.3-33.8c-8.9-5.5-16.3-11.6-23.8-16.6
			c2.3-6,7.4-13.3,11-20.9c-5.9-2.5-16.2-9.1-21.8-12.1c2-5.5,2.1-13.3,3.8-20.4c-9.2,0.3-13.4,0.8-20.6,0.3
			c-1.3-6.1-1.6-8.3-5.7-20.3c-9.2,4.8-9.9,5.2-16.2,7.9C-884.3,104.4-890.4,100.2-896,96.3"/>
	</g>
	<path fill="none" stroke="#FFFFFF" stroke-width="5" stroke-linecap="round" stroke-miterlimit="10" d="M-798.2,237.4
		c0,0-5,3.3-14.5,4.3s-17.4-2-21.8-10"/>
	<circle fill="#FFFFFF" cx="-847.8" cy="185.1" r="5.2"/>
</g>
<g>
	<g>
		<path fill="#1D1D1B" d="M-710.1,318.1c-1.1,18.1-22.7,222.4-28,276.1c5.1,0.7,15.9,0.9,21,1.7c9.8-81.7,23.4-257.6,25.5-277.8
			c7.5-5.2,28.5-33.8,39.3-42.3c3.8-16.6,16.2-96,18.6-116.2c-4.9-0.8-15-2.7-21.1-2.7c-1.2,8.3-9,81.8-10.8,92.2
			c-5.2,0-10.8-0.2-19.4-0.7c2.6-25.6,8.8-70.9,11.2-96.8c-5.1-0.4-15.6-2.8-19-2.2c-1.2,8.3-10.2,87.2-11.5,98.3
			c-4.3,0.2-9.4-2.2-15.9-2.1c1-17.8,6.9-79,7.1-98.2c-6.2,0.2-11.6,0.2-19.8-0.7c-0.6,12.4-7.6,109.6-7.5,122.4
			C-730.9,280-715.1,317.4-710.1,318.1"/>
	</g>
	<path fill="none" stroke="#FFFFFF" stroke-width="5" stroke-linecap="round" stroke-miterlimit="10" d="M-712.4,284.1
		c0,0,3.9,9.3,11.5,10.5c14,2.3,18.5-9.5,18.5-9.5"/>
	<circle fill="#FFFFFF" cx="-708.2" cy="264.5" r="5.2"/>
	<circle fill="#FFFFFF" cx="-681.9" cy="267" r="5.2"/>
</g>
<g>
	<g>
		<path fill="#1D1D1B" d="M-935.1,468.3c-35.1-10.2-37.5-58.8-25.5-79c10.5-17,22.5-28,42.2-29c8.8-0.4,30.9,3.4,39.3,17
			c20.8,30.1,12.4,69.5-5.8,83.9c-8.7,6.9-21,11.5-30.8,11c-3,16-31,146.1-36.1,166.7c-6.1-1.7-10.9-2.9-19.3-5.1
			C-967.1,617.5-940.2,489.8-935.1,468.3"/>
	</g>
	<path fill="#FFFFFF" d="M-901.8,438.4c0,0,0,15.2-18.8,12.5c-11.1-1.6-11.1-14.7-11.1-14.7L-901.8,438.4z"/>
	<circle fill="#FFFFFF" cx="-927.2" cy="420.6" r="5.2"/>
	<circle fill="#FFFFFF" cx="-900.9" cy="423.8" r="5.2"/>
</g>
<g>
	<path fill="#F28019" d="M1574.9,679.2c0,0,22-2.8,23.7-2.8s0-25.9,0-25.9h10.2v24.2l54.2,4.5v6.2l11.8-14.6l-7.9-5.7l7.9-7.3
		l22.6,13l-5.1,7.3l-9-3.9l-6.2,15.2h41.8l18.6-35.5l7.9,7.3l-15.8,28.1h11.8l-0.6,8.5l-15.2,3.3c0,0,29.9,12.4,27.6,38.4
		c0,0-6.2,46.8-49.7,45.1c-43.4-1.7-45.1-28.6-46.3-37.2c-10.2-0.1-66,0-66,0s5,5.1,3.9,13.5c-1.1,8.4-7.3,21.9-20.3,20.8
		c-13-1.1-22-6.6-21.4-18.2c0.6-11.7,5.1-20.5,20.9-21.7C1573.2,725.4,1574.3,675.8,1574.9,679.2z"/>
	<path fill="#FFFFFF" d="M1702.4,722.8c0,0,16.9,2.8,15.2,15.8c-1.7,13-6.8,16.5-15.2,15.3c-8.5-1.2-18.6-3.7-16.9-15.4
		C1687.2,726.8,1693.9,723.4,1702.4,722.8z"/>
	<path fill="#FFFFFF" d="M1573.9,757.4c0,0,4.7,0.8,4.3,4.4c-0.5,3.6-1.9,4.6-4.3,4.3c-2.4-0.3-5.2-1-4.7-4.3
		C1569.7,758.5,1571.6,757.6,1573.9,757.4z"/>
	<rect x="1592.5" y="691.4" fill="#FFFFFF" width="4.2" height="35.5"/>
	<rect x="1607.3" y="691.4" fill="#FFFFFF" width="4.2" height="35.5"/>
	<rect x="1622.1" y="691.4" fill="#FFFFFF" width="4.2" height="35.5"/>
	<rect x="1636.9" y="691.4" fill="#FFFFFF" width="4.2" height="35.5"/>
	<path fill="#C6C6C1" d="M1780.4,689.8c0,0,0.2-15.4,13.3-11.3c3.9-3.2,8.4-12.9,18.2-5.9c11.9-0.1,19.1-3.7,23.9,4.8
		c8.5,5.8,15,12,10.6,18.9c3.3,9.1,8.2,13.3,4.5,17.2c-3.7,3.9-6.9,4.3-16.1,1.3c-9.2-3-11.6-14-11.6-14s-1.8,7.9-10.9,6.8
		c-9.1-1.1-15.5-10.2-15.5-10.2s-0.9,7.4-7.3,5.2c-6.4-2.2-10.9-10.1-17.4-8c-6.6,2.1-13.4,0.8-13.4,0.8l12.4-6.7L1780.4,689.8z"/>
</g>
<g>
	<path fill="#F28019" d="M-467.1,679.2c0,0,22-2.8,23.7-2.8c1.7,0,0-25.9,0-25.9h10.2v24.2l54.2,4.5v6.2l11.8-14.6l-7.9-5.7l7.9-7.3
		l22.6,13l-5.1,7.3l-9-3.9l-6.2,15.2h41.8l18.6-35.5l7.9,7.3l-15.8,28.1h11.8l-0.6,8.5l-15.2,3.3c0,0,29.9,12.4,27.6,38.4
		c0,0-6.2,46.8-49.7,45.1c-43.4-1.7-45.1-28.6-46.3-37.2c-10.2-0.1-66,0-66,0s5,5.1,3.9,13.5c-1.1,8.4-7.3,21.9-20.3,20.8
		c-13-1.1-22-6.6-21.4-18.2c0.6-11.7,5.1-20.5,20.9-21.7C-468.8,725.4-467.7,675.8-467.1,679.2z"/>
	<path fill="#FFFFFF" d="M-339.6,722.8c0,0,16.9,2.8,15.2,15.8c-1.7,13-6.8,16.5-15.2,15.3c-8.5-1.2-18.6-3.7-16.9-15.4
		C-354.8,726.8-348.1,723.4-339.6,722.8z"/>
	<path fill="#FFFFFF" d="M-468.1,757.4c0,0,4.7,0.8,4.3,4.4c-0.5,3.6-1.9,4.6-4.3,4.3c-2.4-0.3-5.2-1-4.7-4.3
		C-472.3,758.5-470.4,757.6-468.1,757.4z"/>
	<rect x="-449.5" y="691.4" fill="#FFFFFF" width="4.2" height="35.5"/>
	<rect x="-434.7" y="691.4" fill="#FFFFFF" width="4.2" height="35.5"/>
	<rect x="-419.9" y="691.4" fill="#FFFFFF" width="4.2" height="35.5"/>
	<rect x="-405.1" y="691.4" fill="#FFFFFF" width="4.2" height="35.5"/>
	<path fill="#C6C6C1" d="M-261.6,689.8c0,0,0.2-15.4,13.3-11.3c3.9-3.2,8.4-12.9,18.2-5.9c11.9-0.1,19.1-3.7,23.9,4.8
		c8.5,5.8,15,12,10.6,18.9c3.3,9.1,8.2,13.3,4.5,17.2c-3.7,3.9-6.9,4.3-16.1,1.3c-9.2-3-11.6-14-11.6-14s-1.8,7.9-10.9,6.8
		c-9.1-1.1-15.5-10.2-15.5-10.2s-0.9,7.4-7.3,5.2c-6.4-2.2-10.9-10.1-17.4-8c-6.6,2.1-13.4,0.8-13.4,0.8l12.4-6.7L-261.6,689.8z"/>
</g>
<path fill="#E5E01F" d="M551.7,397.2c0,0,15.6-13.7,26.4-9c10.7,4.7,16.7,8.4,16.7,8.4s3.6-11.6,15.4-11.6c11.8,0,28.8,4.9,28.8,4.9
	s-14.8-1-21.4,1.1c-6.5,2.1-16.5,5.8-19,10.9c-2.4,5.1-2.4,5.1-2.4,5.1s-9.8-10.3-19-10.5C567.9,396.4,561.7,390.8,551.7,397.2z"/>
<path fill="#E5E01F" d="M660.8,357.8c0,0,15.6-13.7,26.4-9c10.7,4.7,16.7,8.4,16.7,8.4s3.6-11.6,15.4-11.6c11.8,0,28.8,4.9,28.8,4.9
	s-14.8-1-21.4,1.1c-6.5,2.1-16.5,5.8-19,10.9c-2.4,5.1-2.4,5.1-2.4,5.1s-9.8-10.3-19-10.5C677.1,357,670.8,351.3,660.8,357.8z"/>
<path fill="#E5E01F" d="M630,326.8c0,0,9.7-8.5,16.4-5.6c6.7,2.9,10.4,5.2,10.4,5.2s2.2-7.2,9.6-7.2c7.3,0,17.9,3,17.9,3
	s-9.2-0.6-13.3,0.7c-4.1,1.3-10.3,3.6-11.8,6.8c-1.5,3.2-1.5,3.2-1.5,3.2s-6.1-6.4-11.8-6.5C640.1,326.3,636.2,322.8,630,326.8z"/>
<path fill="#E5E01F" d="M-463.8,63.1c0,0,15.6-13.7,26.4-9c10.7,4.7,16.7,8.4,16.7,8.4s3.6-11.6,15.4-11.6c11.8,0,28.8,4.9,28.8,4.9
	s-14.8-1-21.4,1.1c-6.5,2.1-16.5,5.8-19,10.9c-2.4,5.1-2.4,5.1-2.4,5.1s-9.8-10.3-19-10.5C-447.5,62.3-453.8,56.7-463.8,63.1z"/>
<path fill="#E5E01F" d="M-354.6,23.7c0,0,15.6-13.7,26.4-9c10.7,4.7,16.7,8.4,16.7,8.4s3.6-11.6,15.4-11.6c11.8,0,28.8,4.9,28.8,4.9
	s-14.8-1-21.4,1.1c-6.5,2.1-16.5,5.8-19,10.9c-2.4,5.1-2.4,5.1-2.4,5.1s-9.8-10.3-19-10.5S-344.6,17.2-354.6,23.7z"/>
<path fill="#E5E01F" d="M-385.5-7.3c0,0,9.7-8.5,16.4-5.6c6.7,2.9,10.4,5.2,10.4,5.2s2.2-7.2,9.6-7.2c7.3,0,17.9,3,17.9,3
	s-9.2-0.6-13.3,0.7c-4.1,1.3-10.3,3.6-11.8,6.8c-1.5,3.2-1.5,3.2-1.5,3.2s-6.1-6.4-11.8-6.5C-375.4-7.8-379.3-11.3-385.5-7.3z"/>
<g>
	<path fill="#AFE1E2" d="M1302.5,144.9c0,0,10.4-13.5,31.9-6.6c18.6,6,23.4,13.1,25.8,22.4c7.3-5.2,23.3-0.9,22.6,10
		c-0.6,8.4-8.3,12-8.3,12s10.6,10.2,6.9,17.9c-8.4,17.5-25.9,9.4-25.9,9.4s3.8,26.7-23.1,32.2c-26.9,5.6-34.6-18-34.6-18
		s-12.2,24.8-41.3,21.9c-29.1-3-29.8-26.9-29.8-26.9s-17.8,10.7-39.4,0.3c-21.6-10.4-15.7-19.8-15.7-19.8s-16.2-2.2-14.9-17.5
		c1.4-16.2,19-13.3,19-13.3s-5.3-44.8,60.5-24.7c0,0,11.1-18.4,35-16.9C1295.2,128.9,1297.6,136.1,1302.5,144.9z"/>
	<path fill="#AFE1E2" d="M1218.9,261.4c0,0-11.9,13.8-6.9,16.9s6.3-2.2,6.9-4.9S1218.9,261.4,1218.9,261.4z"/>
	<path fill="#AFE1E2" d="M1239.4,284.1c0,0-11.9,13.8-6.9,16.9s6.3-2.2,6.9-4.9S1239.4,284.1,1239.4,284.1z"/>
	<path fill="#AFE1E2" d="M1214.6,304.6c0,0-11.9,13.8-6.9,16.9c4.9,3.1,6.3-2.2,6.9-4.9S1214.6,304.6,1214.6,304.6z"/>
	<path fill="#AFE1E2" d="M1207.6,361.5c0,0-11.9,13.8-6.9,16.9s6.3-2.2,6.9-4.9S1207.6,361.5,1207.6,361.5z"/>
	<path fill="#AFE1E2" d="M1300.3,261.4c0,0-11.9,13.8-6.9,16.9s6.3-2.2,6.9-4.9S1300.3,261.4,1300.3,261.4z"/>
	<path fill="#AFE1E2" d="M1273.7,297.8c0,0-11.9,13.8-6.9,16.9s6.3-2.2,6.9-4.9S1273.7,297.8,1273.7,297.8z"/>
	<path fill="#AFE1E2" d="M1246.6,335.2c0,0-11.9,13.8-6.9,16.9c4.9,3.1,6.3-2.2,6.9-4.9C1247.3,344.5,1246.6,335.2,1246.6,335.2z"/>
	<path fill="#AFE1E2" d="M1242.4,423.1c0,0-11.9,13.8-6.9,16.9s6.3-2.2,6.9-4.9C1243.1,432.5,1242.4,423.1,1242.4,423.1z"/>
</g>
<g>
	<path fill="#AFE1E2" d="M-218.5,217.2c0,0,10.4-13.5,31.9-6.6c18.6,6,23.4,13.1,25.8,22.4c7.3-5.2,23.3-0.9,22.6,10
		c-0.6,8.4-8.3,12-8.3,12s10.6,10.2,6.9,17.9c-8.4,17.5-25.9,9.4-25.9,9.4s3.8,26.7-23.1,32.2c-26.9,5.6-34.6-18-34.6-18
		s-12.2,24.8-41.3,21.9c-29.1-3-29.8-26.9-29.8-26.9s-17.8,10.7-39.4,0.3c-21.6-10.4-15.7-19.8-15.7-19.8s-16.2-2.2-14.9-17.5
		c1.4-16.2,19-13.3,19-13.3s-5.3-44.8,60.5-24.7c0,0,11.1-18.4,35-16.9C-225.8,201.2-223.4,208.4-218.5,217.2z"/>
	<path fill="#AFE1E2" d="M-302.1,333.8c0,0-11.9,13.8-6.9,16.9c4.9,3.1,6.3-2.2,6.9-4.9S-302.1,333.8-302.1,333.8z"/>
	<path fill="#AFE1E2" d="M-281.6,356.4c0,0-11.9,13.8-6.9,16.9c4.9,3.1,6.3-2.2,6.9-4.9C-280.9,365.8-281.6,356.4-281.6,356.4z"/>
	<path fill="#AFE1E2" d="M-306.3,377c0,0-11.9,13.8-6.9,16.9c4.9,3.1,6.3-2.2,6.9-4.9C-305.7,386.3-306.3,377-306.3,377z"/>
	<path fill="#AFE1E2" d="M-313.4,433.8c0,0-11.9,13.8-6.9,16.9c4.9,3.1,6.3-2.2,6.9-4.9C-312.7,443.2-313.4,433.8-313.4,433.8z"/>
	<path fill="#AFE1E2" d="M-220.7,333.8c0,0-11.9,13.8-6.9,16.9c4.9,3.1,6.3-2.2,6.9-4.9C-220,343.1-220.7,333.8-220.7,333.8z"/>
	<path fill="#AFE1E2" d="M-247.3,370.1c0,0-11.9,13.8-6.9,16.9c4.9,3.1,6.3-2.2,6.9-4.9C-246.6,379.5-247.3,370.1-247.3,370.1z"/>
	<path fill="#AFE1E2" d="M-274.4,407.5c0,0-11.9,13.8-6.9,16.9c4.9,3.1,6.3-2.2,6.9-4.9S-274.4,407.5-274.4,407.5z"/>
	<path fill="#AFE1E2" d="M-278.6,495.5c0,0-11.9,13.8-6.9,16.9c4.9,3.1,6.3-2.2,6.9-4.9C-277.9,504.8-278.6,495.5-278.6,495.5z"/>
</g>
<g>
	<g>
		<path fill="#DDCD8A" d="M1388,714.9c0,0,11.1,14.3,17.8,16.7c6.8,2.4,10.7-7.4,10.7-7.4s11,0.9,15,3.8c0.5-10.3,5-17.7,5.9-23.2
			c5.1,9.2,5.3,20.3,2.1,28.4c11.5-9.8,24.5-21.6,24.5-21.6s13,2.7,9.7,13.6c-3.3,10.9-11.1,15.3-21.6,19.7
			c3.5,14,14.3,32.4,16.3,35.3c1.9,2.9,17.2,16,11.2,25.4c-6,9.4-28.9,28.3-44.3,17.2c-15.3-11.1-18.6-16-18.6-16
			s-2.4,7.5-11.3,35.3c-8.9,27.9-22.9,47.9-20.2,63.2c2.7,15.3,6.6,35.5,6.2,45.1c-0.5,9.6-14.8,7.6-14.8,7.6s-10.4,1.6-23.2-34.9
			c-12.8-36.5-33.9-40.9-49.8-40.3c-15.9,0.6-8.9-0.4-8.9-0.4s2.9,7.7-2.1,13.7c-5,6-26.6,11.2-40,3c-4.8,14.3-8.1,25.8-6.6,37.6
			c1.5,11.8,1.1,20.7-1.9,24.7c-2.9,4-24.8,0.2-24.8,0.2s-22.2-12.8-18.6-73.3c0.5-24.8-2-30.4-3.8-36.7
			c-4.6,10.1-9.9,20.2-9.9,20.2l-8,23.8l-5.1-8.5l6.7-10l-11.3,6.4l0.3-6.9l7.9-5.8l-12.1-6.1l0.3-6.9l14.8,8.3
			c0,0,9.1-16.8,12.3-27c3.2-10.2,10.9-40.9,10.9-40.9l22.8-15.5c0,0,25.1-6.4,52.6-3.7c27.5,2.7,65.2,7.2,76.6,0.1
			c11.4-7.1,16-17.2,16-17.2s-4.1-0.2-12.6-10.9c-8.5-10.7-5.7-10.6-5.7-10.6s3-4.7,16-3.4c13,1.3,22,1,22,1S1385.2,730,1388,714.9z
			"/>
		<path fill="#DDCD8A" d="M1270.6,892.5l2.8,20.1c0,0,0.3,7.1-2.5,6.8c-2.8-0.3-3.9-1.4-4.2-7.4c-0.4-6-0.7-19-0.7-19"/>
		<path fill="#DDCD8A" d="M1281,893l8.4,18.5c0,0,2.3,6.7-0.5,7.2c-2.8,0.5-4.1-0.3-6.2-5.9c-2-5.7-6-18-6-18"/>
		<path fill="#DDCD8A" d="M1287,886.5l13.5,15.2c0,0,4.2,5.7,1.7,7c-2.5,1.3-4,0.9-7.6-3.9c-3.6-4.8-11.1-15.4-11.1-15.4"/>
		<path fill="#FFFFFF" d="M1442.6,803.9c0,0,0.6,7.8,1.9,8.4c1.4,0.5,5.8,4,5.8,4l-3.7-10.3L1442.6,803.9z"/>
		<path fill="#FFFFFF" d="M1458.5,797.2c0,0-2.2,7.6-1.1,8.5c1.1,1,4.1,5.7,4.1,5.7l0.1-10.9L1458.5,797.2z"/>
	</g>
	<g>
		<path fill="#FFFFFF" d="M1396,762.3c-1.3-1.3,0.8-13.9,5.7-12.6c10.8,2.9,2.5,10.4-0.1,13.5c3.1-3.1,10.1-1,10.1,4.4
			c0,6.9-6.8,4.3-12,3.8c1.9,3.1,5.7,11.3-1.8,11.3c-5.7,0-5.1-6.3-5.1-10.7c-3.8,3.1-9.4,9.4-13.1,1.3c-3.1-7.5,5-6.6,10.1-7.9
			c-8.8-1.9-8-10.8-4.7-12.9C1389.8,749.5,1396,756.6,1396,762.3"/>
	</g>
</g>
<g>
	<g>
		<path fill="#DDCD8A" d="M-675.5,714.9c0,0,11.1,14.3,17.8,16.7c6.8,2.4,10.7-7.4,10.7-7.4s11,0.9,15,3.8c0.5-10.3,5-17.7,5.9-23.2
			c5.1,9.2,5.3,20.3,2.1,28.4c11.5-9.8,24.5-21.6,24.5-21.6s13,2.7,9.7,13.6c-3.3,10.9-11.1,15.3-21.6,19.7
			c3.5,14,14.3,32.4,16.3,35.3c1.9,2.9,17.2,16,11.2,25.4c-6,9.4-28.9,28.3-44.3,17.2c-15.3-11.1-18.6-16-18.6-16
			s-2.4,7.5-11.3,35.3c-8.9,27.9-22.9,47.9-20.2,63.2c2.7,15.3,6.6,35.5,6.2,45.1c-0.5,9.6-14.8,7.6-14.8,7.6s-10.4,1.6-23.2-34.9
			c-12.8-36.5-33.9-40.9-49.8-40.3c-15.9,0.6-8.9-0.4-8.9-0.4s2.9,7.7-2.1,13.7c-5,6-26.6,11.2-40,3c-4.8,14.3-8.1,25.8-6.6,37.6
			c1.5,11.8,1.1,20.7-1.9,24.7c-2.9,4-24.8,0.2-24.8,0.2s-22.2-12.8-18.6-73.3c0.5-24.8-2-30.4-3.8-36.7
			c-4.6,10.1-9.9,20.2-9.9,20.2l-8,23.8l-5.1-8.5l6.7-10l-11.3,6.4l0.3-6.9l7.9-5.8l-12.1-6.1l0.3-6.9l14.8,8.3
			c0,0,9.1-16.8,12.3-27c3.2-10.2,10.9-40.9,10.9-40.9l22.8-15.5c0,0,25.1-6.4,52.6-3.7c27.5,2.7,65.2,7.2,76.6,0.1
			c11.4-7.1,16-17.2,16-17.2s-4.1-0.2-12.6-10.9c-8.5-10.7-5.7-10.6-5.7-10.6s3-4.7,16-3.4c13,1.3,22,1,22,1S-678.2,730-675.5,714.9
			z"/>
		<path fill="#DDCD8A" d="M-792.8,892.5l2.8,20.1c0,0,0.3,7.1-2.5,6.8c-2.8-0.3-3.9-1.4-4.2-7.4c-0.4-6-0.7-19-0.7-19"/>
		<path fill="#DDCD8A" d="M-782.4,893l8.4,18.5c0,0,2.3,6.7-0.5,7.2c-2.8,0.5-4.1-0.3-6.2-5.9c-2-5.7-6-18-6-18"/>
		<path fill="#DDCD8A" d="M-776.4,886.5l13.5,15.2c0,0,4.2,5.7,1.7,7c-2.5,1.3-4,0.9-7.6-3.9c-3.6-4.8-11.1-15.4-11.1-15.4"/>
		<path fill="#FFFFFF" d="M-620.9,803.9c0,0,0.6,7.8,1.9,8.4c1.4,0.5,5.8,4,5.8,4l-3.7-10.3L-620.9,803.9z"/>
		<path fill="#FFFFFF" d="M-604.9,797.2c0,0-2.2,7.6-1.1,8.5c1.1,1,4.1,5.7,4.1,5.7l0.1-10.9L-604.9,797.2z"/>
	</g>
	<g>
		<path fill="#FFFFFF" d="M-667.4,762.3c-1.3-1.3,0.8-13.9,5.7-12.6c10.8,2.9,2.5,10.4-0.1,13.5c3.1-3.1,10.1-1,10.1,4.4
			c0,6.9-6.8,4.3-12,3.8c1.9,3.1,5.7,11.3-1.8,11.3c-5.7,0-5.1-6.3-5.1-10.7c-3.8,3.1-9.4,9.4-13.1,1.3c-3.1-7.5,5-6.6,10.1-7.9
			c-8.8-1.9-8-10.8-4.7-12.9C-673.6,749.5-667.4,756.6-667.4,762.3"/>
	</g>
</g>
<g>
	<g>
		<g>
			<path fill="#FFFFFF" d="M1422.6,923.7c-1.5,5.9-2.7,11.9-2.8,18c0,3.2,5,3.2,5,0c0.1-5.7,1.2-11.2,2.6-16.7
				C1428.2,921.9,1423.4,920.5,1422.6,923.7L1422.6,923.7z"/>
		</g>
	</g>
	<g>
		<g>
			<path fill="#FFFFFF" d="M1432.5,939c0.7,5.6,1.6,10.9,4.3,15.9c1.5,2.8,5.9,0.3,4.3-2.5c-2.3-4.2-3.1-8.7-3.7-13.4
				C1437.1,935.9,1432.1,935.8,1432.5,939L1432.5,939z"/>
		</g>
	</g>
	<g>
		<g>
			<path fill="#FFFFFF" d="M1465.3,914.3c-1.3,5.1-3.2,10.1-4,15.3c-0.5,3.1,4.4,4.5,4.8,1.3c0.8-5.3,2.7-10.2,4-15.3
				C1470.9,912.5,1466.1,911.2,1465.3,914.3L1465.3,914.3z"/>
		</g>
	</g>
	<g>
		<g>
			<path fill="#FFFFFF" d="M1287.2,958.3c0.2,5,2.4,9.2,5.4,13.1c2,2.5,5.5-1,3.5-3.5c-2.2-2.8-3.8-6-3.9-9.6
				C1292.1,955.1,1287.1,955.1,1287.2,958.3L1287.2,958.3z"/>
		</g>
	</g>
	<g>
		<g>
			<path fill="#FFFFFF" d="M1301.3,949.7c0.7,3.7,0.7,7.6,1.3,11.3c0.5,3.2,5.3,1.8,4.8-1.3c-0.6-3.8-0.6-7.6-1.3-11.3
				C1305.5,945.2,1300.7,946.5,1301.3,949.7L1301.3,949.7z"/>
		</g>
	</g>
	<g>
		<g>
			<path fill="#FFFFFF" d="M1335.8,953c-0.2,7.1-2.5,13.8-3.9,20.7c-0.7,3.1,4.2,4.5,4.8,1.3c1.6-7.3,3.9-14.4,4.1-22
				C1340.9,949.8,1335.9,949.8,1335.8,953L1335.8,953z"/>
		</g>
	</g>
	<g>
		<g>
			<path fill="#FFFFFF" d="M1119.9,951.7c1.5,4.4,3.1,8.8,7.1,11.5c2.7,1.8,5.2-2.6,2.5-4.3c-2.8-1.8-3.8-5.5-4.9-8.5
				C1123.7,947.3,1118.9,948.6,1119.9,951.7L1119.9,951.7z"/>
		</g>
	</g>
	<g>
		<g>
			<path fill="#FFFFFF" d="M1134.5,911.7c0.1,5.1,1.4,10,3.7,14.6c1.4,2.9,5.7,0.4,4.3-2.5c-1.8-3.8-2.9-7.8-3-12.1
				C1139.4,908.5,1134.4,908.4,1134.5,911.7L1134.5,911.7z"/>
		</g>
	</g>
	<g>
		<g>
			<path fill="#FFFFFF" d="M1161.8,944.3c0,6.7-0.6,13.3,0,20c0.3,3.2,5.3,3.2,5,0c-0.6-6.7,0-13.3,0-20
				C1166.9,941.1,1161.9,941.1,1161.8,944.3L1161.8,944.3z"/>
		</g>
	</g>
	<g>
		<g>
			<path fill="#FFFFFF" d="M1522.6,763c0.7,4.5,2.1,8.9,4.9,12.6c1.9,2.5,6.3,0,4.3-2.5c-2.6-3.4-3.8-7.2-4.4-11.4
				C1526.9,758.5,1522.1,759.8,1522.6,763L1522.6,763z"/>
		</g>
	</g>
	<g>
		<g>
			<path fill="#FFFFFF" d="M1541.8,782.3c0.6,4.9,0.8,9.8,1.3,14.7c0.4,3.2,5.4,3.2,5,0c-0.6-4.9-0.7-9.8-1.3-14.7
				C1546.4,779.2,1541.4,779.1,1541.8,782.3L1541.8,782.3z"/>
		</g>
	</g>
	<g>
		<g>
			<path fill="#FFFFFF" d="M1768.6,755.7c-0.7,4-1.9,8-2.7,12c-0.6,3.1,4.3,4.5,4.8,1.3c0.7-4,1.9-8,2.7-12
				C1774,753.9,1769.2,752.5,1768.6,755.7L1768.6,755.7z"/>
		</g>
	</g>
	<g>
		<g>
			<path fill="#FFFFFF" d="M1795.3,768.3c0.6,2.8,0.6,5.8,0.6,8.7c0,3.2,5,3.2,5,0c0-3.3,0-6.7-0.8-10
				C1799.4,763.9,1794.5,765.2,1795.3,768.3L1795.3,768.3z"/>
		</g>
	</g>
	<g>
		<g>
			<path fill="#FFFFFF" d="M1845.3,746.3c-0.6,4.6,0.6,8.6,2.9,12.6c1.6,2.8,6,0.3,4.3-2.5c-1.6-2.7-2.9-5.5-2.4-8.7
				C1850.5,744.5,1845.7,743.2,1845.3,746.3L1845.3,746.3z"/>
		</g>
	</g>
	<g>
		<g>
			<path fill="#FFFFFF" d="M1879.3,720.3c1.2,4.4,1.9,8.9,2.7,13.3c0.5,3.2,5.3,1.8,4.8-1.3c-0.7-4.5-1.5-8.9-2.7-13.3
				C1883.2,715.9,1878.4,717.2,1879.3,720.3L1879.3,720.3z"/>
		</g>
	</g>
	<g>
		<g>
			<path fill="#FFFFFF" d="M1888.6,779.7c0.6,3.1,0.6,6.2,0.6,9.3c0,3.2,5,3.2,5,0c0-3.6-0.1-7.1-0.8-10.7
				C1892.8,775.2,1888,776.5,1888.6,779.7L1888.6,779.7z"/>
		</g>
	</g>
	<g>
		<g>
			<path fill="#FFFFFF" d="M1827.3,802.3c0.7,3.6,1.4,7.2,2.7,10.7c1.1,3,6,1.7,4.8-1.3c-1.3-3.4-2-7.1-2.7-10.7
				C1831.5,797.8,1826.6,799.2,1827.3,802.3L1827.3,802.3z"/>
		</g>
	</g>
	<g>
		<g>
			<path fill="#FFFFFF" d="M1637.5,789.7c-1.5,3.2-2.3,6.4-2.3,9.9c0,3.2,5,3.2,5,0c0-2.6,0.5-5,1.7-7.4
				C1643.2,789.4,1638.9,786.8,1637.5,789.7L1637.5,789.7z"/>
		</g>
	</g>
	<g>
		<g>
			<path fill="#FFFFFF" d="M1695.8,806.3c0,3.6,0.1,7.1,0.8,10.7c0.6,3.2,5.4,1.8,4.8-1.3c-0.6-3.1-0.6-6.2-0.6-9.3
				C1700.8,803.1,1695.8,803.1,1695.8,806.3L1695.8,806.3z"/>
		</g>
	</g>
	<g>
		<g>
			<path fill="#FFFFFF" d="M1757.9,822.3c0.7,3.6,1.4,7.2,2.7,10.7c1.1,3,6,1.7,4.8-1.3c-1.3-3.4-2-7.1-2.7-10.7
				C1762.1,817.8,1757.3,819.2,1757.9,822.3L1757.9,822.3z"/>
		</g>
	</g>
	<g>
		<g>
			<path fill="#FFFFFF" d="M1639.9,873.7c-1.3,4.1-1.4,8.4-1.4,12.7c0,3.2,5,3.2,5,0c0-3.9,0.1-7.6,1.2-11.3
				C1645.7,871.9,1640.9,870.6,1639.9,873.7L1639.9,873.7z"/>
		</g>
	</g>
	<g>
		<g>
			<path fill="#FFFFFF" d="M1723.3,901c-1.4,3.9-0.8,8.2,0.7,12c1.1,3,6,1.7,4.8-1.3c-1.2-3.1-1.8-6.2-0.7-9.3
				C1729.2,899.3,1724.3,898,1723.3,901L1723.3,901z"/>
		</g>
	</g>
	<g>
		<g>
			<path fill="#FFFFFF" d="M1808.6,903c1.8,5.9,2.1,12,3.3,18c0.7,3.1,5.5,1.8,4.8-1.3c-1.2-6-1.5-12.1-3.3-18
				C1812.5,898.6,1807.6,899.9,1808.6,903L1808.6,903z"/>
		</g>
	</g>
	<g>
		<g>
			<path fill="#FFFFFF" d="M1766.5,948.3c0,3.6-0.6,7.1-1.2,10.7c-0.5,3.1,4.3,4.5,4.8,1.3c0.7-4,1.4-7.9,1.4-12
				C1771.5,945.1,1766.5,945.1,1766.5,948.3L1766.5,948.3z"/>
		</g>
	</g>
	<g>
		<g>
			<path fill="#FFFFFF" d="M1544.6,998.3c0.8,3.1,2.3,6,4.3,8.6c0.8,1.1,2.2,1.6,3.4,0.9c1.1-0.6,1.7-2.3,0.9-3.4
				c-1.7-2.3-3-4.7-3.7-7.4C1548.6,993.9,1543.8,995.2,1544.6,998.3L1544.6,998.3z"/>
		</g>
	</g>
	<g>
		<g>
			<path fill="#FFFFFF" d="M1557.9,999c0.6,2.6,0.6,5.3,0.6,8c0,3.2,5,3.2,5,0c0-3.1-0.1-6.3-0.8-9.3
				C1562,994.5,1557.2,995.9,1557.9,999L1557.9,999z"/>
		</g>
	</g>
	<g>
		<g>
			<path fill="#FFFFFF" d="M921.8,967c-0.1,6.3-1.2,12.5-2.6,18.7c-0.7,3.1,4.1,4.5,4.8,1.3c1.5-6.6,2.7-13.2,2.8-20
				C926.9,963.8,921.9,963.8,921.8,967L921.8,967z"/>
		</g>
	</g>
	<g>
		<g>
			<path fill="#FFFFFF" d="M903.3,973c1.2,4.9,2,9.8,3.3,14.7c0.9,3.1,5.7,1.8,4.8-1.3c-1.3-4.8-2.1-9.8-3.3-14.7
				C907.3,968.5,902.5,969.9,903.3,973L903.3,973z"/>
		</g>
	</g>
	<g>
		<g>
			<path fill="#FFFFFF" d="M903.8,834.3c0,4.5,0.7,9,2.1,13.3c1,3.1,5.8,1.7,4.8-1.3c-1.3-3.9-1.9-7.9-1.9-12
				C908.8,831.1,903.8,831.1,903.8,834.3L903.8,834.3z"/>
		</g>
	</g>
	<g>
		<g>
			<path fill="#FFFFFF" d="M999.2,897.3c0,2.9,0,5.8,0,8.7c0,3.2,5,3.2,5,0c0-2.9,0-5.8,0-8.7C1004.2,894.1,999.2,894.1,999.2,897.3
				L999.2,897.3z"/>
		</g>
	</g>
	<g>
		<g>
			<path fill="#FFFFFF" d="M1067.3,823.7c-1.3,5-1.4,10.2-2.1,15.3c-0.4,3.2,4.6,3.1,5,0c0.6-4.7,0.7-9.4,1.9-14
				C1072.9,821.9,1068.1,820.6,1067.3,823.7L1067.3,823.7z"/>
		</g>
	</g>
	<g>
		<g>
			<path fill="#FFFFFF" d="M1034.5,1014.7c1.3,4.4,2.5,8.7,2.6,13.3c0.1,3.2,5.1,3.2,5,0c-0.1-5-1.4-9.8-2.8-14.7
				C1038.4,1010.2,1033.6,1011.6,1034.5,1014.7L1034.5,1014.7z"/>
		</g>
	</g>
	<g>
		<g>
			<path fill="#FFFFFF" d="M1214.6,583c-1.5,4.6-2.7,9.2-2.8,14c-0.1,3.2,4.9,3.2,5,0c0.1-4.4,1.2-8.5,2.6-12.7
				C1220.4,581.3,1215.6,580,1214.6,583L1214.6,583z"/>
		</g>
	</g>
	<g>
		<g>
			<path fill="#FFFFFF" d="M1245.9,579c-0.7,3.1-0.7,6.2,0,9.3c0.7,3.1,5.5,1.8,4.8-1.3c-0.5-2.2-0.5-4.4,0-6.7
				C1251.5,577.2,1246.6,575.9,1245.9,579L1245.9,579z"/>
		</g>
	</g>
	<g>
		<g>
			<path fill="#FFFFFF" d="M1292.5,545c0,5.2,0.1,10.4,2.3,15.3c1.3,2.9,5.7,0.4,4.3-2.5c-1.8-3.9-1.7-8.5-1.7-12.7
				C1297.5,541.8,1292.5,541.8,1292.5,545L1292.5,545z"/>
		</g>
	</g>
	<g>
		<g>
			<path fill="#FFFFFF" d="M1305.9,613c1.3,3.3,1.9,6.5,1.9,10c0,3.2,5,3.2,5,0c0-3.9-0.7-7.7-2.1-11.3
				C1309.6,608.7,1304.8,610,1305.9,613L1305.9,613z"/>
		</g>
	</g>
	<g>
		<g>
			<path fill="#FFFFFF" d="M1240.5,642.3c0,3.3-0.6,6.7-0.7,10c0,3.2,5,3.2,5,0c0-3.3,0.6-6.7,0.7-10
				C1245.5,639.1,1240.5,639.1,1240.5,642.3L1240.5,642.3z"/>
		</g>
	</g>
	<g>
		<g>
			<path fill="#FFFFFF" d="M1371.8,620.3c0,3.7,0.8,7.3,2.3,10.6c1.4,2.9,5.7,0.4,4.3-2.5c-1.2-2.5-1.6-5.3-1.7-8.1
				C1376.8,617.1,1371.8,617.1,1371.8,620.3L1371.8,620.3z"/>
		</g>
	</g>
	<g>
		<g>
			<path fill="#FFFFFF" d="M1496.5,635c0.1,4.8,2.1,9.5,5,13.3c1.9,2.5,6.3,0,4.3-2.5c-2.4-3.1-4.2-6.8-4.3-10.7
				C1501.4,631.8,1496.4,631.8,1496.5,635L1496.5,635z"/>
		</g>
	</g>
	<g>
		<g>
			<path fill="#FFFFFF" d="M1862.8,601.7c-2.2,5-4.6,9.9-7.3,14.7c-1.6,2.8,2.7,5.3,4.3,2.5c2.7-4.8,5.2-9.6,7.3-14.7
				C1868.4,601.3,1864.1,598.8,1862.8,601.7L1862.8,601.7z"/>
		</g>
	</g>
	<g>
		<g>
			<path fill="#FFFFFF" d="M1782.6,566.3c-0.8,4.2-2.8,7.9-5.1,11.4c-1.8,2.7,2.6,5.2,4.3,2.5c2.5-3.9,4.7-8,5.6-12.6
				C1788,564.5,1783.2,563.2,1782.6,566.3L1782.6,566.3z"/>
		</g>
	</g>
	<g>
		<g>
			<path fill="#FFFFFF" d="M1571.8,481.7c0,4.7,1,9.3,4.7,12.4c2.4,2.1,6-1.4,3.5-3.5c-2.7-2.3-3.2-5.5-3.3-8.9
				C1576.8,478.5,1571.8,478.4,1571.8,481.7L1571.8,481.7z"/>
		</g>
	</g>
	<g>
		<g>
			<path fill="#FFFFFF" d="M1629.3,484.3c-0.7,3.5-1.4,7.1-1.4,10.7c0,3.2,5,3.2,5,0c0-3.2,0.6-6.2,1.2-9.3
				C1634.7,482.5,1629.9,481.2,1629.3,484.3L1629.3,484.3z"/>
		</g>
	</g>
	<g>
		<g>
			<path fill="#FFFFFF" d="M1587.2,591.7c-0.1,4.4-1.4,8.5-2.6,12.7c-0.9,3.1,3.9,4.4,4.8,1.3c1.3-4.6,2.7-9.2,2.8-14
				C1592.2,588.4,1587.2,588.4,1587.2,591.7L1587.2,591.7z"/>
		</g>
	</g>
	<g>
		<g>
			<path fill="#FFFFFF" d="M1155.3,711.7c-1.3,5.9-4.1,11-8,15.6c-2.1,2.4,1.5,6,3.5,3.5c4.4-5.3,7.8-11,9.3-17.8
				C1160.8,709.9,1155.9,708.5,1155.3,711.7L1155.3,711.7z"/>
		</g>
	</g>
	<g>
		<g>
			<path fill="#FFFFFF" d="M1071.2,721c0.7,5.1,0.7,10.2,0.7,15.3c0,3.2,5,3.2,5,0c0-5.1,0-10.2-0.7-15.3
				C1075.8,717.9,1070.7,717.8,1071.2,721L1071.2,721z"/>
		</g>
	</g>
	<g>
		<g>
			<path fill="#FFFFFF" d="M998.5,632.3c0,2.9,0.1,5.8,0.8,8.7c0.7,3.1,5.5,1.8,4.8-1.3c-0.6-2.4-0.6-4.9-0.6-7.3
				C1003.5,629.1,998.5,629.1,998.5,632.3L998.5,632.3z"/>
		</g>
	</g>
	<g>
		<g>
			<path fill="#FFFFFF" d="M1071.9,621c-0.8,2.3-1.9,4.4-2.7,6.7c-1.1,3,3.8,4.4,4.8,1.3c0.8-2.3,1.9-4.4,2.7-6.7
				C1077.8,619.3,1073,618,1071.9,621L1071.9,621z"/>
		</g>
	</g>
	<g>
		<g>
			<path fill="#FFFFFF" d="M755.8,776.3c0,3.6,0.9,7,3,9.9c1.9,2.6,6.2,0.1,4.3-2.5c-1.7-2.3-2.3-4.6-2.3-7.4
				C760.8,773.1,755.8,773.1,755.8,776.3L755.8,776.3z"/>
		</g>
	</g>
	<g>
		<g>
			<path fill="#FFFFFF" d="M808.6,740.3c-0.7,4.5,0,8.6,2.3,12.6c1.6,2.8,5.9,0.3,4.3-2.5c-1.6-2.7-2.2-5.6-1.7-8.7
				C813.9,738.5,809.1,737.2,808.6,740.3L808.6,740.3z"/>
		</g>
	</g>
	<g>
		<g>
			<path fill="#FFFFFF" d="M937.5,741.1c-3.4,6.4-5.6,13.2-8.3,19.9c-1.2,3,3.7,4.3,4.8,1.3c2.5-6.3,4.5-12.8,7.7-18.7
				C943.3,740.8,939,738.2,937.5,741.1L937.5,741.1z"/>
		</g>
	</g>
	<g>
		<g>
			<path fill="#FFFFFF" d="M447.3,851c-1.3,4.4-2.5,8.8-3.3,13.3c-0.6,3.1,4.3,4.5,4.8,1.3c0.8-4.5,2.1-8.9,3.3-13.3
				C453,849.2,448.1,847.9,447.3,851L447.3,851z"/>
		</g>
	</g>
	<g>
		<g>
			<path fill="#FFFFFF" d="M482.5,857.7c0,4.2-0.1,8.5-0.7,12.7c-0.4,3.2,4.6,3.1,5,0c0.6-4.2,0.7-8.4,0.7-12.7
				C487.5,854.4,482.5,854.4,482.5,857.7L482.5,857.7z"/>
		</g>
	</g>
	<g>
		<g>
			<path fill="#FFFFFF" d="M447.2,897c0,3.6,0.6,7.1,0.7,10.7c0,3.2,5,3.2,5,0c0-3.6-0.6-7.1-0.7-10.7
				C452.1,893.8,447.1,893.8,447.2,897L447.2,897z"/>
		</g>
	</g>
	<g>
		<g>
			<path fill="#FFFFFF" d="M326.9,835.5c-1-0.6-1.5-1.6-2.9-1.6c-1.8,0.1-2.9,1.7-2.9,3.4c0,3.6,1.5,7.1,3,10.3
				c1.4,2.9,5.7,0.4,4.3-2.5c-0.6-1.2-1.2-2.5-1.6-3.8c-0.2-0.6-0.4-1.3-0.5-1.9c-0.1-0.3-0.1-0.7-0.2-1c0.1-0.8-0.1-0.9-0.4-0.1
				c-0.6,0.2-1.2,0.5-1.8,0.7c-0.6,0-1.6-0.8-0.8,0.1c0.3,0.3,0.7,0.6,1.1,0.8C327.1,841.5,329.7,837.2,326.9,835.5L326.9,835.5z"/>
		</g>
	</g>
	<g>
		<g>
			<path fill="#FFFFFF" d="M355.2,841c0.1,5,0.8,9.9,2.1,14.7c0.9,3.1,5.7,1.8,4.8-1.3c-1.2-4.4-1.9-8.8-1.9-13.3
				C360.1,837.8,355.1,837.8,355.2,841L355.2,841z"/>
		</g>
	</g>
	<g>
		<g>
			<path fill="#FFFFFF" d="M294.8,876.9c1.8,2.5,2.5,5.1,3.1,8.1c0.6,3.2,5.5,1.8,4.8-1.3c-0.7-3.3-1.6-6.5-3.6-9.3
				C297.3,871.8,293,874.3,294.8,876.9L294.8,876.9z"/>
		</g>
	</g>
	<g>
		<g>
			<path fill="#FFFFFF" d="M201.3,890.3c-1.2,4.1-0.9,8.1,0.7,12c1.1,3,6,1.7,4.8-1.3c-1.2-3.2-1.7-6-0.7-9.3
				C207,888.6,202.2,887.3,201.3,890.3L201.3,890.3z"/>
		</g>
	</g>
	<g>
		<g>
			<path fill="#FFFFFF" d="M226.5,901c0,1.8-0.6,3.5-0.7,5.3c-0.1,3.2,4.9,3.2,5,0c0-1.8,0.6-3.5,0.7-5.3
				C231.6,897.8,226.6,897.8,226.5,901L226.5,901z"/>
		</g>
	</g>
	<g>
		<g>
			<path fill="#FFFFFF" d="M93.8,893c0,4.6,1.1,8.7,4.7,11.8c2.4,2.1,6-1.5,3.5-3.5c-2.6-2.2-3.2-4.9-3.3-8.2
				C98.8,889.8,93.8,889.8,93.8,893L93.8,893z"/>
		</g>
	</g>
	<g>
		<g>
			<path fill="#FFFFFF" d="M127.2,903.7c0.1,3.8,1.4,7.2,3,10.6c1.4,2.9,5.7,0.4,4.3-2.5c-1.3-2.5-2.3-5.2-2.3-8.1
				C132.1,900.5,127.1,900.4,127.2,903.7L127.2,903.7z"/>
		</g>
	</g>
	<g>
		<g>
			<path fill="#FFFFFF" d="M107.8,941c0,3.8,1,7.3,4.1,9.8c1.1,0.8,2.5,1,3.5,0c0.9-0.9,1.1-2.7,0-3.5c-2.1-1.6-2.6-3.7-2.6-6.2
				C112.8,937.8,107.8,937.8,107.8,941L107.8,941z"/>
		</g>
	</g>
	<g>
		<g>
			<path fill="#FFFFFF" d="M164.5,939c0,2.7,0,5.3,0,8c0,3.2,5,3.2,5,0c0-2.7,0-5.3,0-8C169.5,935.8,164.5,935.8,164.5,939
				L164.5,939z"/>
		</g>
	</g>
	<g>
		<g>
			<path fill="#FFFFFF" d="M287.9,949.9c-0.8,0.9-1.4,1.9-1.8,3.1c-0.1,0.4-0.2,0.8-0.4,1.2c-0.1,0.2-0.1,0.4-0.2,0.6
				c0,0.1-0.3,0.7-0.1,0.3c-0.6,1.2-0.3,2.7,0.9,3.4c1.1,0.6,2.8,0.3,3.4-0.9c0.4-0.8,0.6-1.7,0.9-2.6c0.1-0.4,0.2-0.8,0.4-1.1
				c-0.1,0.2,0-0.1,0.1-0.1c0.5-0.6-0.3,0.2,0.3-0.4c0.9-1,1-2.6,0-3.5C290.5,949,288.8,948.9,287.9,949.9L287.9,949.9z"/>
		</g>
	</g>
	<g>
		<g>
			<path fill="#FFFFFF" d="M479.3,762.3c-1.3,5-1.4,10.2-0.8,15.3c0.4,3.1,5.4,3.2,5,0c-0.6-4.7-0.6-9.4,0.6-14
				C484.9,760.6,480.1,759.2,479.3,762.3L479.3,762.3z"/>
		</g>
	</g>
	<g>
		<g>
			<path fill="#FFFFFF" d="M596.5,741.7c0,3.6,0.1,7.1,0.8,10.7c0.6,3.2,5.4,1.8,4.8-1.3c-0.6-3.1-0.6-6.2-0.6-9.3
				C601.5,738.4,596.5,738.4,596.5,741.7L596.5,741.7z"/>
		</g>
	</g>
	<g>
		<g>
			<path fill="#FFFFFF" d="M710.5,848.3c0,5.1,0,10.2,0.7,15.3c0.4,3.1,5.4,3.2,5,0c-0.7-5.1-0.7-10.2-0.7-15.3
				C715.5,845.1,710.5,845.1,710.5,848.3L710.5,848.3z"/>
		</g>
	</g>
	<g>
		<g>
			<path fill="#FFFFFF" d="M77.9,689.7c-0.7,2.9-1.3,5.8-2,8.7c-0.8,3.1,4.1,4.5,4.8,1.3c0.7-2.9,1.3-5.8,2-8.7
				C83.5,687.9,78.7,686.5,77.9,689.7L77.9,689.7z"/>
		</g>
	</g>
	<g>
		<g>
			<path fill="#FFFFFF" d="M54.6,615.7c0.6,2.6,0.6,5.3,0.6,8c0,3.2,5,3.2,5,0c0-3.1-0.1-6.3-0.8-9.3
				C58.7,611.2,53.9,612.5,54.6,615.7L54.6,615.7z"/>
		</g>
	</g>
	<g>
		<g>
			<path fill="#FFFFFF" d="M121.2,610.3c0.8,6.7,3.1,12.5,7.4,17.8c2,2.5,5.6-1.1,3.5-3.5c-3.4-4.1-5.3-9-5.9-14.2
				C125.8,607.2,120.8,607.1,121.2,610.3L121.2,610.3z"/>
		</g>
	</g>
	<g>
		<g>
			<path fill="#FFFFFF" d="M510.6,665c0.7,2.5,2,4.8,2.7,7.3c0.8,3.1,5.7,1.8,4.8-1.3c-0.7-2.5-2-4.8-2.7-7.3
				C514.6,660.6,509.8,661.9,510.6,665L510.6,665z"/>
		</g>
	</g>
	<g>
		<g>
			<path fill="#FFFFFF" d="M679.8,647.7c-0.8,6.3-3.8,12-5.9,18c-1.1,3,3.8,4.4,4.8,1.3c2.2-6.5,5.2-12.5,6.1-19.3
				C685.2,644.5,680.2,644.5,679.8,647.7L679.8,647.7z"/>
		</g>
	</g>
	<g>
		<g>
			<path fill="#FFFFFF" d="M488.8,1003.1c-3.5,5.6-7.4,10.9-10.7,16.7c-1.6,2.8,2.7,5.3,4.3,2.5c3.3-5.8,7.1-11.1,10.7-16.7
				C494.9,1002.9,490.6,1000.4,488.8,1003.1L488.8,1003.1z"/>
		</g>
	</g>
	<g>
		<g>
			<path fill="#FFFFFF" d="M365.8,1007c0,3.4-0.6,6.7-1.2,10c-0.6,3.1,4.2,4.5,4.8,1.3c0.7-3.8,1.4-7.5,1.4-11.3
				C370.9,1003.8,365.9,1003.8,365.8,1007L365.8,1007z"/>
		</g>
	</g>
	<g>
		<g>
			<path fill="#FFFFFF" d="M21.8,1009.7c0.2,5.7,3.3,10.3,7.9,13.5c2.7,1.8,5.2-2.5,2.5-4.3c-3.1-2.2-5.3-5.3-5.4-9.2
				C26.7,1006.5,21.7,1006.4,21.8,1009.7L21.8,1009.7z"/>
		</g>
	</g>
	<g>
		<g>
			<path fill="#FFFFFF" d="M614.5,890.3c0,4.7,0.1,9.3,0.7,14c0.4,3.1,5.4,3.2,5,0c-0.6-4.6-0.7-9.3-0.7-14
				C619.5,887.1,614.5,887.1,614.5,890.3L614.5,890.3z"/>
		</g>
	</g>
	<g>
		<g>
			<path fill="#FFFFFF" d="M795.5,955.7c-1.4,2.2-2.6,4.5-4,6.7c-1.8,2.7,2.6,5.2,4.3,2.5c1.4-2.2,2.6-4.5,4-6.7
				C801.6,955.6,797.3,953.1,795.5,955.7L795.5,955.7z"/>
		</g>
	</g>
	<g>
		<path fill="#FFFFFF" d="M569.9,675.3c-1-1,0.6-11.1,4.5-10c8.6,2.3,2,8.3,0,10.8c2.5-2.5,8.1-0.8,8,3.5c0,5.5-5.4,3.4-9.5,3
			c1.5,2.5,4.5,9-1.5,9c-4.5,0-4-5-4-8.5c-3,2.5-7.5,7.5-10.5,1c-2.5-6,4-5.3,8-6.3c-7-1.5-6.3-8.6-3.8-10.3
			C565,665.1,569.9,670.8,569.9,675.3"/>
	</g>
	<g>
		<path fill="#FFFFFF" d="M798.2,871.2c-1-1,0.6-11.1,4.5-10c8.6,2.3,2,8.3,0,10.8c2.5-2.5,8.1-0.8,8,3.5c0,5.5-5.4,3.4-9.5,3
			c1.5,2.5,4.5,9-1.5,9c-4.5,0-4-5-4-8.5c-3,2.5-7.5,7.5-10.5,1c-2.5-6,4-5.3,8-6.3c-7-1.5-6.3-8.6-3.8-10.3
			C793.3,861.1,798.2,866.7,798.2,871.2"/>
	</g>
	<g>
		<path fill="#FFFFFF" d="M583,966.6c-1-1,0.6-11.1,4.5-10c8.6,2.3,2,8.3,0,10.8c2.5-2.5,8.1-0.8,8,3.5c0,5.5-5.4,3.4-9.5,3
			c1.5,2.5,4.5,9-1.5,9c-4.5,0-4-5-4-8.5c-3,2.5-7.5,7.5-10.5,1c-2.5-6,4-5.3,8-6.3c-7-1.5-6.3-8.6-3.8-10.3
			C578,956.4,583,962.1,583,966.6"/>
	</g>
	<g>
		<path fill="#FFFFFF" d="M1538.6,911.9c-1-1,0.6-11.1,4.5-10c8.6,2.3,2,8.3,0,10.8c2.5-2.5,8.1-0.8,8,3.5c0,5.5-5.4,3.4-9.5,3
			c1.5,2.5,4.5,9-1.5,9c-4.5,0-4-5-4-8.5c-3,2.5-7.5,7.5-10.5,1c-2.5-6,4-5.3,8-6.3c-7-1.5-6.3-8.6-3.8-10.3
			C1533.6,901.7,1538.6,907.4,1538.6,911.9"/>
	</g>
	<g>
		<path fill="#FFFFFF" d="M1653.9,995.2c-1-1,0.6-11.1,4.5-10c8.6,2.3,2,8.3,0,10.8c2.5-2.5,8.1-0.8,8,3.5c0,5.5-5.4,3.4-9.5,3
			c1.5,2.5,4.5,9-1.5,9c-4.5,0-4-5-4-8.5c-3,2.5-7.5,7.5-10.5,1c-2.5-6,4-5.3,8-6.3c-7-1.5-6.3-8.6-3.8-10.3
			C1649,985.1,1653.9,990.7,1653.9,995.2"/>
	</g>
	<g>
		<path fill="#FFFFFF" d="M922.2,653.9c-1-1,0.6-11.1,4.5-10c8.6,2.3,2,8.3,0,10.8c2.5-2.5,8.1-0.8,8,3.5c0,5.5-5.4,3.4-9.5,3
			c1.5,2.5,4.5,9-1.5,9c-4.5,0-4-5-4-8.5c-3,2.5-7.5,7.5-10.5,1c-2.5-6,4-5.3,8-6.3c-7-1.5-6.3-8.6-3.8-10.3
			C917.3,643.7,922.2,649.4,922.2,653.9"/>
	</g>
	<g>
		<path fill="#FFFFFF" d="M1304.2,709.2c-1-1,0.6-11.1,4.5-10c8.6,2.3,2,8.3,0,10.8c2.5-2.5,8.1-0.8,8,3.5c0,5.5-5.4,3.4-9.5,3
			c1.5,2.5,4.5,9-1.5,9c-4.5,0-4-5-4-8.5c-3,2.5-7.5,7.5-10.5,1c-2.5-6,4-5.3,8-6.3c-7-1.5-6.3-8.6-3.8-10.3
			C1299.3,699.1,1304.2,704.7,1304.2,709.2"/>
	</g>
	<g>
		<path fill="#FFFFFF" d="M1731.3,588.6c-1-1,0.6-11.1,4.5-10c8.6,2.3,2,8.3,0,10.8c2.5-2.5,8.1-0.8,8,3.5c0,5.5-5.4,3.4-9.5,3
			c1.5,2.5,4.5,9-1.5,9c-4.5,0-4-5-4-8.5c-3,2.5-7.5,7.5-10.5,1c-2.5-6,4-5.3,8-6.3c-7-1.5-6.3-8.6-3.8-10.3
			C1726.4,578.4,1731.3,584.1,1731.3,588.6"/>
	</g>
	<g>
		<path fill="#FFFFFF" d="M127.5,994.6c-1-1,0.6-11.1,4.5-10c8.6,2.3,2,8.3,0,10.8c2.5-2.5,8.1-0.8,8,3.5c0,5.5-5.4,3.4-9.5,3
			c1.5,2.5,4.5,9-1.5,9c-4.5,0-4-5-4-8.5c-3,2.5-7.5,7.5-10.5,1c-2.5-6,4-5.3,8-6.3c-7-1.5-6.3-8.6-3.8-10.3
			C122.6,984.4,127.5,990.1,127.5,994.6"/>
	</g>
	<g>
		<path fill="#FFFFFF" d="M96.9,762.9c-1-1,0.6-11.1,4.5-10c8.6,2.3,2,8.3,0,10.8c2.5-2.5,8.1-0.8,8,3.5c0,5.5-5.4,3.4-9.5,3
			c1.5,2.5,4.5,9-1.5,9c-4.5,0-4-5-4-8.5c-3,2.5-7.5,7.5-10.5,1c-2.5-6,4-5.3,8-6.3c-7-1.5-6.3-8.6-3.8-10.3
			C91.9,752.7,96.9,758.4,96.9,762.9"/>
	</g>
</g>
<g>
	
		<ellipse transform="matrix(0.7607 -0.6491 0.6491 0.7607 -218.5675 1330.8345)" fill="#1D1D1B" cx="1695.6" cy="961.8" rx="4.2" ry="5.4"/>
	
		<ellipse transform="matrix(0.7607 -0.6491 0.6491 0.7607 -222.9749 1338.7615)" fill="#1D1D1B" cx="1704.1" cy="971.8" rx="4.3" ry="5.4"/>
	
		<ellipse transform="matrix(0.7607 -0.6491 0.6491 0.7607 -220.9394 1334.901)" fill="#1D1D1B" cx="1700.1" cy="967.1" rx="2.1" ry="2.7"/>
	
		<ellipse transform="matrix(0.7607 -0.649 0.649 0.7607 -213.2352 1327.0967)" fill="#1D1D1B" cx="1693.5" cy="952.8" rx="1" ry="1.2"/>
	
		<ellipse transform="matrix(0.761 -0.6487 0.6487 0.761 -218.5076 1323.4696)" fill="#1D1D1B" cx="1687" cy="958.3" rx="1" ry="1.2"/>
	<line fill="none" stroke="#1D1D1B" stroke-miterlimit="10" x1="1687" y1="958.3" x2="1691.6" y2="960.4"/>
	<line fill="none" stroke="#1D1D1B" stroke-miterlimit="10" x1="1693.8" y1="953.2" x2="1695" y2="957.9"/>
	<polyline fill="none" stroke="#1D1D1B" stroke-miterlimit="10" points="1691.5,972.5 1692,967.4 1696.8,964.6 	"/>
	<polyline fill="none" stroke="#1D1D1B" stroke-miterlimit="10" points="1694,975.4 1694.6,969.9 1699.1,967.3 	"/>
	<polyline fill="none" stroke="#1D1D1B" stroke-miterlimit="10" points="1696.7,977 1697,971.8 1700.7,971.1 	"/>
	<polyline fill="none" stroke="#1D1D1B" stroke-miterlimit="10" points="1705.9,958.6 1701,958.9 1697.5,962.7 	"/>
	<polyline fill="none" stroke="#1D1D1B" stroke-miterlimit="10" points="1707.8,962.6 1703.2,962.5 1700.2,965.8 	"/>
	<polyline fill="none" stroke="#1D1D1B" stroke-miterlimit="10" points="1710.7,966.1 1705.3,965.8 1704.5,968.9 	"/>
</g>
<g>
	
		<ellipse transform="matrix(0.7607 -0.6491 0.6491 0.7607 -461.7517 -201.1766)" fill="#1D1D1B" cx="-503.7" cy="525.7" rx="4.2" ry="5.4"/>
	
		<ellipse transform="matrix(0.7607 -0.6491 0.6491 0.7607 -466.1935 -193.3012)" fill="#1D1D1B" cx="-495.2" cy="535.6" rx="4.3" ry="5.4"/>
	
		<ellipse transform="matrix(0.7607 -0.6491 0.6491 0.7607 -464.0599 -196.9868)" fill="#1D1D1B" cx="-499.2" cy="530.9" rx="2.1" ry="2.7"/>
	
		<ellipse transform="matrix(0.7608 -0.649 0.649 0.7608 -456.2983 -204.7303)" fill="#1D1D1B" cx="-505.9" cy="516.6" rx="1" ry="1.2"/>
	
		<ellipse transform="matrix(0.761 -0.6487 0.6487 0.761 -461.1635 -207.5883)" fill="#1D1D1B" cx="-512.3" cy="522.1" rx="1" ry="1.2"/>
	<line fill="none" stroke="#1D1D1B" stroke-miterlimit="10" x1="-512.3" y1="522.1" x2="-507.8" y2="524.2"/>
	<line fill="none" stroke="#1D1D1B" stroke-miterlimit="10" x1="-505.5" y1="517" x2="-504.3" y2="521.7"/>
	<polyline fill="none" stroke="#1D1D1B" stroke-miterlimit="10" points="-507.8,536.3 -507.3,531.2 -502.5,528.4 	"/>
	<polyline fill="none" stroke="#1D1D1B" stroke-miterlimit="10" points="-505.3,539.2 -504.7,533.7 -500.2,531.1 	"/>
	<polyline fill="none" stroke="#1D1D1B" stroke-miterlimit="10" points="-502.6,540.8 -502.3,535.6 -498.6,534.9 	"/>
	<polyline fill="none" stroke="#1D1D1B" stroke-miterlimit="10" points="-493.5,522.5 -498.3,522.7 -501.8,526.5 	"/>
	<polyline fill="none" stroke="#1D1D1B" stroke-miterlimit="10" points="-491.5,526.4 -496.1,526.3 -499.2,529.7 	"/>
	<polyline fill="none" stroke="#1D1D1B" stroke-miterlimit="10" points="-488.6,529.9 -494.1,529.6 -494.9,532.8 	"/>
</g>
<rect id="_x3C_Slice_x3E_" fill="none" width="1920" height="1080"/>
</svg>
