<?xml version="1.0" encoding="utf-8"?>
<!-- Generator: Adobe Illustrator 18.1.1, SVG Export Plug-In . SVG Version: 6.00 Build 0)  -->
<svg version="1.1" id="Layer_1" xmlns="http://www.w3.org/2000/svg" xmlns:xlink="http://www.w3.org/1999/xlink" x="0px" y="0px"
	 viewBox="0 0 612 792" enable-background="new 0 0 612 792" xml:space="preserve">
<g>
	<g>
		<path fill="#1D1D1B" d="M266,306c-1.8,31.4-39.3,385.3-48.5,478.4c8.8,1.2,27.5,1.6,36.3,2.9c17-141.6,40.6-446.4,44.2-481.3
			c12.9-9,49.4-58.5,68-73.2c6.6-28.8,28.1-166.3,32.2-201.4c-8.6-1.4-26-4.6-36.5-4.6c-2,14.5-15.5,141.8-18.7,159.8
			c-9,0-18.7-0.3-33.6-1.1c4.6-44.3,15.2-122.8,19.4-167.6c-8.9-0.7-27-4.8-33-3.9c-2,14.5-17.7,151.1-20,170.4
			c-7.5,0.4-16.4-3.9-27.5-3.7c1.7-30.9,11.9-136.8,12.3-170.1c-10.7,0.4-20.1,0.4-34.3-1.3c-1.1,21.5-13.2,189.9-13,212
			C230,239.9,257.3,304.8,266,306"/>
	</g>
	<path fill="none" stroke="#FFFFFF" stroke-width="5" stroke-linecap="round" stroke-miterlimit="10" d="M262,247.1
		c0,0,6.8,16,19.9,18.2c24.2,4,32.1-16.5,32.1-16.5"/>
	<circle fill="#FFFFFF" cx="269.3" cy="213" r="9"/>
	<circle fill="#FFFFFF" cx="314.9" cy="217.3" r="9"/>
</g>
</svg>
