<?xml version="1.0" encoding="UTF-8" standalone="no"?>
<!DOCTYPE svg PUBLIC "-//W3C//DTD SVG 1.1//EN" "http://www.w3.org/Graphics/SVG/1.1/DTD/svg11.dtd">
<svg width="100%" height="100%" viewBox="0 0 1920 1080" version="1.1" xmlns="http://www.w3.org/2000/svg" xmlns:xlink="http://www.w3.org/1999/xlink" xml:space="preserve" style="fill-rule:evenodd;clip-rule:evenodd;stroke-miterlimit:10;">
    <g id="Calque-1">
        <path d="M0,555.844C71,551.073 253.003,558.729 325,555.729C482.492,548.229 1090.92,553.942 1221.42,556.942L0,555.844L0,1080L1920,1080L1920,576.012C1894.5,535.514 1750.56,338.677 1719.54,279.677C1681.49,314.24 1585.67,431.344 1575.06,438.773C1559.57,431.55 1515.06,372.777 1500.06,354.778C1479.06,329.279 1461.07,302.28 1440.07,276.782C1377.67,354.677 1247.33,529.523 1221.42,556.942" style="fill:rgb(93,163,20);fill-rule:nonzero;"/>
        <path d="M1340.27,403.149C1356.93,395.07 1371.86,383.584 1388.99,376.411L1386.56,375.768C1398.84,389.325 1407.33,405.899 1419.12,419.864C1419.96,420.86 1421.81,420.826 1422.66,419.864C1434.77,406.108 1444.99,390.82 1457.09,377.058L1453.56,377.058C1463.22,386.684 1473.17,396.097 1483.62,404.865C1484.49,405.591 1485.62,405.869 1486.65,405.256C1499.01,397.892 1508.11,387.516 1517.82,377.058C1520.01,374.699 1516.48,371.155 1514.28,373.523C1504.88,383.653 1496.1,393.803 1484.13,400.939L1487.16,401.33C1476.71,392.562 1466.75,383.148 1457.09,373.523C1456.17,372.607 1454.46,372.497 1453.56,373.523C1441.45,387.285 1431.24,402.572 1419.12,416.329L1422.66,416.329C1410.87,402.363 1402.38,385.799 1390.09,372.232C1389.56,371.643 1388.42,371.269 1387.66,371.589C1370.11,378.939 1354.81,390.558 1337.74,398.832C1334.84,400.238 1337.38,404.549 1340.27,403.149" style="fill:white;fill-rule:nonzero;"/>
        <path d="M1773.27,366.464C1765.95,375.3 1755.54,381.255 1746.56,388.233L1750.09,388.233C1737.29,378.26 1726.54,366.302 1715.14,354.832C1714.22,353.906 1712.52,353.818 1711.61,354.832C1699.07,368.864 1685.47,382.477 1670.12,393.439C1671.26,393.738 1672.4,394.037 1673.54,394.336C1669.96,387.499 1663.45,381.794 1658.18,376.297C1653.01,370.91 1646.08,365.38 1642.48,358.738C1640.95,355.903 1636.63,358.427 1638.17,361.262C1641.62,367.64 1648.02,372.946 1652.98,378.105C1658.49,383.821 1665.49,389.741 1669.22,396.86C1669.81,397.987 1671.57,398.523 1672.64,397.756C1688.36,386.533 1702.3,372.736 1715.14,358.367L1711.61,358.367C1723,369.837 1733.75,381.796 1746.56,391.768C1747.74,392.69 1748.91,392.688 1750.09,391.768C1759.07,384.791 1769.48,378.843 1776.81,369.999C1778.85,367.537 1775.33,363.979 1773.27,366.464" style="fill:white;fill-rule:nonzero;"/>
        <path d="M239.533,362.626C244.232,390.08 328.947,730.959 351.508,800.67C359.232,798.805 363.699,796.333 369.192,794.842C366.952,784.885 319.658,615.913 317.621,601.392C326.181,592.498 332.043,584.629 338.462,578.389C335.496,574.142 329.346,565.547 326.405,559.731C330.547,553.338 338.123,547.159 343.053,542.317C335.417,537.853 331.4,529.311 325.097,523.727C327.933,516.65 333.276,511.715 336.704,504.343C329.508,497.204 322.178,494.714 316.405,489.366C320.543,481.496 323.888,470.604 329.699,455.568C320.808,450.11 313.414,443.986 305.876,438.971C308.193,432.936 313.324,425.649 316.835,418.109C310.888,415.628 300.681,409.041 295,405.972C296.953,400.477 297.089,392.705 298.762,385.537C289.575,385.822 285.405,386.335 278.143,385.828C276.836,379.731 276.508,377.551 272.457,365.537C263.306,370.352 262.54,370.749 256.262,373.411C251.234,370.806 245.102,366.59 239.533,362.626" style="fill:rgb(29,29,27);fill-rule:nonzero;"/>
        <path d="M301.273,495.557L301.459,495.58L301.642,495.617L301.822,495.667L301.998,495.731L302.169,495.808L302.333,495.897L302.49,495.998L302.639,496.111L302.78,496.235L302.91,496.368L303.031,496.511L303.14,496.663L303.237,496.823L303.337,496.999L303.431,497.164L303.527,497.326L303.623,497.487L303.721,497.647L303.819,497.804L303.919,497.959L304.019,498.113L304.12,498.265L304.222,498.415L304.325,498.563L304.43,498.71L304.535,498.855L304.64,498.998L304.747,499.139L304.855,499.279L304.964,499.417L305.073,499.553L305.183,499.687L305.295,499.82L305.407,499.951L305.52,500.081L305.634,500.209L305.749,500.335L305.864,500.46L305.981,500.583L306.099,500.704L306.217,500.824L306.336,500.942L306.456,501.059L306.577,501.173L306.699,501.287L306.822,501.399L306.946,501.509L307.07,501.618L307.195,501.725L307.322,501.831L307.449,501.935L307.577,502.038L307.706,502.139L307.836,502.239L307.966,502.337L308.098,502.433L308.231,502.529L308.364,502.623L308.498,502.715L308.633,502.806L308.769,502.895L308.906,502.983L309.044,503.07L309.183,503.155L309.322,503.238L309.463,503.321L309.604,503.402L309.747,503.481L309.89,503.559L310.034,503.636L310.179,503.711L310.325,503.785L310.472,503.857L310.619,503.928L310.769,503.998L310.918,504.066L311.069,504.133L311.22,504.199L311.373,504.263L311.526,504.326L311.68,504.387L311.836,504.447L311.992,504.506L312.149,504.563L312.307,504.619L312.466,504.674L312.626,504.727L312.786,504.779L312.948,504.829L313.111,504.878L313.274,504.926L313.439,504.972L313.605,505.017L313.771,505.061L313.938,505.103L314.107,505.144L314.276,505.184L314.446,505.222L314.617,505.259L314.789,505.294L314.962,505.328L315.136,505.361L315.311,505.392L315.487,505.422L315.663,505.451L315.841,505.478L316.019,505.504L316.198,505.528L316.379,505.551L316.56,505.573L316.742,505.593L316.925,505.612L317.108,505.63L317.293,505.646L317.479,505.661L317.665,505.674L317.852,505.687L318.041,505.697L318.23,505.707L318.419,505.714L318.61,505.721L318.802,505.726L318.995,505.73L319.188,505.732L319.382,505.733L319.577,505.733L319.773,505.731L319.969,505.728L320.167,505.724L320.365,505.718L320.564,505.711L320.764,505.702L320.965,505.692L321.166,505.68L321.368,505.668L321.571,505.653L321.775,505.638L321.98,505.621L322.185,505.602L322.391,505.583L322.599,505.562L322.808,505.539L323.018,505.515L323.225,505.491L323.431,505.466L323.636,505.441L323.838,505.415L324.039,505.388L324.239,505.36L324.436,505.332L324.633,505.303L324.827,505.273L325.02,505.243L325.212,505.212L325.401,505.181L325.589,505.149L325.776,505.116L325.96,505.083L326.144,505.05L326.325,505.016L326.504,504.981L326.683,504.946L326.859,504.911L327.034,504.875L327.207,504.839L327.379,504.802L327.549,504.765L327.717,504.727L327.881,504.69L328.212,504.613L328.534,504.535L328.849,504.456L329.158,504.375L329.459,504.294L329.755,504.213L330.043,504.13L330.325,504.047L330.6,503.964L330.869,503.88L331.13,503.796L331.386,503.712L331.634,503.628L331.875,503.545L332.111,503.461L332.339,503.378L332.56,503.296L332.775,503.214L332.982,503.134L333.183,503.054L333.378,502.975L333.565,502.897L333.746,502.821L333.919,502.746L334.086,502.673L334.246,502.601L334.4,502.531L334.546,502.463L334.685,502.397L334.818,502.333L334.943,502.272L335.062,502.213L335.173,502.156L335.278,502.102L335.376,502.051L335.463,502.005L335.627,501.916L335.76,501.841L335.864,501.781L335.94,501.736L335.986,501.708L336.031,501.68L336.192,501.587L336.361,501.506L336.535,501.438L336.714,501.383L336.896,501.341L337.081,501.313L337.267,501.3L337.454,501.3L337.641,501.314L337.826,501.342L338.008,501.383L338.186,501.439L338.36,501.507L338.529,501.588L338.691,501.682L338.845,501.787L338.991,501.904L339.128,502.031L339.255,502.168L339.372,502.315L339.477,502.469L339.57,502.631L339.651,502.8L339.72,502.974L339.775,503.152L339.816,503.335L339.844,503.519L339.858,503.706L339.858,503.893L339.844,504.079L339.816,504.264L339.774,504.446L339.719,504.625L339.65,504.799L339.569,504.967L339.475,505.129L339.37,505.284L339.253,505.43L339.126,505.567L338.989,505.694L338.843,505.81L338.688,505.915L338.615,505.961L338.516,506.022L338.388,506.098L338.23,506.189L338.043,506.293L337.83,506.409L337.708,506.474L337.581,506.54L337.448,506.609L337.306,506.681L337.158,506.755L337.002,506.831L336.839,506.909L336.669,506.99L336.491,507.073L336.307,507.157L336.114,507.243L335.915,507.33L335.709,507.42L335.495,507.51L335.275,507.601L335.047,507.694L334.812,507.787L334.569,507.881L334.32,507.976L334.063,508.072L333.8,508.167L333.529,508.263L333.251,508.359L332.966,508.456L332.675,508.552L332.376,508.647L332.07,508.743L331.757,508.838L331.437,508.932L331.109,509.026L330.776,509.118L330.435,509.21L330.087,509.3L329.732,509.389L329.37,509.477L329.004,509.562L328.814,509.605L328.626,509.648L328.435,509.689L328.243,509.73L328.049,509.771L327.854,509.811L327.656,509.85L327.458,509.889L327.257,509.928L327.054,509.966L326.85,510.003L326.644,510.04L326.437,510.076L326.228,510.112L326.017,510.147L325.804,510.181L325.59,510.215L325.374,510.247L325.156,510.279L324.937,510.311L324.716,510.342L324.493,510.371L324.268,510.401L324.042,510.429L323.815,510.457L323.585,510.483L323.354,510.509L323.12,510.534L322.883,510.558L322.646,510.581L322.409,510.602L322.172,510.622L321.936,510.64L321.701,510.657L321.466,510.671L321.231,510.685L320.997,510.696L320.764,510.707L320.531,510.715L320.298,510.722L320.066,510.727L319.834,510.731L319.604,510.733L319.373,510.733L319.143,510.732L318.914,510.729L318.685,510.725L318.457,510.719L318.229,510.711L318.002,510.701L317.776,510.69L317.55,510.677L317.324,510.663L317.099,510.647L316.875,510.629L316.652,510.609L316.428,510.588L316.206,510.565L315.984,510.54L315.763,510.513L315.543,510.485L315.323,510.455L315.103,510.423L314.885,510.39L314.667,510.354L314.45,510.317L314.233,510.279L314.017,510.238L313.802,510.196L313.587,510.151L313.373,510.105L313.16,510.057L312.948,510.008L312.736,509.956L312.525,509.903L312.315,509.848L312.105,509.791L311.897,509.732L311.689,509.672L311.482,509.609L311.275,509.545L311.07,509.479L310.865,509.41L310.661,509.341L310.458,509.269L310.256,509.195L310.054,509.119L309.854,509.042L309.654,508.962L309.456,508.881L309.258,508.798L309.061,508.713L308.865,508.625L308.67,508.536L308.476,508.446L308.283,508.353L308.09,508.258L307.899,508.161L307.709,508.063L307.52,507.962L307.332,507.859L307.145,507.755L306.959,507.649L306.774,507.54L306.59,507.43L306.406,507.318L306.225,507.203L306.044,507.087L305.865,506.969L305.686,506.849L305.508,506.727L305.332,506.603L305.158,506.478L304.984,506.35L304.811,506.22L304.639,506.088L304.469,505.955L304.3,505.819L304.132,505.681L303.966,505.542L303.801,505.401L303.636,505.257L303.474,505.112L303.312,504.965L303.152,504.816L302.993,504.665L302.836,504.512L302.679,504.357L302.524,504.201L302.371,504.042L302.219,503.882L302.068,503.719L301.918,503.555L301.77,503.389L301.624,503.221L301.478,503.051L301.334,502.879L301.192,502.705L301.051,502.529L300.911,502.352L300.773,502.173L300.636,501.992L300.5,501.809L300.366,501.624L300.234,501.437L300.103,501.249L299.973,501.058L299.845,500.866L299.719,500.672L299.593,500.476L299.47,500.279L299.347,500.079L299.227,499.878L299.107,499.675L298.99,499.47L298.879,499.273L298.794,499.107L298.721,498.935L298.661,498.758L298.615,498.577L298.582,498.392L298.563,498.206L298.559,498.02L298.568,497.833L298.591,497.647L298.628,497.464L298.678,497.284L298.742,497.108L298.818,496.938L298.908,496.773L299.009,496.616L299.122,496.467L299.245,496.327L299.379,496.196L299.522,496.076L299.674,495.966L299.833,495.869L299.999,495.783L300.171,495.711L300.349,495.651L300.53,495.604L300.714,495.572L300.9,495.553L301.087,495.548L301.273,495.557Z" style="fill:white;"/>
        <path d="M292.914,451.5C292.914,454.359 290.596,456.677 287.737,456.677C284.879,456.677 282.56,454.359 282.56,451.5C282.56,448.641 284.879,446.323 287.737,446.323C290.596,446.323 292.914,448.641 292.914,451.5" style="fill:white;fill-rule:nonzero;"/>
        <path d="M425.487,584.5C424.433,602.641 402.808,806.899 397.523,860.601C402.597,861.312 413.404,861.548 418.476,862.257C428.293,780.546 441.925,604.627 443.998,584.5C451.466,579.307 472.487,550.735 483.265,542.245C487.066,525.624 499.459,446.255 501.839,426.027C496.904,425.199 486.814,423.366 480.779,423.371C479.613,431.715 471.81,505.2 469.991,515.577C464.812,515.581 459.218,515.382 450.615,514.918C453.259,489.324 459.412,444.064 461.799,418.168C456.685,417.737 446.23,415.38 442.769,415.935C441.603,424.278 432.562,503.118 431.248,514.28C426.903,514.524 421.806,512.044 415.388,512.139C416.385,494.3 422.267,433.178 422.478,413.952C416.297,414.171 410.869,414.172 402.668,413.226C402.045,425.616 395.074,522.836 395.136,535.604C404.664,546.383 420.415,583.792 425.487,584.5" style="fill:rgb(29,29,27);fill-rule:nonzero;"/>
        <path d="M423.339,548.006L423.509,548.024L423.677,548.053L423.843,548.094L424.006,548.146L424.164,548.209L424.318,548.282L424.467,548.366L424.61,548.46L424.746,548.564L424.874,548.676L424.994,548.797L425.106,548.926L425.209,549.062L425.303,549.205L425.386,549.354L425.459,549.508L425.466,549.524L425.489,549.577L425.535,549.677L425.604,549.824L425.645,549.907L425.692,550.004L425.745,550.11L425.803,550.224L425.866,550.347L425.935,550.478L426.008,550.616L426.088,550.762L426.172,550.915L426.262,551.073L426.357,551.239L426.457,551.409L426.562,551.585L426.672,551.765L426.787,551.95L426.908,552.139L427.033,552.331L427.163,552.526L427.3,552.728L427.367,552.825L427.438,552.925L427.51,553.026L427.582,553.128L427.657,553.229L427.732,553.331L427.808,553.434L427.886,553.537L427.965,553.639L428.044,553.742L428.125,553.845L428.207,553.948L428.291,554.051L428.375,554.154L428.46,554.257L428.547,554.36L428.635,554.462L428.723,554.564L428.813,554.666L428.904,554.767L428.995,554.868L429.088,554.969L429.182,555.069L429.277,555.168L429.373,555.267L429.47,555.365L429.568,555.463L429.666,555.559L429.766,555.655L429.867,555.75L429.969,555.845L430.071,555.938L430.174,556.03L430.279,556.122L430.384,556.212L430.49,556.301L430.597,556.389L430.704,556.476L430.813,556.562L430.922,556.646L431.032,556.729L431.143,556.81L431.255,556.891L431.368,556.97L431.481,557.047L431.595,557.123L431.71,557.198L431.825,557.271L431.941,557.342L432.058,557.412L432.175,557.48L432.294,557.546L432.413,557.611L432.532,557.674L432.652,557.735L432.773,557.795L432.895,557.852L433.017,557.908L433.14,557.962L433.264,558.014L433.388,558.064L433.513,558.113L433.639,558.159L433.765,558.203L433.892,558.246L434.02,558.286L434.149,558.324L434.278,558.36L434.408,558.395L434.539,558.427L434.676,558.458L434.737,558.471L434.803,558.484L434.87,558.498L434.937,558.51L435.004,558.522L435.072,558.533L435.218,558.557L435.364,558.58L435.508,558.601L435.652,558.621L435.794,558.64L435.936,558.658L436.077,558.675L436.217,558.69L436.356,558.705L436.494,558.718L436.631,558.731L436.768,558.742L436.902,558.752L437.037,558.762L437.17,558.77L437.303,558.777L437.434,558.783L437.565,558.788L437.694,558.792L437.823,558.796L437.951,558.798L438.078,558.799L438.204,558.799L438.33,558.799L438.454,558.797L438.578,558.795L438.7,558.791L438.822,558.787L438.943,558.782L439.063,558.776L439.183,558.769L439.301,558.761L439.418,558.752L439.535,558.743L439.651,558.732L439.767,558.721L439.881,558.709L439.994,558.697L440.107,558.683L440.219,558.669L440.33,558.654L440.44,558.638L440.549,558.621L440.658,558.604L440.767,558.586L440.873,558.567L440.98,558.547L441.086,558.527L441.191,558.506L441.295,558.485L441.398,558.462L441.501,558.439L441.603,558.416L441.704,558.391L441.804,558.366L441.904,558.341L442.004,558.314L442.102,558.288L442.199,558.26L442.296,558.232L442.393,558.203L442.489,558.174L442.583,558.144L442.678,558.114L442.771,558.083L442.864,558.051L442.957,558.019L443.048,557.986L443.139,557.953L443.229,557.919L443.319,557.885L443.408,557.85L443.496,557.815L443.584,557.779L443.671,557.743L443.757,557.706L443.843,557.668L443.929,557.631L444.013,557.592L444.097,557.554L444.18,557.514L444.263,557.475L444.345,557.435L444.427,557.394L444.508,557.353L444.588,557.312L444.668,557.27L444.747,557.228L444.826,557.185L444.901,557.144L445.058,557.055L445.21,556.966L445.36,556.876L445.508,556.784L445.653,556.691L445.796,556.597L445.937,556.502L446.076,556.405L446.212,556.307L446.347,556.209L446.479,556.109L446.609,556.008L446.737,555.906L446.863,555.804L446.987,555.701L447.108,555.597L447.228,555.492L447.345,555.387L447.461,555.281L447.574,555.175L447.685,555.069L447.795,554.962L447.902,554.855L448.007,554.747L448.11,554.64L448.211,554.533L448.31,554.425L448.407,554.318L448.502,554.21L448.595,554.103L448.686,553.996L448.775,553.89L448.863,553.784L448.948,553.678L449.03,553.573L449.112,553.468L449.191,553.364L449.268,553.262L449.343,553.159L449.417,553.058L449.488,552.958L449.557,552.858L449.625,552.76L449.69,552.664L449.754,552.568L449.816,552.473L449.876,552.38L449.933,552.289L449.989,552.199L450.044,552.111L450.096,552.024L450.146,551.94L450.193,551.86L450.286,551.696L450.37,551.545L450.447,551.402L450.517,551.269L450.58,551.146L450.635,551.034L450.683,550.933L450.725,550.844L450.759,550.768L450.788,550.704L450.807,550.658L450.833,550.596L450.839,550.582L450.907,550.426L450.985,550.274L451.074,550.128L451.173,549.989L451.28,549.856L451.397,549.732L451.522,549.615L451.654,549.507L451.794,549.409L451.94,549.32L452.091,549.242L452.248,549.174L452.409,549.117L452.573,549.071L452.74,549.036L452.909,549.013L453.08,549.001L453.25,549.001L453.421,549.013L453.59,549.036L453.757,549.071L453.921,549.117L454.082,549.175L454.239,549.243L454.39,549.321L454.536,549.41L454.675,549.508L454.808,549.616L454.932,549.733L455.049,549.858L455.157,549.99L455.255,550.13L455.344,550.275L455.422,550.427L455.49,550.584L455.547,550.744L455.593,550.909L455.628,551.076L455.651,551.245L455.663,551.415L455.663,551.586L455.651,551.756L455.628,551.926L455.593,552.093L455.547,552.257L455.489,552.418L455.468,552.472L455.413,552.606L455.37,552.704L455.323,552.812L455.266,552.936L455.202,553.073L455.13,553.223L455.05,553.386L454.961,553.561L454.864,553.747L454.757,553.944L454.642,554.151L454.52,554.364L454.453,554.48L454.385,554.594L454.315,554.71L454.242,554.828L454.167,554.949L454.09,555.071L454.01,555.195L453.928,555.32L453.844,555.447L453.756,555.577L453.666,555.707L453.574,555.839L453.48,555.972L453.382,556.107L453.282,556.243L453.179,556.38L453.074,556.518L452.967,556.656L452.856,556.796L452.742,556.937L452.627,557.079L452.508,557.221L452.386,557.364L452.262,557.507L452.134,557.65L452.004,557.795L451.871,557.939L451.735,558.084L451.596,558.228L451.455,558.373L451.31,558.518L451.162,558.662L451.012,558.806L450.858,558.95L450.701,559.094L450.541,559.237L450.378,559.38L450.212,559.522L450.042,559.663L449.87,559.803L449.695,559.943L449.516,560.081L449.334,560.218L449.148,560.355L448.96,560.49L448.768,560.623L448.573,560.755L448.375,560.886L448.173,561.015L447.968,561.142L447.76,561.267L447.549,561.391L447.337,561.51L447.224,561.572L447.115,561.631L447.005,561.69L446.894,561.749L446.781,561.806L446.668,561.864L446.555,561.92L446.44,561.976L446.325,562.031L446.208,562.086L446.091,562.14L445.973,562.194L445.854,562.246L445.735,562.298L445.614,562.35L445.493,562.4L445.371,562.45L445.248,562.499L445.124,562.548L444.999,562.596L444.874,562.643L444.747,562.689L444.62,562.734L444.492,562.779L444.363,562.823L444.233,562.866L444.103,562.908L443.971,562.949L443.839,562.99L443.706,563.029L443.572,563.068L443.437,563.106L443.302,563.143L443.166,563.179L443.029,563.214L442.89,563.249L442.751,563.282L442.612,563.314L442.471,563.346L442.33,563.376L442.187,563.406L442.045,563.434L441.901,563.462L441.757,563.488L441.611,563.514L441.465,563.538L441.319,563.562L441.17,563.584L441.022,563.605L440.872,563.626L440.722,563.645L440.571,563.663L440.419,563.68L440.267,563.696L440.113,563.711L439.959,563.725L439.804,563.737L439.648,563.749L439.492,563.759L439.335,563.768L439.177,563.776L439.018,563.783L438.858,563.789L438.698,563.793L438.536,563.796L438.375,563.798L438.212,563.799L438.048,563.799L437.884,563.797L437.719,563.795L437.553,563.79L437.387,563.785L437.219,563.779L437.051,563.771L436.882,563.762L436.713,563.751L436.542,563.739L436.371,563.726L436.199,563.712L436.027,563.697L435.853,563.68L435.678,563.661L435.503,563.642L435.328,563.621L435.151,563.599L434.974,563.575L434.796,563.55L434.617,563.523L434.437,563.496L434.256,563.467L434.147,563.448L434.038,563.429L433.928,563.408L433.82,563.387L433.712,563.365L433.599,563.34L433.391,563.293L433.179,563.241L432.968,563.186L432.76,563.128L432.554,563.066L432.349,563.002L432.147,562.934L431.947,562.864L431.748,562.791L431.552,562.715L431.357,562.637L431.164,562.555L430.974,562.472L430.786,562.386L430.599,562.297L430.415,562.207L430.233,562.114L430.052,562.019L429.874,561.922L429.698,561.823L429.524,561.722L429.351,561.619L429.181,561.515L429.013,561.408L428.846,561.3L428.682,561.191L428.52,561.08L428.36,560.967L428.202,560.854L428.045,560.738L427.89,560.622L427.738,560.504L427.587,560.385L427.438,560.265L427.292,560.145L427.147,560.023L427.004,559.9L426.863,559.777L426.723,559.652L426.585,559.527L426.45,559.401L426.316,559.274L426.184,559.147L426.054,559.02L425.925,558.892L425.798,558.763L425.673,558.634L425.55,558.505L425.429,558.376L425.309,558.246L425.191,558.116L425.075,557.986L424.96,557.856L424.847,557.726L424.736,557.596L424.627,557.467L424.519,557.337L424.413,557.207L424.308,557.078L424.205,556.949L424.104,556.82L424.004,556.692L423.906,556.564L423.81,556.437L423.716,556.31L423.623,556.184L423.531,556.058L423.441,555.933L423.353,555.809L423.266,555.685L423.179,555.56L423.016,555.32L422.857,555.081L422.704,554.846L422.558,554.617L422.417,554.391L422.283,554.172L422.155,553.958L422.033,553.75L421.918,553.549L421.808,553.355L421.704,553.168L421.607,552.988L421.515,552.817L421.43,552.654L421.35,552.5L421.277,552.355L421.21,552.22L421.148,552.094L421.091,551.976L421,551.782L420.931,551.631L420.886,551.53L420.869,551.492L420.807,551.333L420.756,551.17L420.715,551.004L420.687,550.836L420.67,550.666L420.664,550.495L420.67,550.325L420.688,550.155L420.717,549.987L420.758,549.821L420.81,549.658L420.873,549.5L420.947,549.346L421.031,549.197L421.124,549.054L421.228,548.919L421.34,548.79L421.461,548.67L421.59,548.558L421.726,548.455L421.869,548.361L422.018,548.278L422.172,548.205L422.331,548.143L422.494,548.091L422.66,548.051L422.828,548.023L422.998,548.006L423.169,548L423.339,548.006Z" style="fill:white;"/>
        <path d="M432.518,530.823C432.518,533.682 430.2,536 427.341,536C424.483,536 422.164,533.682 422.164,530.823C422.164,527.964 424.483,525.646 427.341,525.646C430.2,525.646 432.518,527.964 432.518,530.823" style="fill:white;fill-rule:nonzero;"/>
        <path d="M458.842,533.323C458.842,536.182 456.524,538.5 453.664,538.5C450.806,538.5 448.488,536.182 448.488,533.323C448.488,530.464 450.806,528.146 453.664,528.146C456.524,528.146 458.842,530.464 458.842,533.323" style="fill:white;fill-rule:nonzero;"/>
        <path d="M200.481,734.714C165.42,724.517 163.018,675.925 174.971,655.717C185.473,638.72 197.442,627.733 217.126,626.735C225.935,626.288 247.997,630.124 256.375,643.736C277.168,673.825 268.809,713.22 250.614,727.627C241.935,734.496 229.579,739.131 219.819,738.644C216.781,754.621 188.858,884.785 183.717,905.301C177.588,903.605 172.797,902.405 164.395,900.178C168.422,883.861 195.398,756.145 200.481,734.714" style="fill:rgb(29,29,27);fill-rule:nonzero;"/>
        <path d="M233.732,704.751C233.732,704.751 233.732,720 214.888,717.253C203.826,715.641 203.78,702.572 203.78,702.572L233.732,704.751Z" style="fill:white;fill-rule:nonzero;"/>
        <path d="M213.555,687.14C213.477,689.997 211.098,692.252 208.241,692.175C205.382,692.098 203.127,689.718 203.205,686.861C203.282,684.003 205.662,681.748 208.52,681.826C211.377,681.903 213.632,684.283 213.555,687.14" style="fill:white;fill-rule:nonzero;"/>
        <path d="M239.801,690.35C239.724,693.207 237.344,695.462 234.487,695.385C231.629,695.308 229.374,692.928 229.451,690.071C229.529,687.213 231.908,684.958 234.766,685.036C237.624,685.113 239.879,687.493 239.801,690.35" style="fill:white;fill-rule:nonzero;"/>
        <path d="M1574.88,679.159C1574.88,679.159 1596.88,676.338 1598.57,676.338C1600.26,676.338 1598.57,650.456 1598.57,650.456L1608.73,650.456L1608.73,674.645L1662.89,679.159L1662.89,685.365L1674.74,670.766L1666.84,665.054L1674.74,657.719L1697.31,670.766L1692.23,678.03L1683.2,674.081L1677,689.314L1718.75,689.314L1737.37,653.841L1745.27,661.176L1729.47,689.314L1741.32,689.314L1740.75,697.849L1725.52,701.163C1725.52,701.163 1755.42,713.576 1753.17,739.529C1753.17,739.529 1746.96,786.359 1703.52,784.667C1660.07,782.973 1658.38,756.035 1657.25,747.5C1647.09,747.429 1591.24,747.5 1591.24,747.5C1591.24,747.5 1596.28,752.649 1595.17,761.041C1594.06,769.432 1587.85,782.973 1574.88,781.846C1561.9,780.718 1552.87,775.264 1553.43,763.603C1554,751.942 1558.51,743.058 1574.31,741.858C1573.18,725.425 1574.31,675.773 1574.88,679.159" style="fill:rgb(242,128,25);fill-rule:nonzero;"/>
        <path d="M1702.39,722.849C1702.39,722.849 1719.31,725.67 1717.62,738.648C1715.93,751.624 1710.85,755.153 1702.39,753.953C1693.92,752.752 1683.77,750.222 1685.46,738.511C1687.15,726.799 1693.92,723.413 1702.39,722.849" style="fill:white;fill-rule:nonzero;"/>
        <path d="M1573.93,757.402C1573.93,757.402 1578.66,758.191 1578.19,761.818C1577.72,765.445 1576.3,766.431 1573.93,766.096C1571.57,765.759 1568.73,765.053 1569.2,761.779C1569.67,758.506 1571.57,757.56 1573.93,757.402" style="fill:white;fill-rule:nonzero;"/>
        <rect x="1592.51" y="691.383" width="4.232" height="35.475" style="fill:white;fill-rule:nonzero;"/>
        <rect x="1607.32" y="691.383" width="4.232" height="35.475" style="fill:white;fill-rule:nonzero;"/>
        <rect x="1622.13" y="691.383" width="4.232" height="35.475" style="fill:white;fill-rule:nonzero;"/>
        <rect x="1636.94" y="691.383" width="4.231" height="35.475" style="fill:white;fill-rule:nonzero;"/>
        <path d="M1780.39,689.811C1780.39,689.811 1780.63,674.402 1793.64,678.51C1797.57,675.349 1802.04,665.605 1811.87,672.596C1823.73,672.451 1830.94,668.927 1835.76,677.349C1844.29,683.123 1850.73,689.386 1846.33,696.266C1849.58,705.414 1854.52,709.54 1850.86,713.45C1847.2,717.36 1843.94,717.721 1834.75,714.748C1825.56,711.775 1823.17,700.746 1823.17,700.746C1823.17,700.746 1821.41,708.627 1812.28,707.547C1803.16,706.466 1796.8,697.338 1796.8,697.338C1796.8,697.338 1795.9,704.698 1789.46,702.512C1783.01,700.326 1778.58,692.404 1772.02,694.513C1765.47,696.623 1758.61,695.338 1758.61,695.338L1771.01,688.611L1780.39,689.811Z" style="fill:rgb(198,198,193);fill-rule:nonzero;"/>
        <path d="M551.684,397.234C551.684,397.234 567.331,383.502 578.07,388.213C588.808,392.924 594.813,396.615 594.813,396.615C594.813,396.615 598.429,385.017 610.205,385.053C621.98,385.088 638.99,389.938 638.99,389.938C638.99,389.938 624.146,388.945 617.612,390.998C611.079,393.051 601.084,396.752 598.638,401.898L596.192,407.043C596.192,407.043 586.366,396.708 577.15,396.561C567.935,396.415 561.692,390.788 551.684,397.234" style="fill:rgb(229,224,31);fill-rule:nonzero;"/>
        <path d="M660.828,357.786C660.828,357.786 676.475,344.054 687.214,348.765C697.952,353.476 703.957,357.167 703.957,357.167C703.957,357.167 707.573,345.569 719.349,345.605C731.124,345.64 748.134,350.49 748.134,350.49C748.134,350.49 733.29,349.497 726.756,351.55C720.223,353.603 710.228,357.304 707.782,362.45L705.336,367.595C705.336,367.595 695.51,357.26 686.294,357.113C677.079,356.967 670.836,351.34 660.828,357.786" style="fill:rgb(229,224,31);fill-rule:nonzero;"/>
        <path d="M629.962,326.787C629.962,326.787 639.695,318.245 646.375,321.176C653.054,324.106 656.79,326.402 656.79,326.402C656.79,326.402 659.039,319.188 666.363,319.21C673.689,319.232 684.269,322.248 684.269,322.248C684.269,322.248 675.036,321.631 670.971,322.908C666.907,324.185 660.691,326.487 659.169,329.688L657.648,332.889C657.648,332.889 651.535,326.46 645.803,326.369C640.071,326.278 636.188,322.777 629.962,326.787" style="fill:rgb(229,224,31);fill-rule:nonzero;"/>
        <path d="M1302.5,144.889C1302.5,144.889 1312.86,131.34 1334.44,138.335C1353.05,144.363 1357.83,151.471 1360.27,160.778C1367.58,155.563 1383.61,159.911 1382.83,170.817C1382.24,179.187 1374.53,182.768 1374.53,182.768C1374.53,182.768 1385.09,192.955 1381.4,200.656C1373,218.166 1355.53,210.095 1355.53,210.095C1355.53,210.095 1359.3,236.758 1332.44,242.309C1305.57,247.862 1297.84,224.34 1297.84,224.34C1297.84,224.34 1285.66,249.179 1256.53,246.207C1227.41,243.237 1226.74,219.264 1226.74,219.264C1226.74,219.264 1208.98,229.991 1187.35,219.612C1165.72,209.234 1171.64,199.85 1171.64,199.85C1171.64,199.85 1155.45,197.644 1156.76,182.338C1158.14,166.112 1175.78,169.027 1175.78,169.027C1175.78,169.027 1170.48,124.224 1236.27,144.29C1236.27,144.29 1247.39,125.908 1271.3,127.383C1295.2,128.859 1297.58,136.062 1302.5,144.889" style="fill:rgb(175,225,226);fill-rule:nonzero;"/>
        <path d="M1218.86,261.436C1218.86,261.436 1206.96,275.189 1211.91,278.312C1216.86,281.436 1218.19,276.103 1218.86,273.436C1219.52,270.769 1218.86,261.436 1218.86,261.436" style="fill:rgb(175,225,226);fill-rule:nonzero;"/>
        <path d="M1239.39,284.103C1239.39,284.103 1227.49,297.856 1232.44,300.979C1237.39,304.103 1238.72,298.77 1239.39,296.103C1240.05,293.436 1239.39,284.103 1239.39,284.103" style="fill:rgb(175,225,226);fill-rule:nonzero;"/>
        <path d="M1214.63,304.621C1214.63,304.621 1202.74,318.374 1207.68,321.497C1212.63,324.621 1213.96,319.288 1214.63,316.621C1215.3,313.954 1214.63,304.621 1214.63,304.621" style="fill:rgb(175,225,226);fill-rule:nonzero;"/>
        <path d="M1207.61,361.486C1207.61,361.486 1195.71,375.239 1200.66,378.362C1205.61,381.486 1206.94,376.153 1207.61,373.486C1208.28,370.819 1207.61,361.486 1207.61,361.486" style="fill:rgb(175,225,226);fill-rule:nonzero;"/>
        <path d="M1300.28,261.436C1300.28,261.436 1288.38,275.189 1293.33,278.312C1298.28,281.436 1299.61,276.103 1300.28,273.436C1300.94,270.769 1300.28,261.436 1300.28,261.436" style="fill:rgb(175,225,226);fill-rule:nonzero;"/>
        <path d="M1273.7,297.782C1273.7,297.782 1261.8,311.535 1266.75,314.658C1271.7,317.782 1273.03,312.449 1273.7,309.782C1274.37,307.115 1273.7,297.782 1273.7,297.782" style="fill:rgb(175,225,226);fill-rule:nonzero;"/>
        <path d="M1246.61,335.171C1246.61,335.171 1234.71,348.924 1239.66,352.047C1244.61,355.171 1245.94,349.838 1246.61,347.171C1247.28,344.504 1246.61,335.171 1246.61,335.171" style="fill:rgb(175,225,226);fill-rule:nonzero;"/>
        <path d="M1242.39,423.136C1242.39,423.136 1230.49,436.889 1235.44,440.012C1240.39,443.136 1241.72,437.803 1242.39,435.136C1243.05,432.469 1242.39,423.136 1242.39,423.136" style="fill:rgb(175,225,226);fill-rule:nonzero;"/>
        <path d="M1388.01,714.933C1388.01,714.933 1399.07,729.249 1405.85,731.635C1412.64,734.025 1416.55,724.206 1416.55,724.206C1416.55,724.206 1427.54,725.066 1431.54,728.014C1432.03,717.69 1436.51,710.312 1437.46,704.838C1442.55,714.044 1442.72,725.089 1439.58,733.219C1451.07,723.411 1464.04,711.604 1464.04,711.604C1464.04,711.604 1477.02,714.283 1473.75,725.165C1470.49,736.05 1462.69,740.511 1452.14,744.845C1455.62,758.803 1466.48,777.249 1468.42,780.099C1470.35,782.95 1485.6,796.08 1479.64,805.457C1473.68,814.835 1450.72,833.761 1435.38,822.694C1420.03,811.627 1416.82,806.665 1416.82,806.665C1416.82,806.665 1414.4,814.122 1405.5,841.985C1396.61,869.849 1382.56,889.883 1385.29,905.187C1388.02,920.49 1391.9,940.677 1391.45,950.312C1391,959.948 1376.61,957.894 1376.61,957.894C1376.61,957.894 1366.19,959.474 1353.41,923.005C1340.64,886.537 1319.46,882.094 1303.57,882.729C1287.67,883.363 1294.62,882.308 1294.62,882.308C1294.62,882.308 1297.48,890.03 1292.49,896.003C1287.49,901.978 1265.87,907.17 1252.45,898.954C1247.65,913.212 1244.34,924.785 1245.86,936.582C1247.38,948.379 1246.93,957.327 1244,961.328C1241.06,965.328 1219.17,961.541 1219.17,961.541C1219.17,961.541 1197,948.775 1200.53,888.24C1201.01,863.43 1198.51,857.793 1196.74,851.503C1192.13,861.632 1186.82,871.732 1186.82,871.732L1178.81,895.498L1173.69,886.98L1180.37,876.947L1169.03,883.313L1169.36,876.429L1177.22,870.591L1165.09,864.503L1165.41,857.62L1180.2,865.904C1180.2,865.904 1189.27,849.083 1192.5,838.888C1195.74,828.694 1203.39,798.012 1203.39,798.012L1226.19,782.527C1226.19,782.527 1251.32,776.119 1278.79,778.787C1306.25,781.455 1343.98,785.985 1355.35,778.931C1366.71,771.877 1371.33,761.747 1371.33,761.747C1371.33,761.747 1367.2,761.553 1358.74,750.809C1350.27,740.065 1353.03,740.193 1353.03,740.193C1353.03,740.193 1356,735.505 1369.05,736.808C1382.1,738.109 1391.07,737.841 1391.07,737.841C1391.07,737.841 1385.24,729.98 1388.01,714.933" style="fill:rgb(221,205,138);fill-rule:nonzero;"/>
        <path d="M1270.64,892.483L1273.49,912.63C1273.49,912.63 1273.8,919.727 1270.98,919.419C1268.15,919.109 1267.1,917.984 1266.75,911.977C1266.4,905.971 1266.05,892.989 1266.05,892.989" style="fill:rgb(221,205,138);fill-rule:nonzero;"/>
        <path d="M1281.02,892.97L1289.45,911.492C1289.45,911.492 1291.76,918.21 1288.96,918.714C1286.16,919.214 1284.84,918.434 1282.8,912.772C1280.76,907.111 1276.76,894.755 1276.76,894.755" style="fill:rgb(221,205,138);fill-rule:nonzero;"/>
        <path d="M1287.02,886.459L1300.52,901.676C1300.52,901.676 1304.71,907.413 1302.19,908.719C1299.66,910.022 1298.16,909.668 1294.55,904.856C1290.93,900.047 1283.47,889.42 1283.47,889.42" style="fill:rgb(221,205,138);fill-rule:nonzero;"/>
        <path d="M1442.56,803.947C1442.56,803.947 1443.11,811.79 1444.47,812.314C1445.82,812.838 1450.26,816.264 1450.26,816.264L1446.61,805.977L1442.56,803.947Z" style="fill:white;fill-rule:nonzero;"/>
        <path d="M1458.55,797.199C1458.55,797.199 1456.36,804.751 1457.45,805.71C1458.54,806.669 1461.53,811.416 1461.53,811.416L1461.64,800.498L1458.55,797.199Z" style="fill:white;fill-rule:nonzero;"/>
        <path d="M1396.02,762.279C1394.77,761.022 1396.79,748.392 1401.68,749.714C1412.45,752.626 1404.14,760.08 1401.63,763.221C1404.77,760.08 1411.76,762.203 1411.73,767.62C1411.7,774.558 1404.94,771.889 1399.74,771.389C1401.63,774.531 1405.45,782.698 1397.91,782.698C1392.26,782.698 1392.83,776.416 1392.83,772.017C1389.06,775.159 1383.46,781.441 1379.69,773.274C1376.55,765.735 1384.71,766.677 1389.74,765.421C1380.95,763.536 1381.78,754.605 1385.03,752.541C1389.83,749.493 1396.02,756.625 1396.02,762.279" style="fill:white;fill-rule:nonzero;"/>
        <path d="M1422.59,923.669C1421.12,929.591 1419.93,935.548 1419.83,941.667C1419.78,944.893 1424.78,944.888 1424.83,941.667C1424.92,935.983 1426.05,930.496 1427.41,924.999C1428.18,921.868 1423.36,920.541 1422.59,923.669" style="fill:white;fill-rule:nonzero;"/>
        <path d="M1432.5,939C1433.2,944.583 1434.12,949.93 1436.84,954.929C1438.38,957.76 1442.7,955.237 1441.16,952.405C1438.88,948.222 1438.09,943.677 1437.5,939C1437.1,935.846 1432.1,935.807 1432.5,939" style="fill:white;fill-rule:nonzero;"/>
        <path d="M1465.26,914.335C1463.92,919.457 1462.01,924.408 1461.26,929.669C1460.8,932.822 1465.62,934.18 1466.08,930.999C1466.83,925.738 1468.74,920.787 1470.08,915.665C1470.89,912.541 1466.07,911.218 1465.26,914.335" style="fill:white;fill-rule:nonzero;"/>
        <path d="M1287.17,958.334C1287.32,963.325 1289.56,967.566 1292.56,971.435C1294.54,973.979 1298.05,970.412 1296.1,967.899C1293.94,965.127 1292.28,961.897 1292.17,958.334C1292.07,955.117 1287.07,955.107 1287.17,958.334" style="fill:white;fill-rule:nonzero;"/>
        <path d="M1301.26,949.665C1301.94,953.405 1302,957.238 1302.59,960.999C1303.08,964.177 1307.9,962.822 1307.41,959.669C1306.83,955.906 1306.77,952.085 1306.08,948.335C1305.5,945.167 1300.68,946.513 1301.26,949.665" style="fill:white;fill-rule:nonzero;"/>
        <path d="M1335.83,953C1335.65,960.094 1333.38,966.784 1331.92,973.669C1331.26,976.814 1336.07,978.152 1336.74,974.999C1338.3,967.667 1340.64,960.553 1340.83,953C1340.91,949.773 1335.91,949.781 1335.83,953" style="fill:white;fill-rule:nonzero;"/>
        <path d="M1119.92,951.665C1121.4,956.08 1122.99,960.513 1127.07,963.158C1129.78,964.919 1132.29,960.589 1129.59,958.842C1126.75,956.995 1125.76,953.376 1124.74,950.335C1123.73,947.293 1118.9,948.598 1119.92,951.665" style="fill:white;fill-rule:nonzero;"/>
        <path d="M1134.5,911.667C1134.6,916.811 1135.94,921.646 1138.17,926.262C1139.58,929.164 1143.89,926.627 1142.49,923.738C1140.65,919.932 1139.58,915.902 1139.5,911.667C1139.44,908.446 1134.44,908.44 1134.5,911.667" style="fill:white;fill-rule:nonzero;"/>
        <path d="M1161.83,944.334C1161.79,951.009 1161.27,957.668 1161.83,964.334C1162.1,967.521 1167.11,967.549 1166.83,964.334C1166.27,957.668 1166.79,951.009 1166.83,944.334C1166.85,941.108 1161.85,941.111 1161.83,944.334" style="fill:white;fill-rule:nonzero;"/>
        <path d="M1522.59,762.999C1523.28,767.547 1524.68,771.91 1527.51,775.596C1529.44,778.115 1533.79,775.631 1531.82,773.072C1529.22,769.682 1528.05,765.851 1527.41,761.669C1526.92,758.49 1522.11,759.846 1522.59,762.999" style="fill:white;fill-rule:nonzero;"/>
        <path d="M1541.83,782.334C1542.48,787.203 1542.59,792.122 1543.17,797C1543.54,800.162 1548.54,800.198 1548.17,797C1547.59,792.122 1547.48,787.203 1546.83,782.334C1546.41,779.187 1541.41,779.146 1541.83,782.334" style="fill:white;fill-rule:nonzero;"/>
        <path d="M1768.59,755.669C1767.87,759.708 1766.64,763.631 1765.92,767.669C1765.36,770.821 1770.18,772.169 1770.74,768.999C1771.46,764.96 1772.69,761.037 1773.41,756.999C1773.97,753.847 1769.15,752.499 1768.59,755.669" style="fill:white;fill-rule:nonzero;"/>
        <path d="M1795.26,768.332C1795.9,771.166 1795.83,774.108 1795.83,777C1795.83,780.225 1800.83,780.225 1800.83,777C1800.83,773.652 1800.83,770.283 1800.08,767.002C1799.36,763.859 1794.54,765.192 1795.26,768.332" style="fill:white;fill-rule:nonzero;"/>
        <path d="M1845.26,746.335C1844.62,750.974 1845.83,754.936 1848.17,758.929C1849.8,761.707 1854.13,759.192 1852.49,756.405C1850.91,753.72 1849.64,750.856 1850.08,747.665C1850.51,744.513 1845.69,743.153 1845.26,746.335" style="fill:white;fill-rule:nonzero;"/>
        <path d="M1879.26,720.332C1880.46,724.715 1881.18,729.185 1881.92,733.665C1882.44,736.84 1887.26,735.488 1886.74,732.335C1886,727.855 1885.29,723.386 1884.08,719.002C1883.22,715.898 1878.4,717.218 1879.26,720.332" style="fill:white;fill-rule:nonzero;"/>
        <path d="M1888.59,779.665C1889.16,782.748 1889.16,785.874 1889.17,789C1889.17,792.225 1894.17,792.225 1894.17,789C1894.16,785.414 1894.07,781.871 1893.41,778.335C1892.82,775.168 1888.01,776.514 1888.59,779.665" style="fill:white;fill-rule:nonzero;"/>
        <path d="M1827.26,802.332C1827.97,805.935 1828.61,809.555 1829.92,812.999C1831.06,815.979 1835.9,814.686 1834.74,811.669C1833.43,808.226 1832.79,804.605 1832.08,801.002C1831.45,797.841 1826.63,799.183 1827.26,802.332" style="fill:white;fill-rule:nonzero;"/>
        <path d="M1637.51,789.738C1635.98,792.903 1635.21,796.146 1635.17,799.667C1635.13,802.892 1640.13,802.888 1640.17,799.667C1640.2,797.06 1640.68,794.616 1641.82,792.261C1643.22,789.373 1638.91,786.837 1637.51,789.738" style="fill:white;fill-rule:nonzero;"/>
        <path d="M1695.83,806.334C1695.83,809.92 1695.93,813.463 1696.59,816.999C1697.17,820.166 1701.99,818.82 1701.41,815.669C1700.84,812.586 1700.83,809.46 1700.83,806.334C1700.83,803.109 1695.83,803.109 1695.83,806.334" style="fill:white;fill-rule:nonzero;"/>
        <path d="M1757.92,822.332C1758.63,825.935 1759.27,829.555 1760.59,832.999C1761.73,835.979 1766.56,834.686 1765.41,831.669C1764.1,828.226 1763.46,824.605 1762.74,821.002C1762.12,817.841 1757.3,819.183 1757.92,822.332" style="fill:white;fill-rule:nonzero;"/>
        <path d="M1639.92,873.669C1638.64,877.796 1638.5,882.046 1638.5,886.334C1638.5,889.559 1643.5,889.559 1643.5,886.334C1643.5,882.473 1643.59,878.717 1644.74,874.999C1645.7,871.91 1640.87,870.6 1639.92,873.669" style="fill:white;fill-rule:nonzero;"/>
        <path d="M1723.26,901.002C1721.85,904.938 1722.46,909.172 1723.92,912.999C1725.06,915.981 1729.89,914.688 1728.74,911.669C1727.58,908.606 1726.95,905.5 1728.08,902.332C1729.16,899.286 1724.33,897.987 1723.26,901.002" style="fill:white;fill-rule:nonzero;"/>
        <path d="M1808.59,902.999C1810.41,908.868 1810.68,915.007 1811.92,920.999C1812.58,924.155 1817.39,922.815 1816.74,919.669C1815.5,913.677 1815.23,907.54 1813.41,901.669C1812.46,898.601 1807.63,899.911 1808.59,902.999" style="fill:white;fill-rule:nonzero;"/>
        <path d="M1766.5,948.334C1766.46,951.944 1765.85,955.451 1765.26,959.002C1764.73,962.155 1769.54,963.506 1770.08,960.332C1770.75,956.349 1771.45,952.384 1771.5,948.334C1771.54,945.108 1766.54,945.112 1766.5,948.334" style="fill:white;fill-rule:nonzero;"/>
        <path d="M1544.59,998.332C1545.42,1001.47 1546.93,1004.32 1548.84,1006.93C1549.65,1008.02 1550.99,1008.57 1552.26,1007.83C1553.34,1007.19 1553.97,1005.51 1553.16,1004.4C1551.49,1002.13 1550.14,999.742 1549.41,997.002C1548.58,993.889 1543.76,995.212 1544.59,998.332" style="fill:white;fill-rule:nonzero;"/>
        <path d="M1557.92,998.999C1558.53,1001.62 1558.5,1004.32 1558.5,1007C1558.5,1010.23 1563.5,1010.23 1563.5,1007C1563.5,1003.87 1563.45,1000.73 1562.74,997.669C1562.02,994.527 1557.2,995.86 1557.92,998.999" style="fill:white;fill-rule:nonzero;"/>
        <path d="M921.832,967C921.744,973.337 920.613,979.498 919.255,985.669C918.563,988.812 923.383,990.147 924.076,986.999C925.528,980.4 926.738,973.774 926.832,967C926.877,963.774 921.877,963.778 921.832,967" style="fill:white;fill-rule:nonzero;"/>
        <path d="M903.255,972.999C904.443,977.87 905.251,982.829 906.588,987.665C907.446,990.769 912.27,989.448 911.409,986.335C910.072,981.5 909.265,976.541 908.076,971.669C907.312,968.538 902.491,969.866 903.255,972.999" style="fill:white;fill-rule:nonzero;"/>
        <path d="M903.832,834.334C903.876,838.884 904.525,843.33 905.921,847.665C906.906,850.721 911.734,849.413 910.743,846.335C909.476,842.401 908.872,838.465 908.832,834.334C908.801,831.111 903.801,831.108 903.832,834.334" style="fill:white;fill-rule:nonzero;"/>
        <path d="M999.166,897.334L999.166,906C999.166,909.225 1004.17,909.225 1004.17,906L1004.17,897.334C1004.17,894.109 999.166,894.109 999.166,897.334" style="fill:white;fill-rule:nonzero;"/>
        <path d="M1067.26,823.669C1065.93,828.685 1065.85,833.882 1065.17,839C1064.74,842.19 1069.75,842.148 1070.17,839C1070.79,834.32 1070.86,829.583 1072.08,824.999C1072.9,821.878 1068.08,820.556 1067.26,823.669" style="fill:white;fill-rule:nonzero;"/>
        <path d="M1034.51,1014.67C1035.76,1019.05 1036.99,1023.41 1037.09,1028C1037.15,1031.22 1042.15,1031.23 1042.09,1028C1041.99,1022.97 1040.7,1018.15 1039.33,1013.34C1038.45,1010.24 1033.62,1011.56 1034.51,1014.67" style="fill:white;fill-rule:nonzero;"/>
        <path d="M1214.59,583.002C1213.09,587.562 1211.93,592.178 1211.83,597C1211.77,600.227 1216.77,600.22 1216.83,597C1216.92,592.62 1218.05,588.468 1219.41,584.332C1220.42,581.26 1215.59,579.954 1214.59,583.002" style="fill:white;fill-rule:nonzero;"/>
        <path d="M1245.92,579.002C1245.2,582.131 1245.2,585.203 1245.92,588.332C1246.65,591.473 1251.47,590.141 1250.74,587.002C1250.23,584.763 1250.23,582.57 1250.74,580.332C1251.47,577.193 1246.65,575.861 1245.92,579.002" style="fill:white;fill-rule:nonzero;"/>
        <path d="M1292.5,545C1292.5,550.229 1292.62,555.434 1294.84,560.262C1296.19,563.188 1300.5,560.646 1299.16,557.738C1297.35,553.801 1297.5,549.237 1297.5,545C1297.5,541.775 1292.5,541.775 1292.5,545" style="fill:white;fill-rule:nonzero;"/>
        <path d="M1305.92,612.998C1307.18,616.254 1307.79,619.51 1307.83,623C1307.87,626.223 1312.87,626.226 1312.83,623C1312.79,619.096 1312.15,615.315 1310.74,611.668C1309.6,608.694 1304.76,609.985 1305.92,612.998" style="fill:white;fill-rule:nonzero;"/>
        <path d="M1240.5,642.333C1240.45,645.679 1239.88,648.987 1239.83,652.333C1239.79,655.559 1244.79,655.555 1244.83,652.333C1244.88,648.987 1245.45,645.679 1245.5,642.333C1245.55,639.107 1240.55,639.111 1240.5,642.333" style="fill:white;fill-rule:nonzero;"/>
        <path d="M1371.83,620.333C1371.88,624.031 1372.58,627.582 1374.17,630.929C1375.56,633.839 1379.87,631.301 1378.49,628.405C1377.29,625.88 1376.87,623.107 1376.83,620.333C1376.79,617.111 1371.79,617.107 1371.83,620.333" style="fill:white;fill-rule:nonzero;"/>
        <path d="M1496.5,635C1496.64,639.836 1498.58,644.456 1501.51,648.262C1503.44,650.777 1507.79,648.293 1505.82,645.738C1503.43,642.633 1501.61,638.98 1501.5,635C1501.41,631.783 1496.41,631.773 1496.5,635" style="fill:white;fill-rule:nonzero;"/>
        <path d="M1862.84,601.738C1860.66,606.759 1858.2,611.644 1855.51,616.405C1853.92,619.215 1858.24,621.733 1859.82,618.928C1862.52,614.168 1864.98,609.282 1867.16,604.261C1868.43,601.336 1864.12,598.787 1862.84,601.738" style="fill:white;fill-rule:nonzero;"/>
        <path d="M1782.59,566.335C1781.8,570.536 1779.83,574.196 1777.51,577.738C1775.73,580.443 1780.07,582.945 1781.82,580.262C1784.36,576.395 1786.55,572.249 1787.41,567.665C1788,564.514 1783.18,563.169 1782.59,566.335" style="fill:white;fill-rule:nonzero;"/>
        <path d="M1571.83,481.667C1571.88,486.335 1572.87,490.94 1576.57,494.102C1579,496.187 1582.55,492.667 1580.1,490.566C1577.38,488.237 1576.86,485.094 1576.83,481.667C1576.8,478.444 1571.8,478.441 1571.83,481.667" style="fill:white;fill-rule:nonzero;"/>
        <path d="M1629.26,484.335C1628.55,487.859 1627.89,491.396 1627.83,495C1627.79,498.226 1632.79,498.221 1632.83,495C1632.88,491.832 1633.46,488.761 1634.08,485.664C1634.7,482.516 1629.89,481.174 1629.26,484.335" style="fill:white;fill-rule:nonzero;"/>
        <path d="M1587.17,591.667C1587.08,596.05 1585.79,600.157 1584.59,604.335C1583.69,607.44 1588.52,608.757 1589.41,605.665C1590.74,601.05 1592.07,596.505 1592.17,591.667C1592.23,588.44 1587.23,588.447 1587.17,591.667" style="fill:white;fill-rule:nonzero;"/>
        <path d="M1155.26,711.668C1153.96,717.584 1151.11,722.626 1147.23,727.232C1145.17,729.682 1148.69,733.237 1150.77,730.768C1155.19,725.515 1158.6,719.762 1160.08,712.998C1160.77,709.856 1155.94,708.52 1155.26,711.668" style="fill:white;fill-rule:nonzero;"/>
        <path d="M1071.17,721C1071.84,726.086 1071.83,731.212 1071.83,736.333C1071.83,739.558 1076.83,739.558 1076.83,736.333C1076.83,731.212 1076.84,726.086 1076.17,721C1075.75,717.851 1070.75,717.811 1071.17,721" style="fill:white;fill-rule:nonzero;"/>
        <path d="M998.499,632.333C998.5,635.252 998.595,638.143 999.255,640.998C999.982,644.139 1004.8,642.807 1004.08,639.668C1003.52,637.25 1003.5,634.805 1003.5,632.333C1003.5,629.108 998.497,629.108 998.499,632.333" style="fill:white;fill-rule:nonzero;"/>
        <path d="M1071.92,621.002C1071.14,623.267 1070.04,625.404 1069.26,627.668C1068.2,630.725 1073.03,632.026 1074.08,628.998C1074.86,626.733 1075.96,624.596 1076.74,622.332C1077.8,619.275 1072.97,617.974 1071.92,621.002" style="fill:white;fill-rule:nonzero;"/>
        <path d="M755.832,776.333C755.876,779.945 756.708,783.304 758.84,786.262C760.706,788.852 765.046,786.359 763.157,783.738C761.509,781.451 760.866,779.135 760.832,776.333C760.793,773.111 755.793,773.107 755.832,776.333" style="fill:white;fill-rule:nonzero;"/>
        <path d="M808.588,740.335C807.921,744.86 808.546,748.939 810.84,752.929C812.446,755.723 816.767,753.205 815.157,750.405C813.583,747.666 812.946,744.813 813.409,741.665C813.874,738.512 809.056,737.155 808.588,740.335" style="fill:white;fill-rule:nonzero;"/>
        <path d="M937.507,741.071C934.09,747.43 931.892,754.305 929.255,761.002C928.072,764.006 932.909,765.296 934.076,762.332C936.556,756.035 938.611,749.573 941.824,743.594C943.35,740.755 939.034,738.23 937.507,741.071" style="fill:white;fill-rule:nonzero;"/>
        <path d="M447.255,851.002C445.997,855.408 444.718,859.817 443.922,864.335C443.366,867.488 448.184,868.836 448.743,865.665C449.539,861.147 450.818,856.738 452.076,852.332C452.963,849.225 448.139,847.907 447.255,851.002" style="fill:white;fill-rule:nonzero;"/>
        <path d="M482.499,857.667C482.498,861.911 482.397,866.122 481.833,870.334C481.404,873.521 486.41,873.48 486.833,870.334C487.397,866.122 487.498,861.911 487.499,857.667C487.5,854.442 482.5,854.442 482.499,857.667" style="fill:white;fill-rule:nonzero;"/>
        <path d="M447.166,897C447.211,900.566 447.794,904.098 447.833,907.667C447.867,910.89 452.867,910.893 452.833,907.667C452.794,904.098 452.211,900.566 452.166,897C452.125,893.778 447.125,893.774 447.166,897" style="fill:white;fill-rule:nonzero;"/>
        <path d="M326.928,835.508C325.875,834.853 325.498,833.959 324.073,833.948C322.586,833.937 321.128,835.522 321.166,837C321.265,840.777 322.525,844.238 324.174,847.596C325.595,850.49 329.907,847.955 328.491,845.072C327.929,843.927 327.431,842.775 327.012,841.569C326.794,840.938 326.631,840.291 326.472,839.645C326.37,839.211 326.291,838.774 326.234,838.332C326.302,837.485 326.171,837.445 325.84,838.216C325.251,838.46 324.662,838.704 324.073,838.948C322.85,838.354 322.532,838.325 323.117,838.862C323.48,839.253 323.956,839.547 324.405,839.826C327.15,841.535 329.658,837.208 326.928,835.508" style="fill:white;fill-rule:nonzero;"/>
        <path d="M355.166,841C355.217,845.977 355.934,850.868 357.255,855.665C358.111,858.77 362.935,857.449 362.077,854.335C360.868,849.95 360.212,845.55 360.166,841C360.133,837.777 355.133,837.774 355.166,841" style="fill:white;fill-rule:nonzero;"/>
        <path d="M294.841,876.929C296.612,879.386 297.328,882.068 297.922,884.999C298.562,888.158 303.382,886.818 302.743,883.669C302.072,880.36 301.158,877.179 299.158,874.406C297.292,871.816 292.951,874.308 294.841,876.929" style="fill:white;fill-rule:nonzero;"/>
        <path d="M201.255,890.335C200.013,894.423 200.397,898.382 201.922,902.332C203.069,905.307 207.905,904.016 206.743,901.002C205.522,897.838 205.074,894.962 206.076,891.665C207.016,888.571 202.19,887.259 201.255,890.335" style="fill:white;fill-rule:nonzero;"/>
        <path d="M226.499,901C226.461,902.797 225.872,904.526 225.832,906.334C225.762,909.561 230.762,909.554 230.832,906.334C230.871,904.537 231.461,902.808 231.499,901C231.569,897.773 226.569,897.78 226.499,901" style="fill:white;fill-rule:nonzero;"/>
        <path d="M93.833,893C93.873,897.554 94.965,901.732 98.565,904.768C101.012,906.832 104.569,903.313 102.101,901.232C99.468,899.013 98.861,896.33 98.833,893C98.804,889.777 93.804,889.774 93.833,893" style="fill:white;fill-rule:nonzero;"/>
        <path d="M127.166,903.667C127.265,907.443 128.525,910.905 130.174,914.262C131.596,917.156 135.907,914.621 134.491,911.738C133.241,909.193 132.241,906.53 132.166,903.667C132.082,900.449 127.082,900.44 127.166,903.667" style="fill:white;fill-rule:nonzero;"/>
        <path d="M107.833,941C107.87,944.765 108.833,948.347 111.899,950.768C112.967,951.611 114.387,951.815 115.433,950.768C116.313,949.889 116.504,948.078 115.433,947.232C113.346,945.583 112.858,943.577 112.833,941C112.801,937.777 107.801,937.774 107.833,941" style="fill:white;fill-rule:nonzero;"/>
        <path d="M164.499,939L164.499,947C164.499,950.225 169.499,950.225 169.499,947L169.499,939C169.499,935.775 164.499,935.775 164.499,939" style="fill:white;fill-rule:nonzero;"/>
        <path d="M287.898,949.899C287.082,950.777 286.584,951.721 286.167,952.837C286.015,953.242 285.909,953.664 285.795,954.081C285.73,954.321 285.662,954.56 285.591,954.799C285.574,954.855 285.28,955.559 285.507,955.072C284.933,956.307 285.147,957.756 286.404,958.492C287.496,959.131 289.25,958.832 289.824,957.595C290.193,956.8 290.455,956.005 290.684,955.163C290.799,954.742 290.928,954.328 291.081,953.919C291.009,954.114 291.038,954.074 291.168,953.797C291.463,953.246 290.994,953.908 291.433,953.434C292.36,952.437 292.423,950.888 291.433,949.899C290.497,948.962 288.825,948.9 287.898,949.899" style="fill:white;fill-rule:nonzero;"/>
        <path d="M479.255,762.335C477.925,767.362 477.821,772.53 478.499,777.667C478.915,780.815 483.92,780.856 483.499,777.667C482.879,772.968 482.858,768.272 484.076,763.665C484.902,760.544 480.079,759.221 479.255,762.335" style="fill:white;fill-rule:nonzero;"/>
        <path d="M596.5,741.667C596.501,745.253 596.602,748.796 597.256,752.332C597.842,755.499 602.66,754.153 602.077,751.002C601.507,747.919 601.501,744.793 601.5,741.667C601.499,738.442 596.499,738.442 596.5,741.667" style="fill:white;fill-rule:nonzero;"/>
        <path d="M710.5,848.334C710.501,853.455 710.498,858.581 711.167,863.667C711.581,866.816 716.586,866.856 716.167,863.667C715.498,858.581 715.501,853.455 715.5,848.334C715.5,845.109 710.5,845.109 710.5,848.334" style="fill:white;fill-rule:nonzero;"/>
        <path d="M77.922,689.669C77.214,692.549 76.631,695.456 75.922,698.335C75.151,701.467 79.973,702.794 80.743,699.665C81.452,696.785 82.035,693.878 82.743,690.999C83.514,687.867 78.692,686.539 77.922,689.669" style="fill:white;fill-rule:nonzero;"/>
        <path d="M54.589,615.665C55.192,618.286 55.165,620.99 55.166,623.667C55.167,626.892 60.167,626.892 60.166,623.667C60.165,620.539 60.115,617.398 59.41,614.335C58.688,611.193 53.867,612.526 54.589,615.665" style="fill:white;fill-rule:nonzero;"/>
        <path d="M121.166,610.334C122.004,617.036 124.245,622.866 128.565,628.102C130.619,630.591 134.135,627.032 132.1,624.566C128.712,620.46 126.824,615.596 126.166,610.334C125.771,607.179 120.767,607.14 121.166,610.334" style="fill:white;fill-rule:nonzero;"/>
        <path d="M510.589,664.999C511.268,667.522 512.577,669.809 513.256,672.332C514.092,675.442 518.915,674.12 518.077,671.002C517.398,668.478 516.089,666.192 515.41,663.669C514.573,660.559 509.75,661.881 510.589,664.999" style="fill:white;fill-rule:nonzero;"/>
        <path d="M679.832,647.667C679.032,653.991 675.988,659.714 673.921,665.669C672.861,668.724 677.692,670.024 678.743,666.999C680.985,660.54 683.964,654.523 684.832,647.667C685.236,644.474 680.231,644.513 679.832,647.667" style="fill:white;fill-rule:nonzero;"/>
        <path d="M488.841,1003.07C485.315,1008.65 481.426,1013.99 478.174,1019.74C476.585,1022.55 480.904,1025.07 482.491,1022.26C485.743,1016.51 489.633,1011.18 493.158,1005.6C494.886,1002.86 490.558,1000.36 488.841,1003.07" style="fill:white;fill-rule:nonzero;"/>
        <path d="M365.833,1007C365.796,1010.4 365.253,1013.68 364.588,1017C363.96,1020.15 368.78,1021.49 369.41,1018.33C370.159,1014.58 370.791,1010.83 370.833,1007C370.869,1003.77 365.868,1003.78 365.833,1007" style="fill:white;fill-rule:nonzero;"/>
        <path d="M21.833,1009.67C21.988,1015.41 25.119,1019.96 29.738,1023.16C32.395,1025 34.892,1020.67 32.261,1018.84C29.133,1016.67 26.938,1013.55 26.833,1009.67C26.746,1006.45 21.744,1006.44 21.833,1009.67" style="fill:white;fill-rule:nonzero;"/>
        <path d="M614.5,890.334C614.501,895.018 614.552,899.684 615.167,904.334C615.583,907.482 620.588,907.523 620.167,904.334C619.552,899.684 619.501,895.018 619.5,890.334C619.499,887.109 614.499,887.109 614.5,890.334" style="fill:white;fill-rule:nonzero;"/>
        <path d="M795.507,955.738C794.087,957.908 792.927,960.235 791.507,962.405C789.736,965.112 794.067,967.614 795.824,964.928C797.245,962.759 798.404,960.431 799.824,958.261C801.596,955.554 797.264,953.052 795.507,955.738" style="fill:white;fill-rule:nonzero;"/>
        <path d="M569.943,675.305C568.943,674.305 570.552,664.253 574.443,665.305C583.014,667.622 576.401,673.555 574.401,676.055C576.901,673.555 582.465,675.244 582.443,679.555C582.415,685.077 577.036,682.953 572.901,682.555C574.401,685.055 577.443,691.555 571.443,691.555C566.943,691.555 567.401,686.555 567.401,683.055C564.401,685.555 559.943,690.555 556.943,684.055C554.443,678.055 560.943,678.805 564.943,677.805C557.943,676.305 558.605,669.198 561.193,667.555C565.016,665.129 569.943,670.805 569.943,675.305" style="fill:white;fill-rule:nonzero;"/>
        <path d="M798.194,871.248C797.194,870.248 798.803,860.196 802.694,861.248C811.265,863.565 804.652,869.498 802.652,871.998C805.152,869.498 810.716,871.187 810.694,875.498C810.666,881.02 805.287,878.896 801.152,878.498C802.652,880.998 805.694,887.498 799.694,887.498C795.194,887.498 795.652,882.498 795.652,878.998C792.652,881.498 788.194,886.498 785.194,879.998C782.694,873.998 789.194,874.748 793.194,873.748C786.194,872.248 786.856,865.141 789.444,863.498C793.267,861.072 798.194,866.748 798.194,871.248" style="fill:white;fill-rule:nonzero;"/>
        <path d="M582.971,966.58C581.971,965.58 583.58,955.528 587.471,956.58C596.042,958.897 589.429,964.83 587.429,967.33C589.929,964.83 595.493,966.519 595.471,970.83C595.443,976.352 590.064,974.228 585.929,973.83C587.429,976.33 590.471,982.83 584.471,982.83C579.971,982.83 580.429,977.83 580.429,974.33C577.429,976.83 572.971,981.83 569.971,975.33C567.471,969.33 573.971,970.08 577.971,969.08C570.971,967.58 571.633,960.473 574.221,958.83C578.044,956.404 582.971,962.08 582.971,966.58" style="fill:white;fill-rule:nonzero;"/>
        <path d="M1538.56,911.914C1537.56,910.914 1539.16,900.862 1543.06,901.914C1551.63,904.231 1545.01,910.164 1543.01,912.664C1545.51,910.164 1551.08,911.853 1551.06,916.164C1551.03,921.686 1545.65,919.562 1541.51,919.164C1543.01,921.664 1546.06,928.164 1540.06,928.164C1535.56,928.164 1536.01,923.164 1536.01,919.664C1533.01,922.164 1528.56,927.164 1525.56,920.664C1523.06,914.664 1529.56,915.414 1533.56,914.414C1526.56,912.914 1527.22,905.807 1529.81,904.164C1533.63,901.738 1538.56,907.414 1538.56,911.914" style="fill:white;fill-rule:nonzero;"/>
        <path d="M1653.88,995.248C1652.88,994.248 1654.49,984.196 1658.38,985.248C1666.95,987.565 1660.34,993.498 1658.34,995.998C1660.84,993.498 1666.4,995.187 1666.38,999.498C1666.35,1005.02 1660.97,1002.9 1656.84,1002.5C1658.34,1005 1661.38,1011.5 1655.38,1011.5C1650.88,1011.5 1651.34,1006.5 1651.34,1003C1648.34,1005.5 1643.88,1010.5 1640.88,1004C1638.38,997.998 1644.88,998.748 1648.88,997.748C1641.88,996.248 1642.54,989.141 1645.13,987.498C1648.95,985.072 1653.88,990.748 1653.88,995.248" style="fill:white;fill-rule:nonzero;"/>
        <path d="M922.193,653.914C921.193,652.914 922.802,642.862 926.694,643.914C935.264,646.231 928.652,652.164 926.652,654.664C929.152,652.164 934.716,653.853 934.694,658.164C934.666,663.686 929.287,661.562 925.152,661.164C926.652,663.664 929.694,670.164 923.694,670.164C919.194,670.164 919.652,665.164 919.652,661.664C916.652,664.164 912.194,669.164 909.194,662.664C906.694,656.664 913.194,657.414 917.194,656.414C910.194,654.914 910.855,647.807 913.444,646.164C917.267,643.738 922.193,649.414 922.193,653.914" style="fill:white;fill-rule:nonzero;"/>
        <path d="M1304.19,709.246C1303.19,708.246 1304.8,698.194 1308.69,699.246C1317.26,701.563 1310.65,707.496 1308.65,709.996C1311.15,707.496 1316.72,709.185 1316.69,713.496C1316.67,719.018 1311.29,716.894 1307.15,716.496C1308.65,718.996 1311.69,725.496 1305.69,725.496C1301.19,725.496 1301.65,720.496 1301.65,716.996C1298.65,719.496 1294.19,724.496 1291.19,717.996C1288.69,711.996 1295.19,712.746 1299.19,711.746C1292.19,710.246 1292.86,703.139 1295.44,701.496C1299.27,699.07 1304.19,704.746 1304.19,709.246" style="fill:white;fill-rule:nonzero;"/>
        <path d="M1731.3,588.58C1730.3,587.58 1731.9,577.528 1735.8,578.58C1744.37,580.897 1737.76,586.83 1735.76,589.33C1738.26,586.83 1743.82,588.519 1743.8,592.83C1743.77,598.352 1738.39,596.228 1734.26,595.83C1735.76,598.33 1738.8,604.83 1732.8,604.83C1728.3,604.83 1728.76,599.83 1728.76,596.33C1725.76,598.83 1721.3,603.83 1718.3,597.33C1715.8,591.33 1722.3,592.08 1726.3,591.08C1719.3,589.58 1719.96,582.473 1722.55,580.83C1726.37,578.404 1731.3,584.08 1731.3,588.58" style="fill:white;fill-rule:nonzero;"/>
        <path d="M127.526,994.58C126.526,993.58 128.135,983.528 132.027,984.58C140.597,986.897 133.985,992.83 131.985,995.33C134.485,992.83 140.049,994.519 140.027,998.83C139.999,1004.35 134.62,1002.23 130.485,1001.83C131.985,1004.33 135.027,1010.83 129.027,1010.83C124.527,1010.83 124.985,1005.83 124.985,1002.33C121.985,1004.83 117.527,1009.83 114.527,1003.33C112.027,997.33 118.527,998.08 122.527,997.08C115.527,995.58 116.188,988.473 118.777,986.83C122.6,984.404 127.526,990.08 127.526,994.58" style="fill:white;fill-rule:nonzero;"/>
        <path d="M96.86,762.914C95.86,761.914 97.469,751.862 101.361,752.914C109.931,755.231 103.319,761.164 101.319,763.664C103.819,761.164 109.383,762.853 109.361,767.164C109.333,772.686 103.954,770.562 99.819,770.164C101.319,772.664 104.361,779.164 98.361,779.164C93.861,779.164 94.319,774.164 94.319,770.664C91.319,773.164 86.861,778.164 83.861,771.664C81.361,765.664 87.861,766.414 91.861,765.414C84.861,763.914 85.522,756.807 88.111,755.164C91.934,752.738 96.86,758.414 96.86,762.914" style="fill:white;fill-rule:nonzero;"/>
        <path d="M1698.85,959.084C1700.8,961.37 1700.93,964.458 1699.15,965.981C1697.36,967.506 1694.33,966.888 1692.38,964.601C1690.43,962.315 1690.3,959.228 1692.08,957.703C1693.87,956.18 1696.9,956.798 1698.85,959.084" style="fill:rgb(29,29,27);fill-rule:nonzero;"/>
        <path d="M1707.32,969.012C1709.27,971.298 1709.41,974.386 1707.62,975.91C1705.84,977.433 1702.81,976.817 1700.86,974.531C1698.91,972.245 1698.77,969.156 1700.56,967.632C1702.34,966.109 1705.37,966.726 1707.32,969.012" style="fill:rgb(29,29,27);fill-rule:nonzero;"/>
        <path d="M1701.74,965.742C1702.72,966.887 1702.78,968.43 1701.89,969.192C1701,969.954 1699.48,969.644 1698.51,968.501C1697.53,967.358 1697.47,965.815 1698.36,965.054C1699.25,964.291 1700.76,964.599 1701.74,965.742" style="fill:rgb(29,29,27);fill-rule:nonzero;"/>
        <path d="M1694.21,952.156C1694.65,952.677 1694.68,953.378 1694.28,953.723C1693.87,954.07 1693.18,953.93 1692.74,953.41C1692.3,952.892 1692.27,952.189 1692.67,951.844C1693.08,951.497 1693.77,951.638 1694.21,952.156" style="fill:rgb(29,29,27);fill-rule:nonzero;"/>
        <path d="M1687.74,957.675C1688.18,958.195 1688.22,958.896 1687.81,959.243C1687.4,959.588 1686.72,959.447 1686.27,958.928C1685.83,958.409 1685.8,957.708 1686.2,957.362C1686.61,957.015 1687.3,957.155 1687.74,957.675" style="fill:rgb(29,29,27);fill-rule:nonzero;"/>
        <path d="M1687.01,958.301L1691.57,960.368" style="fill:none;stroke:rgb(29,29,27);stroke-width:1px;"/>
        <path d="M1693.82,953.188L1695.04,957.895" style="fill:none;stroke:rgb(29,29,27);stroke-width:1px;"/>
        <path d="M1691.54,972.474L1692,967.422L1696.82,964.596" style="fill:none;stroke:rgb(29,29,27);stroke-width:1px;"/>
        <path d="M1694.02,975.368L1694.59,969.876L1699.09,967.26" style="fill:none;stroke:rgb(29,29,27);stroke-width:1px;"/>
        <path d="M1696.73,977.015L1697,971.836L1700.74,971.121" style="fill:none;stroke:rgb(29,29,27);stroke-width:1px;"/>
        <path d="M1705.87,958.644L1701.01,958.916L1697.51,962.716" style="fill:none;stroke:rgb(29,29,27);stroke-width:1px;"/>
        <path d="M1707.79,962.627L1703.24,962.492L1700.18,965.838" style="fill:none;stroke:rgb(29,29,27);stroke-width:1px;"/>
        <path d="M1710.75,966.09L1705.28,965.754L1704.47,968.945" style="fill:none;stroke:rgb(29,29,27);stroke-width:1px;"/>
    </g>
</svg>
