<?xml version="1.0" encoding="utf-8"?>
<!-- Generator: Adobe Illustrator 18.1.1, SVG Export Plug-In . SVG Version: 6.00 Build 0)  -->
<svg version="1.1" id="Layer_1" xmlns="http://www.w3.org/2000/svg" xmlns:xlink="http://www.w3.org/1999/xlink" x="0px" y="0px"
	 viewBox="0 0 612 792" enable-background="new 0 0 612 792" xml:space="preserve">
<g>
	<g>
		<path fill="#1D1D1B" d="M190,0.6c8.5,49.4,160.9,662.6,201.4,788c13.9-3.4,21.9-7.8,31.8-10.5c-4-17.9-89.1-321.9-92.8-348
			c15.4-16,25.9-30.2,37.5-41.4c-5.3-7.6-16.4-23.1-21.7-33.6c7.5-11.5,21.1-22.6,29.9-31.3c-13.7-8-21-23.4-32.3-33.4
			c5.1-12.7,14.7-21.6,20.9-34.9c-12.9-12.8-26.1-17.3-36.5-26.9c7.4-14.2,13.5-33.8,23.9-60.8c-16-9.8-29.3-20.8-42.9-29.9
			c4.2-10.9,13.4-24,19.7-37.5C318.4,96,300,84.1,289.8,78.6c3.5-9.9,3.8-23.9,6.8-36.8c-16.5,0.5-24,1.4-37.1,0.5
			c-2.4-11-2.9-14.9-10.2-36.5c-16.5,8.7-17.8,9.4-29.1,14.2C211.1,15.3,200,7.8,190,0.6"/>
	</g>
	<path fill="none" stroke="#FFFFFF" stroke-width="5" stroke-linecap="round" stroke-miterlimit="10" d="M366,254.6
		c0,0-9,5.8-26.1,7.6c-17.1,1.8-31.2-3.6-39.2-18"/>
	<circle fill="#FFFFFF" cx="276.7" cy="160.5" r="9.3"/>
</g>
</svg>
