<?xml version="1.0" encoding="UTF-8" standalone="no"?>
<!DOCTYPE svg PUBLIC "-//W3C//DTD SVG 1.1//EN" "http://www.w3.org/Graphics/SVG/1.1/DTD/svg11.dtd">
<svg width="100%" height="100%" viewBox="0 0 227 120" version="1.1" xmlns="http://www.w3.org/2000/svg" xmlns:xlink="http://www.w3.org/1999/xlink" xml:space="preserve" style="fill-rule:evenodd;clip-rule:evenodd;stroke-linejoin:round;stroke-miterlimit:1.41421;">
    <g transform="matrix(1,0,0,1,-1156.68,-127.298)">
        <path d="M1302.5,144.889C1302.5,144.889 1312.86,131.34 1334.44,138.335C1353.05,144.363 1357.83,151.471 1360.27,160.778C1367.58,155.563 1383.61,159.911 1382.83,170.817C1382.24,179.187 1374.53,182.768 1374.53,182.768C1374.53,182.768 1385.09,192.955 1381.4,200.656C1373,218.166 1355.53,210.095 1355.53,210.095C1355.53,210.095 1359.3,236.758 1332.44,242.309C1305.57,247.862 1297.84,224.34 1297.84,224.34C1297.84,224.34 1285.66,249.179 1256.53,246.207C1227.41,243.237 1226.74,219.264 1226.74,219.264C1226.74,219.264 1208.98,229.991 1187.35,219.612C1165.72,209.234 1171.64,199.85 1171.64,199.85C1171.64,199.85 1155.45,197.644 1156.76,182.338C1158.14,166.112 1175.78,169.027 1175.78,169.027C1175.78,169.027 1170.48,124.224 1236.27,144.29C1236.27,144.29 1247.39,125.908 1271.3,127.383C1295.2,128.859 1297.58,136.062 1302.5,144.889" style="fill:rgb(175,225,226);fill-rule:nonzero;"/>
    </g>
</svg>
